<svg width="current" height="24" viewBox="0 0 24 24" fill="none" xmlns="http://www.w3.org/2000/svg">
<path d="M17.3333 11.3333C17.5205 11.3333 17.6764 11.3996 17.8012 11.5322C17.9337 11.6569 18 11.8129 18 12C18 12.1793 17.9337 12.3353 17.8012 12.4678C17.6764 12.6004 17.5205 12.6667 17.3333 12.6667H6.66667C6.48733 12.6667 6.33138 12.6004 6.19883 12.4678C6.06628 12.3353 6 12.1793 6 12C6 11.8129 6.06628 11.6569 6.19883 11.5322C6.33138 11.3996 6.48733 11.3333 6.66667 11.3333H17.3333ZM11.8012 16.1988C11.9337 16.3158 12 16.4717 12 16.6667C12 16.846 11.9337 17.002 11.8012 17.1345C11.6764 17.2671 11.5205 17.3333 11.3333 17.3333C11.1462 17.3333 10.9903 17.2671 10.8655 17.1345L6.26901 12.538C6.12865 12.3899 6.05848 12.2105 6.05848 12C6.05848 11.7817 6.12865 11.6023 6.26901 11.462L10.8655 6.8655C10.9903 6.73295 11.1462 6.66667 11.3333 6.66667C11.5205 6.66667 11.6764 6.73295 11.8012 6.8655C11.9337 6.99026 12 7.1462 12 7.33334C12 7.52047 11.9337 7.67642 11.8012 7.80117L7.20468 12.3977C7.16569 12.4367 7.1384 12.3821 7.12281 12.2339C7.10721 12.078 7.10721 11.9259 7.12281 11.7778C7.1384 11.6218 7.16569 11.5634 7.20468 11.6023L11.8012 16.1988Z" fill="black"/>
</svg>
