<svg width="current" height="24" viewBox="0 0 24 24" fill="none" xmlns="http://www.w3.org/2000/svg">
<path d="M12.6667 17.3333C12.6667 17.5127 12.6004 17.6686 12.4678 17.8012C12.3431 17.9337 12.1871 18 12 18C11.8207 18 11.6647 17.9337 11.5322 17.8012C11.3996 17.6686 11.3333 17.5127 11.3333 17.3333V6.66667C11.3333 6.47953 11.3996 6.32359 11.5322 6.19883C11.6647 6.06628 11.8207 6 12 6C12.1871 6 12.3431 6.06628 12.4678 6.19883C12.6004 6.32359 12.6667 6.47953 12.6667 6.66667V17.3333ZM7.80116 11.8012C7.6842 11.9337 7.52825 12 7.33332 12C7.15399 12 6.99804 11.9337 6.86549 11.8012C6.73293 11.6686 6.66666 11.5127 6.66666 11.3333C6.66666 11.1384 6.73293 10.9825 6.86549 10.8655L11.462 6.26901C11.6101 6.12086 11.7895 6.04678 12 6.04678C12.2183 6.04678 12.3977 6.12086 12.538 6.26901L17.1345 10.8655C17.267 10.9825 17.3333 11.1384 17.3333 11.3333C17.3333 11.5127 17.267 11.6686 17.1345 11.8012C17.0097 11.9337 16.8538 12 16.6667 12C16.4795 12 16.3236 11.9337 16.1988 11.8012L11.6023 7.20468C11.5633 7.16569 11.6179 7.1384 11.7661 7.12281C11.922 7.10721 12.0741 7.10721 12.2222 7.12281C12.3782 7.1384 12.4366 7.16569 12.3977 7.20468L7.80116 11.8012Z" fill="black"/>
</svg>
