<svg width="current" height="24" viewBox="0 0 24 24" fill="none" xmlns="http://www.w3.org/2000/svg">
<path d="M6.66667 12.6667C6.48733 12.6667 6.33138 12.6004 6.19883 12.4678C6.06628 12.3353 6 12.1793 6 12C6 11.8129 6.06628 11.6569 6.19883 11.5322C6.33138 11.3996 6.48733 11.3333 6.66667 11.3333H17.3333C17.5205 11.3333 17.6764 11.3996 17.8012 11.5322C17.9337 11.6569 18 11.8129 18 12C18 12.1793 17.9337 12.3353 17.8012 12.4678C17.6764 12.6004 17.5205 12.6667 17.3333 12.6667H6.66667ZM13.1345 17.1345C13.0175 17.2671 12.8616 17.3333 12.6667 17.3333C12.4873 17.3333 12.3314 17.2671 12.1988 17.1345C12.0663 17.002 12 16.846 12 16.6667C12 16.4717 12.0663 16.3158 12.1988 16.1988L16.7953 11.6023C16.8343 11.5634 16.8616 11.6218 16.8772 11.7778C16.8928 11.9259 16.8928 12.078 16.8772 12.2339C16.8616 12.3821 16.8343 12.4367 16.7953 12.3977L12.1988 7.80117C12.0663 7.67642 12 7.52047 12 7.33334C12 7.1462 12.0663 6.99026 12.1988 6.8655C12.3314 6.73295 12.4873 6.66667 12.6667 6.66667C12.8616 6.66667 13.0175 6.73295 13.1345 6.8655L17.731 11.462C17.8791 11.6023 17.9532 11.7817 17.9532 12C17.9532 12.2105 17.8791 12.3899 17.731 12.538L13.1345 17.1345Z" fill="currentColor"/>
</svg>
