<svg width="current" height="24" viewBox="0 0 24 24" fill="none" xmlns="http://www.w3.org/2000/svg">
<path d="M13.1479 17.2917C12.9851 17.4762 12.768 17.5685 12.4966 17.5685C12.2469 17.5685 12.0299 17.4762 11.8453 17.2917C11.6608 17.1072 11.5685 16.8901 11.5685 16.6404C11.5685 16.3691 11.6608 16.152 11.8453 15.9891L16.3881 11.4464C16.4423 11.3921 16.4803 11.4735 16.502 11.6906C16.5237 11.8969 16.5237 12.1085 16.502 12.3256C16.4803 12.5319 16.4423 12.6079 16.3881 12.5536L11.8453 8.01085C11.6608 7.83717 11.5685 7.62008 11.5685 7.35956C11.5685 7.09904 11.6608 6.88195 11.8453 6.70827C12.0299 6.52374 12.2469 6.43147 12.4966 6.43147C12.768 6.43147 12.9851 6.52374 13.1479 6.70827L17.6906 11.251C17.8969 11.4464 18 11.6961 18 12C18 12.2931 17.8969 12.5427 17.6906 12.749L13.1479 17.2917ZM7.57938 17.2917C7.41655 17.4762 7.19946 17.5685 6.92809 17.5685C6.67843 17.5685 6.46133 17.4762 6.2768 17.2917C6.09227 17.1072 6 16.8901 6 16.6404C6 16.3691 6.09227 16.152 6.2768 15.9891L10.8195 11.4464C10.8738 11.3921 10.9118 11.4735 10.9335 11.6906C10.9552 11.8969 10.9552 12.1085 10.9335 12.3256C10.9118 12.5319 10.8738 12.6079 10.8195 12.5536L6.2768 8.01085C6.09227 7.83717 6 7.62008 6 7.35956C6 7.09904 6.09227 6.88195 6.2768 6.70827C6.46133 6.52374 6.67843 6.43147 6.92809 6.43147C7.19946 6.43147 7.41655 6.52374 7.57938 6.70827L12.1221 11.251C12.3284 11.4464 12.4315 11.6961 12.4315 12C12.4315 12.2931 12.3284 12.5427 12.1221 12.749L7.57938 17.2917Z" fill="black"/>
</svg>
