<svg width="current" height="24" viewBox="0 0 24 24" fill="none" xmlns="http://www.w3.org/2000/svg">
<path d="M14.6667 16C14.8538 16 15.0097 16.0663 15.1345 16.1988C15.2671 16.3236 15.3333 16.4795 15.3333 16.6667C15.3333 16.846 15.2671 17.002 15.1345 17.1345C15.0097 17.2671 14.8538 17.3333 14.6667 17.3333H10C9.28265 17.3333 8.61598 17.154 8 16.7953C7.38402 16.4367 6.89669 15.9493 6.53801 15.3333C6.17934 14.7174 6 14.0507 6 13.3333C6 12.6082 6.17934 11.9415 6.53801 11.3333C6.89669 10.7174 7.38402 10.23 8 9.87135C8.61598 9.51268 9.28265 9.33334 10 9.33334H17.3333C17.5205 9.33334 17.6764 9.39962 17.8012 9.53217C17.9337 9.65692 18 9.81287 18 10C18 10.1793 17.9337 10.3353 17.8012 10.4678C17.6764 10.6004 17.5205 10.6667 17.3333 10.6667H10C9.49318 10.6667 9.03704 10.7797 8.63158 11.0059C8.22612 11.232 7.90643 11.5478 7.67251 11.9532C7.44639 12.3587 7.33333 12.8187 7.33333 13.3333C7.33333 13.8402 7.44639 14.2963 7.67251 14.7018C7.90643 15.1072 8.22612 15.4269 8.63158 15.6608C9.03704 15.8869 9.49318 16 10 16H14.6667ZM14.1988 7.80117C14.0663 7.67642 14 7.52047 14 7.33334C14 7.1462 14.0663 6.99026 14.1988 6.8655C14.3314 6.73295 14.4873 6.66667 14.6667 6.66667C14.8616 6.66667 15.0175 6.73295 15.1345 6.8655L17.731 9.46199C17.8791 9.60234 17.9532 9.78168 17.9532 10C17.9532 10.2105 17.8791 10.3899 17.731 10.538L15.1345 13.1345C15.0175 13.2671 14.8616 13.3333 14.6667 13.3333C14.4873 13.3333 14.3314 13.2671 14.1988 13.1345C14.0663 13.002 14 12.846 14 12.6667C14 12.4717 14.0663 12.3158 14.1988 12.1988L16.7953 9.60234C16.8343 9.56336 16.8616 9.62184 16.8772 9.77778C16.8928 9.92593 16.8928 10.078 16.8772 10.2339C16.8616 10.3821 16.8343 10.4367 16.7953 10.3977L14.1988 7.80117Z" fill="currentColor"/>
</svg>
