<svg width="current" height="24" viewBox="0 0 24 24" fill="none" xmlns="http://www.w3.org/2000/svg">
<path d="M14.6667 11.3333C14.4873 11.3333 14.3314 11.2671 14.1988 11.1345C14.0663 11.002 14 10.846 14 10.6667C14 10.4795 14.0663 10.3236 14.1988 10.1988C14.3314 10.0663 14.4873 10 14.6667 10H17.2398C17.2788 10 17.2476 10.0585 17.1462 10.1754C17.0526 10.2846 16.9474 10.3899 16.8304 10.4912C16.7212 10.5848 16.6667 10.6121 16.6667 10.5731V8.00001C16.6667 7.81287 16.7329 7.65693 16.8655 7.53217C16.9981 7.39962 17.154 7.33334 17.3333 7.33334C17.5205 7.33334 17.6764 7.39962 17.8012 7.53217C17.9337 7.65693 18 7.81287 18 8.00001V10.5731C18 10.7836 17.9259 10.963 17.7778 11.1111C17.6296 11.2593 17.4503 11.3333 17.2398 11.3333H14.6667ZM7.33333 16C7.33333 16.1793 7.26706 16.3353 7.1345 16.4678C7.00975 16.6004 6.8538 16.6667 6.66667 16.6667C6.48733 16.6667 6.33138 16.6004 6.19883 16.4678C6.06628 16.3353 6 16.1793 6 16V13.4269C6 13.2164 6.07407 13.037 6.22222 12.8889C6.37037 12.7407 6.54971 12.6667 6.76023 12.6667H9.33333C9.52047 12.6667 9.67641 12.7329 9.80117 12.8655C9.93372 12.9903 10 13.1462 10 13.3333C10 13.5127 9.93372 13.6686 9.80117 13.8012C9.67641 13.9337 9.52047 14 9.33333 14H6.76023C6.72125 14 6.74854 13.9454 6.84211 13.8363C6.94347 13.7193 7.04873 13.614 7.15789 13.5205C7.27485 13.4191 7.33333 13.3879 7.33333 13.4269V16ZM7.23977 12.9708L9.11111 14.9123C9.48538 15.3022 9.91033 15.5984 10.386 15.8012C10.8694 15.9961 11.4074 16.0936 12 16.0936C12.8343 16.0936 13.575 15.883 14.2222 15.462C14.8772 15.0409 15.3801 14.4561 15.731 13.7076C15.7778 13.5984 15.8558 13.5088 15.9649 13.4386C16.0741 13.3684 16.1949 13.3333 16.3275 13.3333C16.5146 13.3333 16.6706 13.3996 16.7953 13.5322C16.9279 13.6569 16.9942 13.8129 16.9942 14C16.9942 14.0858 16.9747 14.1793 16.9357 14.2807C16.6472 14.8967 16.2534 15.4425 15.7544 15.9181C15.2554 16.3938 14.6823 16.7641 14.0351 17.0292C13.3879 17.2944 12.7096 17.4269 12 17.4269C11.2593 17.4269 10.5536 17.2866 9.88304 17.0059C9.21248 16.7252 8.63548 16.3314 8.15205 15.8246L6.2807 13.883L7.23977 12.9708ZM17.7193 10.117C17.8441 10.2417 17.9064 10.3938 17.9064 10.5731C17.9064 10.7524 17.8402 10.9084 17.7076 11.0409C17.5828 11.1735 17.4269 11.2398 17.2398 11.2398C17.0604 11.2398 16.9006 11.1696 16.7602 11.0292L14.8889 9.08772C14.5146 8.69786 14.0858 8.40546 13.6023 8.21053C13.1267 8.0078 12.5926 7.90644 12 7.90644C11.1657 7.90644 10.4211 8.11697 9.76608 8.53802C9.11891 8.95907 8.62378 9.53997 8.2807 10.2807C8.22612 10.3977 8.14425 10.4912 8.03509 10.5614C7.92593 10.6316 7.80507 10.6667 7.67251 10.6667C7.49318 10.6667 7.33723 10.6004 7.20468 10.4678C7.07212 10.3353 7.00585 10.1793 7.00585 10C7.00585 9.90644 7.02924 9.80897 7.07602 9.70761C7.36452 9.09162 7.75439 8.54971 8.24561 8.08188C8.74464 7.60624 9.31774 7.23587 9.96491 6.97077C10.6121 6.70566 11.2904 6.5731 12 6.5731C12.7485 6.5731 13.4542 6.71346 14.117 6.99416C14.7875 7.26706 15.3645 7.66082 15.848 8.17544L17.7193 10.117Z" fill="black"/>
</svg>
