<svg width="24" height="24" viewBox="0 0 24 24" fill="none" xmlns="http://www.w3.org/2000/svg">
<path d="M5.3614 7.36141C5.22105 7.52047 5.03392 7.6 4.8 7.6C4.5848 7.6 4.39766 7.52047 4.2386 7.36141C4.07953 7.20234 4 7.01521 4 6.8C4 6.56608 4.07953 6.37895 4.2386 6.2386L5.8386 4.6386C5.9883 4.47953 6.17544 4.4 6.4 4.4C6.62456 4.4 6.8117 4.47953 6.9614 4.6386C7.12047 4.78831 7.2 4.97544 7.2 5.2C7.2 5.42456 7.12047 5.6117 6.9614 5.76141L5.3614 7.36141ZM19.7614 6.2386C19.9205 6.37895 20 6.56608 20 6.8C20 7.01521 19.9205 7.20234 19.7614 7.36141C19.6117 7.52047 19.4246 7.6 19.2 7.6C18.9754 7.6 18.7883 7.52047 18.6386 7.36141L17.0386 5.76141C16.8795 5.6117 16.8 5.42456 16.8 5.2C16.8 4.97544 16.8795 4.78831 17.0386 4.6386C17.1977 4.47953 17.3848 4.4 17.6 4.4C17.8339 4.4 18.0211 4.47953 18.1614 4.6386L19.7614 6.2386ZM12 18C13.0667 18 14.0257 17.7567 14.8772 17.2702C15.7287 16.7836 16.393 16.1146 16.8702 15.2632C17.3567 14.4117 17.6 13.4573 17.6 12.4C17.6 11.3333 17.3567 10.3743 16.8702 9.52281C16.393 8.67135 15.7287 8.00702 14.8772 7.52983C14.0257 7.04328 13.0667 6.8 12 6.8C10.9427 6.8 9.9883 7.04328 9.13684 7.52983C8.28538 8.00702 7.61637 8.67135 7.12982 9.52281C6.64327 10.3743 6.4 11.3333 6.4 12.4C6.4 13.4573 6.64327 14.4117 7.12982 15.2632C7.61637 16.1146 8.28538 16.7836 9.13684 17.2702C9.9883 17.7567 10.9427 18 12 18ZM12 19.6C10.6901 19.6 9.48304 19.2772 8.37895 18.6316C7.28421 17.986 6.41404 17.1158 5.76842 16.0211C5.12281 14.917 4.8 13.7099 4.8 12.4C4.8 11.0901 5.12281 9.88304 5.76842 8.77895C6.41404 7.67486 7.28421 6.80468 8.37895 6.16842C9.48304 5.52281 10.6901 5.2 12 5.2C13.3099 5.2 14.517 5.52281 15.6211 6.16842C16.7251 6.80468 17.5953 7.67486 18.2316 8.77895C18.8772 9.88304 19.2 11.0901 19.2 12.4C19.2 13.7099 18.8772 14.917 18.2316 16.0211C17.5953 17.1158 16.7251 17.986 15.6211 18.6316C14.517 19.2772 13.3099 19.6 12 19.6ZM13.8386 10.2386C13.9883 10.0795 14.1754 10 14.4 10C14.6246 10 14.8117 10.0795 14.9614 10.2386C15.1205 10.3883 15.2 10.5754 15.2 10.8C15.2 11.0246 15.1205 11.2117 14.9614 11.3614L11.8456 14.4772C11.6772 14.6456 11.462 14.7298 11.2 14.7298C10.9474 14.7298 10.7322 14.6456 10.5544 14.4772L9.0386 12.9614C8.87953 12.8117 8.8 12.6246 8.8 12.4C8.8 12.1754 8.87953 11.9883 9.0386 11.8386C9.19766 11.6795 9.3848 11.6 9.6 11.6C9.83392 11.6 10.0211 11.6795 10.1614 11.8386L11.6772 13.3544C11.724 13.4012 11.6538 13.4339 11.4667 13.4526C11.2889 13.4713 11.1064 13.4713 10.9193 13.4526C10.7415 13.4339 10.676 13.4012 10.7228 13.3544L13.8386 10.2386Z" fill="black"/>
</svg>
