<svg width="current" height="current" viewBox="0 0 24 24" fill="none" xmlns="http://www.w3.org/2000/svg">
<path d="M12 5.6C10.8117 5.6 9.72632 5.8807 8.74386 6.44211C7.77076 6.99415 7.00351 7.7614 6.44211 8.74386C5.8807 9.71696 5.6 10.8023 5.6 12C5.6 12.6269 5.67953 13.2164 5.8386 13.7684C5.99766 14.3205 6.24094 14.8632 6.56842 15.3965L5.90877 18.0912C5.89006 18.1661 5.86667 18.2035 5.8386 18.2035C5.81053 18.2035 5.79649 18.1895 5.79649 18.1614C5.79649 18.1333 5.83392 18.1099 5.90877 18.0912L8.60351 17.4316C9.13684 17.7591 9.67953 18.0023 10.2316 18.1614C10.7836 18.3205 11.3731 18.4 12 18.4C13.1977 18.4 14.283 18.1193 15.2561 17.5579C16.2386 16.9965 17.0058 16.2292 17.5579 15.2561C18.1193 14.2737 18.4 13.1883 18.4 12C18.4 10.8023 18.1193 9.71696 17.5579 8.74386C17.0058 7.7614 16.2386 6.99415 15.2561 6.44211C14.283 5.8807 13.1977 5.6 12 5.6ZM12 4C13.4503 4 14.7883 4.36023 16.014 5.0807C17.2398 5.79181 18.2082 6.76023 18.9193 7.98597C19.6398 9.2117 20 10.5497 20 12C20 13.4409 19.6398 14.7789 18.9193 16.014C18.2082 17.2398 17.2398 18.2129 16.014 18.9333C14.7883 19.6444 13.4503 20 12 20C10.7368 20 9.52982 19.7099 8.37895 19.1298L6.27368 19.6491C5.89942 19.7427 5.54386 19.7053 5.20702 19.5368C4.87953 19.3684 4.63158 19.1205 4.46316 18.793C4.29474 18.4561 4.25731 18.1006 4.35088 17.7263L4.87018 15.6211C4.29006 14.4702 4 13.2632 4 12C4 10.5497 4.35556 9.2117 5.06667 7.98597C5.78713 6.76023 6.76023 5.79181 7.98596 5.0807C9.22105 4.36023 10.5591 4 12 4Z" fill="currentColor"/>
</svg>
