<svg width="current" height="current" viewBox="0 0 24 24" fill="none" xmlns="http://www.w3.org/2000/svg">
<path d="M16.7619 16.2857V9.61905C16.7619 8.70565 16.5558 7.88694 16.1437 7.16291C15.7427 6.43888 15.1802 5.87636 14.4561 5.47536C13.7321 5.06321 12.9134 4.85714 12 4.85714C11.0977 4.85714 10.2846 5.06321 9.56057 5.47536C8.83654 5.87636 8.26845 6.43888 7.85631 7.16291C7.44417 7.88694 7.2381 8.70565 7.2381 9.61905V16.2857H16.7619ZM5.33334 9.61905C5.33334 8.41604 5.62852 7.30214 6.21888 6.27736C6.82039 5.25258 7.63353 4.445 8.65831 3.85464C9.6831 3.25313 10.797 2.95238 12 2.95238C13.2141 2.95238 14.328 3.25313 15.3417 3.85464C16.3665 4.445 17.174 5.25258 17.7644 6.27736C18.3659 7.30214 18.6667 8.41604 18.6667 9.61905V18.1905H5.33334V9.61905ZM19.619 16.2857C19.8864 16.2857 20.1092 16.3804 20.2874 16.5698C20.4767 16.748 20.5714 16.9708 20.5714 17.2381C20.5714 17.4943 20.4767 17.7171 20.2874 17.9064C20.1092 18.0958 19.8864 18.1905 19.619 18.1905H17.7143C17.4581 18.1905 17.2353 18.0958 17.0459 17.9064C16.8566 17.7171 16.7619 17.4943 16.7619 17.2381C16.7619 16.9708 16.8566 16.748 17.0459 16.5698C17.2353 16.3804 17.4581 16.2857 17.7143 16.2857H19.619ZM4.38095 18.1905C4.12476 18.1905 3.90198 18.0958 3.71262 17.9064C3.52325 17.7171 3.42857 17.4943 3.42857 17.2381C3.42857 16.9708 3.52325 16.748 3.71262 16.5698C3.90198 16.3804 4.12476 16.2857 4.38095 16.2857H6.28572C6.55305 16.2857 6.77583 16.3804 6.95405 16.5698C7.14342 16.748 7.2381 16.9708 7.2381 17.2381C7.2381 17.4943 7.14342 17.7171 6.95405 17.9064C6.77583 18.0958 6.55305 18.1905 6.28572 18.1905H4.38095ZM12 20.0952C12 19.8279 12.0947 19.6051 12.284 19.4269C12.4734 19.2375 12.6962 19.1429 12.9524 19.1429C13.2197 19.1429 13.4425 19.2375 13.6207 19.4269C13.8101 19.6051 13.9048 19.8279 13.9048 20.0952C13.9048 20.4294 13.8157 20.7469 13.6374 21.0476C13.4703 21.3372 13.242 21.5712 12.9524 21.7494C12.6628 21.9165 12.3453 22 12 22C11.6658 22 11.3484 21.9165 11.0476 21.7494C10.758 21.5712 10.5241 21.3372 10.3459 21.0476C10.1788 20.7469 10.0952 20.4294 10.0952 20.0952C10.0952 19.8279 10.1899 19.6051 10.3793 19.4269C10.5686 19.2375 10.7914 19.1429 11.0476 19.1429C11.315 19.1429 11.5377 19.2375 11.716 19.4269C11.9053 19.6051 12 19.8279 12 20.0952C12 20.1509 11.9889 20.1788 11.9666 20.1788C11.9443 20.1676 11.9276 20.1509 11.9165 20.1287C11.9165 20.1064 11.9443 20.0952 12 20.0952C12.0557 20.0952 12.078 20.1064 12.0668 20.1287C12.0668 20.1509 12.0557 20.1676 12.0334 20.1788C12.0111 20.1788 12 20.1509 12 20.0952ZM10.0952 3.90476C10.0952 3.55945 10.1788 3.24199 10.3459 2.95238C10.5241 2.66277 10.758 2.43442 11.0476 2.26734C11.3484 2.08911 11.6658 2 12 2C12.3453 2 12.6628 2.08911 12.9524 2.26734C13.242 2.43442 13.4703 2.66277 13.6374 2.95238C13.8157 3.24199 13.9048 3.55945 13.9048 3.90476V5.10777C12.8911 4.94069 12.2562 4.85714 12 4.85714C11.7438 4.85714 11.1089 4.94069 10.0952 5.10777V3.90476ZM11.0476 21.0476C10.7914 21.0476 10.5686 20.9529 10.3793 20.7636C10.1899 20.5742 10.0952 20.3514 10.0952 20.0952C10.0952 19.8279 10.1899 19.6051 10.3793 19.4269C10.5686 19.2375 10.7914 19.1429 11.0476 19.1429H12.9524C13.2197 19.1429 13.4425 19.2375 13.6207 19.4269C13.8101 19.6051 13.9048 19.8279 13.9048 20.0952C13.9048 20.3514 13.8101 20.5742 13.6207 20.7636C13.4425 20.9529 13.2197 21.0476 12.9524 21.0476H11.0476ZM12.9524 20.0952C12.9524 20.3514 12.8577 20.5742 12.6683 20.7636C12.479 20.9529 12.2562 21.0476 12 21.0476C11.7438 21.0476 11.521 20.9529 11.3317 20.7636C11.1423 20.5742 11.0476 20.3514 11.0476 20.0952H12.9524Z" fill="currentColor"/>
</svg>
