<svg width="current" height="current" viewBox="0 0 24 24" fill="none" xmlns="http://www.w3.org/2000/svg">
<path d="M12 18.4C13.1977 18.4 14.283 18.1193 15.2561 17.5579C16.2386 16.9965 17.0058 16.2292 17.5579 15.2561C18.1193 14.2737 18.4 13.1883 18.4 12C18.4 10.8023 18.1193 9.71696 17.5579 8.74386C17.0058 7.7614 16.2386 6.99415 15.2561 6.44211C14.283 5.8807 13.1977 5.6 12 5.6C10.8117 5.6 9.72632 5.8807 8.74386 6.44211C7.77076 6.99415 7.00351 7.7614 6.44211 8.74386C5.8807 9.71696 5.6 10.8023 5.6 12C5.6 13.1883 5.8807 14.2737 6.44211 15.2561C7.00351 16.2292 7.77076 16.9965 8.74386 17.5579C9.72632 18.1193 10.8117 18.4 12 18.4ZM12 20C10.5591 20 9.22105 19.6444 7.98596 18.9333C6.76023 18.2129 5.78713 17.2398 5.06667 16.014C4.35556 14.7789 4 13.4409 4 12C4 10.5497 4.35556 9.2117 5.06667 7.98597C5.78713 6.76023 6.76023 5.79181 7.98596 5.0807C9.22105 4.36023 10.5591 4 12 4C13.4503 4 14.7883 4.36023 16.014 5.0807C17.2398 5.79181 18.2082 6.76491 18.9193 8C19.6398 9.22573 20 10.5591 20 12C20 13.4409 19.6398 14.7789 18.9193 16.014C18.2082 17.2398 17.2351 18.2129 16 18.9333C14.7743 19.6444 13.4409 20 12 20ZM11.2 8C11.2 7.77544 11.2795 7.5883 11.4386 7.4386C11.5977 7.27953 11.7848 7.2 12 7.2C12.2246 7.2 12.4117 7.27953 12.5614 7.4386C12.7205 7.5883 12.8 7.77544 12.8 8V11.9158C12.8 11.9345 12.7906 11.9345 12.7719 11.9158C12.7626 11.8877 12.7439 11.8503 12.7158 11.8035C12.6129 11.5509 12.5801 11.448 12.6175 11.4947L15.4947 14.3719C15.6538 14.5123 15.7333 14.6994 15.7333 14.9333C15.7333 15.1485 15.6538 15.3357 15.4947 15.4947C15.345 15.6538 15.1579 15.7333 14.9333 15.7333C14.7088 15.7333 14.5216 15.6538 14.3719 15.4947L11.4947 12.6175C11.2982 12.4211 11.2 12.1871 11.2 11.9158V8Z" fill="currentColor"/>
</svg>
