<svg width="24" height="24" viewBox="0 0 24 24" fill="none" xmlns="http://www.w3.org/2000/svg">
<path d="M7.11111 11.1111C6.80962 11.1111 6.58609 11.1839 6.44054 11.3294C6.295 11.4646 6.22222 11.6881 6.22222 12C6.22222 12.3015 6.295 12.525 6.44054 12.6706C6.58609 12.8161 6.80962 12.8889 7.11111 12.8889C7.423 12.8889 7.64652 12.8161 7.78167 12.6706C7.92722 12.525 8 12.3015 8 12C8 11.6881 7.92722 11.4646 7.78167 11.3294C7.64652 11.1839 7.423 11.1111 7.11111 11.1111ZM7.11111 9.33333C7.59974 9.33333 8.04678 9.45289 8.45224 9.69201C8.8577 9.93112 9.17999 10.2586 9.4191 10.6745C9.65822 11.0799 9.77778 11.5218 9.77778 12C9.77778 12.4782 9.65822 12.9253 9.4191 13.3411C9.17999 13.7466 8.8525 14.0689 8.43665 14.308C8.03119 14.5471 7.58934 14.6667 7.11111 14.6667C6.63288 14.6667 6.18583 14.5471 5.76998 14.308C5.36452 14.0689 5.04223 13.7466 4.80312 13.3411C4.564 12.9253 4.44444 12.4782 4.44444 12C4.44444 11.5114 4.564 11.0643 4.80312 10.6589C5.04223 10.2534 5.36452 9.93112 5.76998 9.69201C6.18583 9.45289 6.63288 9.33333 7.11111 9.33333ZM16.8889 5.77778C16.5874 5.77778 16.3639 5.85055 16.2183 5.9961C16.0728 6.13125 16 6.35478 16 6.66667C16 6.96816 16.0728 7.19168 16.2183 7.33723C16.3639 7.48278 16.5874 7.55556 16.8889 7.55556C17.2008 7.55556 17.4243 7.48278 17.5595 7.33723C17.705 7.19168 17.7778 6.96816 17.7778 6.66667C17.7778 6.35478 17.705 6.13125 17.5595 5.9961C17.4243 5.85055 17.2008 5.77778 16.8889 5.77778ZM16.8889 4C17.3775 4 17.8246 4.11956 18.23 4.35867C18.6355 4.59779 18.9578 4.92528 19.1969 5.34113C19.436 5.74659 19.5556 6.18843 19.5556 6.66667C19.5556 7.1449 19.436 7.59194 19.1969 8.0078C18.9578 8.41326 18.6303 8.73554 18.2144 8.97466C17.809 9.21378 17.3671 9.33333 16.8889 9.33333C16.4107 9.33333 15.9636 9.21378 15.5478 8.97466C15.1423 8.73554 14.82 8.41326 14.5809 8.0078C14.3418 7.59194 14.2222 7.1449 14.2222 6.66667C14.2222 6.17804 14.3418 5.73099 14.5809 5.32554C14.82 4.92008 15.1423 4.59779 15.5478 4.35867C15.9636 4.11956 16.4107 4 16.8889 4ZM16.8889 16.4444C16.5874 16.4444 16.3639 16.5172 16.2183 16.6628C16.0728 16.7979 16 17.0214 16 17.3333C16 17.6348 16.0728 17.8583 16.2183 18.0039C16.3639 18.1494 16.5874 18.2222 16.8889 18.2222C17.2008 18.2222 17.4243 18.1494 17.5595 18.0039C17.705 17.8583 17.7778 17.6348 17.7778 17.3333C17.7778 17.0214 17.705 16.7979 17.5595 16.6628C17.4243 16.5172 17.2008 16.4444 16.8889 16.4444ZM16.8889 14.6667C17.3775 14.6667 17.8246 14.7862 18.23 15.0253C18.6355 15.2645 18.9578 15.5919 19.1969 16.0078C19.436 16.4133 19.5556 16.8551 19.5556 17.3333C19.5556 17.8116 19.436 18.2586 19.1969 18.6745C18.9578 19.0799 18.6303 19.4022 18.2144 19.6413C17.809 19.8804 17.3671 20 16.8889 20C16.4107 20 15.9636 19.8804 15.5478 19.6413C15.1423 19.4022 14.82 19.0799 14.5809 18.6745C14.3418 18.2586 14.2222 17.8116 14.2222 17.3333C14.2222 16.8447 14.3418 16.3977 14.5809 15.9922C14.82 15.5867 15.1423 15.2645 15.5478 15.0253C15.9636 14.7862 16.4107 14.6667 16.8889 14.6667ZM14.9084 17.2554L8.24951 13.6374L9.09162 12.078L15.7505 15.6959L14.9084 17.2554ZM8.24951 10.3626L14.9084 6.74464L15.7505 8.30409L9.09162 11.922L8.24951 10.3626Z" fill="black"/>
</svg>
