<svg width="24" height="24" viewBox="0 0 24 24" fill="none" xmlns="http://www.w3.org/2000/svg">
<path d="M10.3956 8.80166C10.3956 8.577 10.4752 8.38978 10.6343 8.24001C10.7935 8.08087 10.9807 8.0013 11.196 8.0013C11.4207 8.0013 11.6079 8.08087 11.7577 8.24001C11.9168 8.38978 11.9964 8.577 11.9964 8.80166V11.9189C11.9964 11.9376 11.987 11.9376 11.9683 11.9189C11.9589 11.8908 11.9402 11.8533 11.9121 11.8065C11.8091 11.5538 11.7764 11.4508 11.8138 11.4976L14.1587 13.8426C14.3179 13.983 14.3975 14.1702 14.3975 14.4042C14.3975 14.6195 14.3179 14.8067 14.1587 14.9659C14.009 15.125 13.8218 15.2046 13.5971 15.2046C13.3724 15.2046 13.1852 15.125 13.0354 14.9659L10.6905 12.6209C10.4939 12.4244 10.3956 12.1903 10.3956 11.9189V8.80166ZM18.3993 14.4042C18.3993 14.6195 18.3197 14.8067 18.1606 14.9659C18.0108 15.125 17.8236 15.2046 17.5989 15.2046C17.3836 15.2046 17.1964 15.125 17.0373 14.9659C16.8781 14.8067 16.7985 14.6195 16.7985 14.4042V12.0031C16.7985 11.3572 16.7003 10.7534 16.5037 10.1918C16.3165 9.63011 16.0309 9.09185 15.6471 8.577C15.254 8.08087 14.8093 7.66899 14.3132 7.34135C13.8171 7.00436 13.2601 6.75629 12.6423 6.59715C12.0244 6.42866 11.416 6.36781 10.8169 6.41461C10.2271 6.45206 9.63739 6.58779 9.04765 6.82182C8.46727 7.0652 7.95242 7.38348 7.50309 7.77664C7.05376 8.1698 6.66528 8.64253 6.33765 9.19483C6.01937 9.75648 5.80407 10.3275 5.69174 10.9079C5.57941 11.4883 5.56536 12.1014 5.64961 12.7473C5.73386 13.3745 5.90704 13.9549 6.16915 14.4885C6.43126 15.022 6.78697 15.5135 7.2363 15.9628C7.68563 16.4121 8.17708 16.7679 8.71066 17.03C9.24423 17.2921 9.82461 17.4653 10.4518 17.5495C11.0977 17.6338 11.7109 17.6197 12.2912 17.5074C12.8716 17.395 13.4426 17.1797 14.0043 16.8615C14.1353 16.7866 14.2664 16.7491 14.3975 16.7491C14.6221 16.7491 14.8093 16.8287 14.9591 16.9878C15.1182 17.1376 15.1978 17.3248 15.1978 17.5495C15.1978 17.6899 15.1604 17.8257 15.0855 17.9567C15.02 18.0784 14.9263 18.172 14.8047 18.2375C14.1213 18.6307 13.3865 18.9068 12.6001 19.066C11.8232 19.2158 11.0415 19.2392 10.2552 19.1362C9.46889 19.0332 8.72002 18.8039 8.00858 18.4482C7.30651 18.0924 6.67464 17.6384 6.11298 17.0861C5.56068 16.5245 5.10668 15.8926 4.75096 15.1905C4.39524 14.4791 4.1659 13.7302 4.06293 12.9439C3.95996 12.1576 3.98336 11.3759 4.13313 10.599C4.29227 9.81265 4.56842 9.07781 4.96158 8.39446C5.35474 7.71111 5.85087 7.10733 6.44998 6.58311C7.04908 6.0589 7.70903 5.64701 8.42983 5.34746C9.15998 5.03855 9.9229 4.86069 10.7186 4.81389C11.5143 4.76708 12.2959 4.84665 13.0635 5.05259C13.8311 5.25853 14.5425 5.58149 15.1978 6.02145C15.8624 6.46142 16.4335 6.99031 16.9109 7.60814C17.3976 8.24469 17.7674 8.94208 18.0202 9.70032C18.2729 10.4492 18.3993 11.2168 18.3993 12.0031V14.4042ZM18.638 12.2418C18.7878 12.0827 18.975 12.0031 19.1996 12.0031C19.4243 12.0031 19.6115 12.0827 19.7613 12.2418C19.9204 12.3916 20 12.5788 20 12.8035C20 13.0281 19.9204 13.2154 19.7613 13.3651L18.2448 14.8816C18.0763 15.0501 17.861 15.1344 17.5989 15.1344C17.3462 15.1344 17.1309 15.0501 16.953 14.8816L15.4365 13.3651C15.2774 13.2154 15.1978 13.0281 15.1978 12.8035C15.1978 12.5788 15.2774 12.3916 15.4365 12.2418C15.5957 12.0827 15.7829 12.0031 15.9982 12.0031C16.2322 12.0031 16.4194 12.0827 16.5598 12.2418L18.0763 13.7583C18.1231 13.8051 18.0529 13.8379 17.8657 13.8566C17.6878 13.8753 17.5053 13.8753 17.3181 13.8566C17.1402 13.8379 17.0747 13.8051 17.1215 13.7583L18.638 12.2418Z" fill="black"/>
</svg>
