<svg width="current" height="current" viewBox="0 0 24 24" fill="none" xmlns="http://www.w3.org/2000/svg">
<path d="M18.2222 15.5556C18.2222 15.306 18.3106 15.0981 18.4873 14.9318C18.6641 14.755 18.872 14.6667 19.1111 14.6667C19.3606 14.6667 19.5686 14.755 19.7349 14.9318C19.9116 15.0981 20 15.306 20 15.5556V16.4444C20 17.0786 19.8389 17.6712 19.5166 18.2222C19.2047 18.7628 18.7732 19.1943 18.2222 19.5166C17.6816 19.8389 17.089 20 16.4444 20H7.55556C6.92138 20 6.32878 19.8389 5.77778 19.5166C5.23717 19.1943 4.80572 18.7628 4.48343 18.2222C4.16114 17.6712 4 17.0786 4 16.4444V15.5556C4 15.306 4.08837 15.0981 4.26511 14.9318C4.44185 14.755 4.64977 14.6667 4.88889 14.6667C5.1384 14.6667 5.34633 14.755 5.51267 14.9318C5.68941 15.0981 5.77778 15.306 5.77778 15.5556V16.4444C5.77778 16.7979 5.85055 17.1098 5.9961 17.3801C6.14165 17.6504 6.34958 17.8583 6.61988 18.0039C6.89019 18.1494 7.20208 18.2222 7.55556 18.2222H16.4444C16.8083 18.2222 17.1254 18.1494 17.3957 18.0039C17.666 17.8583 17.8687 17.6504 18.0039 17.3801C18.1494 17.1098 18.2222 16.7979 18.2222 16.4444V15.5556ZM16.1793 7.82066C16.3561 7.97661 16.4444 8.18454 16.4444 8.44444C16.4444 8.68356 16.3561 8.89149 16.1793 9.06823C16.013 9.24496 15.8051 9.33333 15.5556 9.33333C15.306 9.33333 15.0981 9.24496 14.9318 9.06823L11.4698 5.60624C11.4178 5.55426 11.4906 5.51787 11.6881 5.49708C11.896 5.47628 12.0988 5.47628 12.2963 5.49708C12.5042 5.51787 12.5822 5.55426 12.5302 5.60624L9.06823 9.06823C8.91228 9.24496 8.70435 9.33333 8.44444 9.33333C8.20533 9.33333 7.9974 9.24496 7.82066 9.06823C7.64392 8.89149 7.55556 8.68356 7.55556 8.44444C7.55556 8.18454 7.64392 7.97661 7.82066 7.82066L11.2827 4.35867C11.4802 4.16114 11.7193 4.06238 12 4.06238C12.2911 4.06238 12.5302 4.16114 12.7173 4.35867L16.1793 7.82066ZM12.8889 15.5556C12.8889 15.7947 12.8005 16.0026 12.6238 16.1793C12.4574 16.3561 12.2495 16.4444 12 16.4444C11.7609 16.4444 11.553 16.3561 11.3762 16.1793C11.1995 16.0026 11.1111 15.7947 11.1111 15.5556V4.88889C11.1111 4.63938 11.1995 4.43145 11.3762 4.26511C11.553 4.08837 11.7609 4 12 4C12.2495 4 12.4574 4.08837 12.6238 4.26511C12.8005 4.43145 12.8889 4.63938 12.8889 4.88889V15.5556Z" fill="currentColor"/>
</svg>
