<svg width="current" height="current" viewBox="0 0 24 24" fill="none" xmlns="http://www.w3.org/2000/svg">
<path d="M5.3614 7.36141C5.22105 7.52047 5.03392 7.6 4.8 7.6C4.5848 7.6 4.39766 7.52047 4.2386 7.36141C4.07953 7.20234 4 7.01521 4 6.8C4 6.56608 4.07953 6.37895 4.2386 6.2386L5.8386 4.6386C5.97895 4.47953 6.16608 4.4 6.4 4.4C6.62456 4.4 6.8117 4.47953 6.9614 4.6386C7.12047 4.78831 7.2 4.97544 7.2 5.2C7.2 5.42456 7.12047 5.6117 6.9614 5.76141L5.3614 7.36141ZM19.7614 6.2386C19.9205 6.37895 20 6.56608 20 6.8C20 7.01521 19.9205 7.20234 19.7614 7.36141C19.6117 7.52047 19.4246 7.6 19.2 7.6C18.9754 7.6 18.7883 7.52047 18.6386 7.36141L17.0386 5.76141C16.8795 5.62105 16.8 5.43392 16.8 5.2C16.8 4.97544 16.8795 4.78831 17.0386 4.6386C17.1977 4.47953 17.3848 4.4 17.6 4.4C17.8339 4.4 18.0211 4.47953 18.1614 4.6386L19.7614 6.2386ZM12 18C13.0667 18 14.0257 17.7567 14.8772 17.2702C15.7287 16.7836 16.393 16.1146 16.8702 15.2632C17.3567 14.4117 17.6 13.4573 17.6 12.4C17.6 11.3333 17.3567 10.3743 16.8702 9.52281C16.393 8.67135 15.7287 8.00702 14.8772 7.52983C14.0257 7.04328 13.0667 6.8 12 6.8C10.9427 6.8 9.9883 7.04328 9.13684 7.52983C8.28538 8.00702 7.61637 8.67135 7.12982 9.52281C6.64327 10.3743 6.4 11.3333 6.4 12.4C6.4 13.4573 6.64327 14.4117 7.12982 15.2632C7.61637 16.1146 8.28538 16.7836 9.13684 17.2702C9.9883 17.7567 10.9427 18 12 18ZM12 19.6C10.6901 19.6 9.48304 19.2772 8.37895 18.6316C7.28421 17.986 6.41404 17.1158 5.76842 16.0211C5.12281 14.917 4.8 13.7099 4.8 12.4C4.8 11.0901 5.12281 9.88772 5.76842 8.79298C6.41404 7.68889 7.28421 6.81404 8.37895 6.16842C9.48304 5.52281 10.6901 5.2 12 5.2C13.3099 5.2 14.5123 5.52281 15.607 6.16842C16.7111 6.81404 17.586 7.68889 18.2316 8.79298C18.8772 9.88772 19.2 11.0901 19.2 12.4C19.2 13.7099 18.8772 14.917 18.2316 16.0211C17.586 17.1158 16.7111 17.986 15.607 18.6316C14.5123 19.2772 13.3099 19.6 12 19.6ZM14.4 11.6C14.6246 11.6 14.8117 11.6795 14.9614 11.8386C15.1205 11.9883 15.2 12.1754 15.2 12.4C15.2 12.6152 15.1205 12.8023 14.9614 12.9614C14.8117 13.1205 14.6246 13.2 14.4 13.2H11.2V10C11.2 9.77544 11.2795 9.58831 11.4386 9.4386C11.5977 9.27953 11.7848 9.2 12 9.2C12.2246 9.2 12.4117 9.27953 12.5614 9.4386C12.7205 9.58831 12.8 9.77544 12.8 10V11.6H14.4ZM9.6 13.2C9.3848 13.2 9.19766 13.1205 9.0386 12.9614C8.87953 12.8023 8.8 12.6152 8.8 12.4C8.8 12.1754 8.87953 11.9883 9.0386 11.8386C9.19766 11.6795 9.3848 11.6 9.6 11.6H12.8V14.8C12.8 15.0152 12.7205 15.2023 12.5614 15.3614C12.4117 15.5205 12.2246 15.6 12 15.6C11.7848 15.6 11.5977 15.5205 11.4386 15.3614C11.2795 15.2023 11.2 15.0152 11.2 14.8V13.2H9.6Z" fill="currentColor"/>
</svg>
