<svg width="24" height="24" viewBox="0 0 24 24" fill="none" xmlns="http://www.w3.org/2000/svg">
<path d="M7.42456 8.60351C7.62105 8.50994 7.74737 8.40234 7.80351 8.2807C7.86901 8.15906 7.88772 7.99064 7.85965 7.77544L7.66316 6.28772C7.62573 6.04445 7.5462 5.87135 7.42456 5.76842C7.30292 5.65614 7.11579 5.6 6.86316 5.6H5.0807C5.02456 5.6 5.0386 5.54854 5.12281 5.44561C5.20702 5.33333 5.30526 5.23041 5.41754 5.13684C5.53918 5.04328 5.6 5.01988 5.6 5.06667C5.64678 6.80702 5.98363 8.44445 6.61053 9.97895C7.30292 11.6819 8.28538 13.1696 9.55789 14.4421C10.8398 15.7146 12.3322 16.6971 14.0351 17.3895C15.5602 18.0164 17.193 18.3532 18.9333 18.4C18.9801 18.4 18.9567 18.4608 18.8632 18.5825C18.7696 18.6947 18.6667 18.793 18.5544 18.8772C18.4515 18.9614 18.4 18.9754 18.4 18.9193V17.1368C18.4 16.8749 18.3439 16.6877 18.2316 16.5754C18.1287 16.4538 17.9556 16.3743 17.7123 16.3368L16.2246 16.1404C16.0187 16.1123 15.855 16.131 15.7333 16.1965C15.6211 16.2526 15.5135 16.3789 15.4105 16.5754L14.1333 19.1298C12.7018 18.6246 11.3778 17.9228 10.1614 17.0246C8.94503 16.117 7.88304 15.0596 6.97544 13.8526C6.07719 12.6363 5.37544 11.3123 4.87018 9.8807L7.42456 8.60351ZM6.90526 10.6386C7.57895 12.0702 8.46784 13.3333 9.57193 14.4281C10.676 15.5228 11.9439 16.4117 13.3754 17.0947L13.9789 15.8737C14.2129 15.4058 14.5544 15.055 15.0035 14.8211C15.4526 14.5778 15.9345 14.4889 16.4491 14.5544L17.9088 14.7509C18.3018 14.7977 18.6573 14.9333 18.9754 15.1579C19.2936 15.3825 19.5415 15.6678 19.7193 16.014C19.9064 16.3602 20 16.7345 20 17.1368V18.9193C20 19.2187 19.8924 19.476 19.6772 19.6912C19.4713 19.8971 19.214 20 18.9053 20C16.9965 19.9626 15.1766 19.5836 13.4456 18.8632C11.5649 18.0959 9.89942 16.9965 8.44912 15.5649C7.00819 14.124 5.90409 12.4585 5.13684 10.5684C4.41637 8.83743 4.03743 7.01287 4 5.09474C4 4.78596 4.10292 4.52865 4.30877 4.32281C4.52398 4.1076 4.78129 4 5.0807 4H6.86316C7.46199 4 7.98597 4.19649 8.43509 4.58947C8.88421 4.98246 9.15556 5.47836 9.24912 6.07719L9.44561 7.55088C9.51111 8.0655 9.42222 8.55205 9.17895 9.01053C8.94503 9.45965 8.59415 9.80117 8.12632 10.0351L6.90526 10.6386Z" fill="black"/>
</svg>
