<svg width="current" height="current" viewBox="0 0 24 24" fill="none" xmlns="http://www.w3.org/2000/svg">
<path d="M5.6 13.6C5.6 14.1053 5.74035 14.4982 6.02105 14.7789C6.30175 15.0596 6.69474 15.2 7.2 15.2H13.6C14.1053 15.2 14.4982 15.0596 14.7789 14.7789C15.0596 14.4982 15.2 14.1053 15.2 13.6V7.2C15.2 6.69474 15.0596 6.30175 14.7789 6.02105C14.4982 5.74035 14.1053 5.6 13.6 5.6H7.2C6.69474 5.6 6.30175 5.74035 6.02105 6.02105C5.74035 6.30175 5.6 6.69474 5.6 7.2V13.6ZM4 7.2C4 6.61053 4.14035 6.07252 4.42105 5.58597C4.71111 5.09006 5.09942 4.70175 5.58596 4.42105C6.08187 4.14035 6.61988 4 7.2 4H13.6C14.1895 4 14.7275 4.14035 15.214 4.42105C15.7099 4.70175 16.0982 5.09006 16.3789 5.58597C16.6596 6.07252 16.8 6.61053 16.8 7.2V13.6C16.8 14.1801 16.6596 14.7181 16.3789 15.214C16.0982 15.7006 15.7099 16.0889 15.214 16.3789C14.7275 16.6596 14.1895 16.8 13.6 16.8H7.2C6.61988 16.8 6.08187 16.6596 5.58596 16.3789C5.09942 16.0889 4.71111 15.7006 4.42105 15.214C4.14035 14.7181 4 14.1801 4 13.6V7.2ZM16 9.64211C15.7848 9.64211 15.5977 9.56257 15.4386 9.40351C15.2795 9.24444 15.2 9.05731 15.2 8.84211C15.2 8.61754 15.2795 8.43041 15.4386 8.2807C15.5977 8.12164 15.7848 8.04211 16 8.04211H16.8C17.3895 8.04211 17.9275 8.18246 18.414 8.46316C18.9099 8.74386 19.2982 9.13216 19.5789 9.62807C19.8596 10.1146 20 10.6526 20 11.2421V16.8C20 17.3801 19.8596 17.9181 19.5789 18.414C19.2982 18.9006 18.9099 19.2889 18.414 19.5789C17.9275 19.8596 17.3895 20 16.8 20H11.2421C10.662 20 10.124 19.8596 9.62807 19.5789C9.14152 19.2889 8.75322 18.9006 8.46316 18.414C8.18246 17.9181 8.04211 17.3801 8.04211 16.8V16C8.04211 15.7754 8.12164 15.5883 8.2807 15.4386C8.43977 15.2795 8.6269 15.2 8.84211 15.2C9.06667 15.2 9.2538 15.2795 9.40351 15.4386C9.56257 15.5883 9.64211 15.7754 9.64211 16V16.8C9.64211 17.3053 9.78246 17.6982 10.0632 17.9789C10.3439 18.2596 10.7368 18.4 11.2421 18.4H16.8C17.3053 18.4 17.6982 18.2596 17.9789 17.9789C18.2596 17.6982 18.4 17.3053 18.4 16.8V11.2421C18.4 10.7368 18.2596 10.3439 17.9789 10.0632C17.6982 9.78246 17.3053 9.64211 16.8 9.64211H16Z" fill="currentColor"/>
</svg>
