<svg width="current" height="current" viewBox="0 0 24 24" fill="none" xmlns="http://www.w3.org/2000/svg">
<path d="M18.2222 15.5556C18.2222 15.306 18.3106 15.0981 18.4873 14.9318C18.6641 14.755 18.872 14.6667 19.1111 14.6667C19.3606 14.6667 19.5686 14.755 19.7349 14.9318C19.9116 15.0981 20 15.306 20 15.5556V16.4444C20 17.0786 19.8389 17.6712 19.5166 18.2222C19.2047 18.7628 18.7732 19.1943 18.2222 19.5166C17.6816 19.8389 17.089 20 16.4444 20H7.55556C6.92138 20 6.32878 19.8389 5.77778 19.5166C5.23717 19.1943 4.80572 18.7628 4.48343 18.2222C4.16114 17.6712 4 17.0786 4 16.4444V15.5556C4 15.306 4.08837 15.0981 4.26511 14.9318C4.44185 14.755 4.64977 14.6667 4.88889 14.6667C5.1384 14.6667 5.34633 14.755 5.51267 14.9318C5.68941 15.0981 5.77778 15.306 5.77778 15.5556V16.4444C5.77778 16.7979 5.85055 17.1098 5.9961 17.3801C6.14165 17.6504 6.34958 17.8583 6.61988 18.0039C6.89019 18.1494 7.20208 18.2222 7.55556 18.2222H16.4444C16.8083 18.2222 17.1254 18.1494 17.3957 18.0039C17.666 17.8583 17.8687 17.6504 18.0039 17.3801C18.1494 17.1098 18.2222 16.7979 18.2222 16.4444V15.5556ZM7.82066 12.6238C7.64392 12.4574 7.55556 12.2495 7.55556 12C7.55556 11.7505 7.64392 11.5426 7.82066 11.3762C7.9974 11.1995 8.20533 11.1111 8.44444 11.1111C8.70435 11.1111 8.91228 11.1995 9.06823 11.3762L12.5302 14.8382C12.5822 14.8902 12.5042 14.9266 12.2963 14.9474C12.0988 14.9682 11.896 14.9682 11.6881 14.9474C11.4906 14.9266 11.4178 14.8902 11.4698 14.8382L14.9318 11.3762C15.0981 11.1995 15.306 11.1111 15.5556 11.1111C15.8051 11.1111 16.013 11.1995 16.1793 11.3762C16.3561 11.5426 16.4444 11.7505 16.4444 12C16.4444 12.2495 16.3561 12.4574 16.1793 12.6238L12.7173 16.0858C12.5302 16.2729 12.2911 16.3665 12 16.3665C11.7193 16.3665 11.4802 16.2729 11.2827 16.0858L7.82066 12.6238ZM12.8889 15.5556C12.8889 15.7947 12.8005 16.0026 12.6238 16.1793C12.4574 16.3561 12.2495 16.4444 12 16.4444C11.7609 16.4444 11.553 16.3561 11.3762 16.1793C11.1995 16.0026 11.1111 15.7947 11.1111 15.5556V4.88889C11.1111 4.63938 11.1995 4.43145 11.3762 4.26511C11.553 4.08837 11.7609 4 12 4C12.2495 4 12.4574 4.08837 12.6238 4.26511C12.8005 4.43145 12.8889 4.63938 12.8889 4.88889V15.5556Z" fill="currentColor"/>
</svg>
