<svg width="current" height="current" viewBox="0 0 24 24" fill="none" xmlns="http://www.w3.org/2000/svg">
<path d="M10.6235 4.34072C11.0233 4.11357 11.4821 4 12 4C12.527 4 12.9858 4.11357 13.3765 4.34072L18.3101 7.08007C18.728 7.30721 19.0733 7.65701 19.3458 8.12947C19.6275 8.60193 19.7683 9.07893 19.7683 9.56048V16.8927C19.7683 17.456 19.632 17.9784 19.3595 18.46C19.0869 18.9324 18.7098 19.3095 18.2283 19.5911C17.7558 19.8637 17.2334 20 16.661 20H7.33902C6.7757 20 6.25327 19.8637 5.77172 19.5911C5.29926 19.3095 4.92221 18.9324 4.64055 18.46C4.36798 17.9784 4.23169 17.456 4.23169 16.8927V9.56048C4.23169 9.07893 4.36798 8.60193 4.64055 8.12947C4.92221 7.65701 5.27201 7.30721 5.68995 7.08007L10.6235 4.34072ZM6.45315 8.44293C6.24418 8.55196 6.08064 8.70642 5.96252 8.9063C5.84441 9.0971 5.78535 9.31516 5.78535 9.56048V16.8927C5.78535 17.3833 5.92164 17.7649 6.19421 18.0375C6.46678 18.3101 6.84838 18.4463 7.33902 18.4463H16.661C17.1516 18.4463 17.5332 18.3101 17.8058 18.0375C18.0784 17.7649 18.2147 17.3833 18.2147 16.8927V9.56048C18.2147 9.31516 18.1556 9.0971 18.0375 8.9063C17.9194 8.70642 17.7558 8.55196 17.5469 8.44293L12.6133 5.70358C12.4225 5.59455 12.2181 5.54003 12 5.54003C11.7819 5.54003 11.5775 5.59455 11.3867 5.70358L6.45315 8.44293ZM19.7683 16.8927C19.7683 17.456 19.632 17.9784 19.3595 18.46C19.0869 18.9324 18.7098 19.3095 18.2283 19.5911C17.7558 19.8637 17.2334 20 16.661 20H7.33902C6.7757 20 6.25327 19.8637 5.77172 19.5911C5.29926 19.3095 4.92221 18.9324 4.64055 18.46C4.36798 17.9784 4.23169 17.456 4.23169 16.8927V10.1465C4.23169 9.91028 4.29983 9.71039 4.43612 9.54685C4.58149 9.37422 4.76321 9.26973 4.98126 9.23339C5.19932 9.18796 5.40829 9.22885 5.60818 9.35605L11.3867 12.5588C11.5775 12.6587 11.7819 12.7087 12 12.7087C12.2181 12.7087 12.4225 12.6587 12.6133 12.5588L18.3918 9.35605C18.5917 9.22885 18.8007 9.18796 19.0187 9.23339C19.2368 9.26973 19.414 9.37422 19.5503 9.54685C19.6956 9.71039 19.7683 9.91028 19.7683 10.1465V16.8927ZM18.2147 10.1465C18.2147 10.1919 18.2692 10.2737 18.3782 10.3918C18.4872 10.5099 18.6599 10.6644 18.8961 10.8552L13.3765 13.9216C12.9858 14.1397 12.527 14.2487 12 14.2487C11.4821 14.2487 11.0233 14.1397 10.6235 13.9216L5.10392 10.8552C5.34015 10.6644 5.51278 10.5099 5.62181 10.3918C5.73084 10.2737 5.78535 10.1919 5.78535 10.1465V16.8927C5.78535 17.3833 5.92164 17.7649 6.19421 18.0375C6.46678 18.3101 6.84838 18.4463 7.33902 18.4463H16.661C17.1516 18.4463 17.5332 18.3101 17.8058 18.0375C18.0784 17.7649 18.2147 17.3833 18.2147 16.8927V10.1465Z" fill="currentColor"/>
</svg>
