<svg width="current" height="current" viewBox="0 0 24 24" fill="none" xmlns="http://www.w3.org/2000/svg">
<path d="M5.6 15.2C5.6 15.7053 5.74035 16.0982 6.02105 16.3789C6.30175 16.6597 6.69474 16.8 7.2 16.8H16.8C17.3053 16.8 17.6982 16.6597 17.9789 16.3789C18.2596 16.0982 18.4 15.7053 18.4 15.2V8.8C18.4 8.29474 18.2596 7.90176 17.9789 7.62105C17.6982 7.34035 17.3053 7.2 16.8 7.2H7.2C6.69474 7.2 6.30175 7.34035 6.02105 7.62105C5.74035 7.90176 5.6 8.29474 5.6 8.8V15.2ZM4 8.8C4 8.21053 4.14035 7.67252 4.42105 7.18597C4.71111 6.69006 5.09942 6.30176 5.58596 6.02105C6.08187 5.74035 6.61988 5.6 7.2 5.6H16.8C17.3895 5.6 17.9275 5.74035 18.414 6.02105C18.9099 6.30176 19.2982 6.69006 19.5789 7.18597C19.8596 7.67252 20 8.21053 20 8.8V15.2C20 15.7801 19.8596 16.3181 19.5789 16.814C19.2982 17.3006 18.9099 17.6889 18.414 17.9789C17.9275 18.2597 17.3895 18.4 16.8 18.4H7.2C6.61988 18.4 6.08187 18.2597 5.58596 17.9789C5.09942 17.6889 4.71111 17.3006 4.42105 16.814C4.14035 16.3181 4 15.7801 4 15.2V8.8ZM20 15.2C20 15.7801 19.8596 16.3181 19.5789 16.814C19.2982 17.3006 18.9099 17.6889 18.414 17.9789C17.9275 18.2597 17.3895 18.4 16.8 18.4H7.2C6.61988 18.4 6.08187 18.2597 5.58596 17.9789C5.09942 17.6889 4.71111 17.3006 4.42105 16.814C4.14035 16.3181 4 15.7801 4 15.2V9.05263C4 8.80936 4.07018 8.60351 4.21053 8.43509C4.36023 8.25731 4.54737 8.14971 4.77193 8.11228C4.99649 8.0655 5.2117 8.1076 5.41754 8.2386L11.3684 11.5368C11.5649 11.6398 11.7754 11.6912 12 11.6912C12.2246 11.6912 12.4351 11.6398 12.6316 11.5368L18.5825 8.2386C18.7883 8.1076 19.0035 8.0655 19.2281 8.11228C19.4526 8.14971 19.6351 8.25731 19.7754 8.43509C19.9251 8.60351 20 8.80936 20 9.05263V15.2ZM18.4 9.05263C18.4 9.09942 18.4561 9.18363 18.5684 9.30526C18.6807 9.4269 18.8585 9.58597 19.1018 9.78246L13.4175 12.9404C13.0152 13.1649 12.5427 13.2772 12 13.2772C11.4667 13.2772 10.9942 13.1649 10.5825 12.9404L4.89825 9.78246C5.14152 9.58597 5.3193 9.4269 5.43158 9.30526C5.54386 9.18363 5.6 9.09942 5.6 9.05263V15.2C5.6 15.7053 5.74035 16.0982 6.02105 16.3789C6.30175 16.6597 6.69474 16.8 7.2 16.8H16.8C17.3053 16.8 17.6982 16.6597 17.9789 16.3789C18.2596 16.0982 18.4 15.7053 18.4 15.2V9.05263Z" fill="currentColor"/>
</svg>
