<svg width="24" height="24" viewBox="0 0 24 24" fill="none" xmlns="http://www.w3.org/2000/svg">
<path d="M8.03274 7.04762C8.03274 7.25258 7.957 7.4308 7.80551 7.58229C7.66293 7.73378 7.48471 7.80952 7.27084 7.80952C7.06588 7.80952 6.88766 7.73378 6.73617 7.58229C6.58468 7.4308 6.50894 7.25258 6.50894 7.04762C6.50894 6.73573 6.44656 6.46394 6.3218 6.23225C6.20596 6.00056 6.03219 5.82679 5.8005 5.71094C5.56881 5.58619 5.29702 5.52381 4.98513 5.52381C4.78017 5.52381 4.60195 5.44806 4.45046 5.29657C4.29897 5.14508 4.22322 4.96686 4.22322 4.7619C4.22322 4.54804 4.29897 4.36981 4.45046 4.22723C4.60195 4.07574 4.78017 4 4.98513 4C5.53762 4 6.04555 4.13812 6.50894 4.41437C6.98123 4.6817 7.35104 5.05152 7.61838 5.52381C7.89462 5.98719 8.03274 6.49513 8.03274 7.04762ZM8.03274 13.1429C8.03274 13.4458 8.09512 13.7132 8.21988 13.9449C8.34464 14.1766 8.52286 14.3548 8.75455 14.4795C8.98624 14.6043 9.25357 14.6667 9.55655 14.6667H16.0261C16.4449 14.6667 16.7835 14.5597 17.0419 14.3459C17.3004 14.132 17.4652 13.8246 17.5365 13.4236L18.2182 9.61403C18.2806 9.25759 18.2583 8.9457 18.1514 8.67836C18.0444 8.40212 17.8662 8.18825 17.6167 8.03676C17.3761 7.88527 17.0776 7.80952 16.7211 7.80952H8.03274V13.1429ZM16.7211 6.28571C17.3449 6.28571 17.9063 6.45503 18.4053 6.79365C18.9044 7.12336 19.2742 7.56892 19.5148 8.13033C19.7643 8.68282 19.8356 9.2665 19.7287 9.88137L19.0469 13.6909C18.9489 14.1632 18.7529 14.5909 18.4588 14.9741C18.1737 15.3573 17.8172 15.6558 17.3895 15.8697C16.9617 16.0835 16.5073 16.1905 16.0261 16.1905H9.55655C9.01297 16.1905 8.50504 16.0524 8.03274 15.7761C7.56936 15.4999 7.19955 15.13 6.9233 14.6667C6.64706 14.1944 6.50894 13.6864 6.50894 13.1429V6.28571H16.7211ZM16.4137 16.9524C16.6899 16.9524 16.9439 17.0237 17.1756 17.1662C17.4073 17.2999 17.59 17.4826 17.7236 17.7143C17.8662 17.946 17.9375 18.1999 17.9375 18.4762C17.9375 18.7435 17.8662 18.9975 17.7236 19.2381C17.59 19.4698 17.4073 19.6569 17.1756 19.7995C16.9439 19.9332 16.6899 20 16.4137 20C16.1464 20 15.8924 19.9332 15.6518 19.7995C15.4201 19.6569 15.233 19.4698 15.0904 19.2381C14.9567 18.9975 14.8899 18.7435 14.8899 18.4762C14.8899 18.1999 14.9567 17.946 15.0904 17.7143C15.233 17.4826 15.4201 17.2999 15.6518 17.1662C15.8924 17.0237 16.1464 16.9524 16.4137 16.9524ZM8.79465 16.9524C9.0709 16.9524 9.32486 17.0237 9.55655 17.1662C9.78824 17.2999 9.97092 17.4826 10.1046 17.7143C10.2472 17.946 10.3185 18.1999 10.3185 18.4762C10.3185 18.7435 10.2472 18.9975 10.1046 19.2381C9.97092 19.4698 9.78824 19.6569 9.55655 19.7995C9.32486 19.9332 9.0709 20 8.79465 20C8.52731 20 8.27335 19.9332 8.03274 19.7995C7.80105 19.6569 7.61392 19.4698 7.47134 19.2381C7.33767 18.9975 7.27084 18.7435 7.27084 18.4762C7.27084 18.1999 7.33767 17.946 7.47134 17.7143C7.61392 17.4826 7.80105 17.2999 8.03274 17.1662C8.27335 17.0237 8.52731 16.9524 8.79465 16.9524Z" fill="black"/>
</svg>
