<svg width="24" height="24" viewBox="0 0 24 24" fill="none" xmlns="http://www.w3.org/2000/svg">
<path d="M12.0041 6.26079C13.8755 6.26079 14.0971 6.269 14.8331 6.30182C15.5171 6.3319 15.8865 6.44677 16.1327 6.54249C16.4583 6.66829 16.6936 6.82145 16.9371 7.06486C17.1833 7.311 17.3338 7.54347 17.4596 7.86892C17.5554 8.11506 17.6703 8.48701 17.7004 9.168C17.7332 9.90643 17.7414 10.128 17.7414 11.9959C17.7414 13.8666 17.7332 14.0881 17.7004 14.8238C17.6703 15.5075 17.5554 15.8767 17.4596 16.1229C17.3338 16.4483 17.1806 16.6835 16.9371 16.9269C16.6908 17.1731 16.4583 17.3235 16.1327 17.4493C15.8865 17.545 15.5144 17.6599 14.8331 17.69C14.0944 17.7228 13.8728 17.731 12.0041 17.731C10.1327 17.731 9.91108 17.7228 9.1751 17.69C8.49111 17.6599 8.12175 17.545 7.87551 17.4493C7.54993 17.3235 7.31464 17.1703 7.07114 16.9269C6.8249 16.6808 6.67442 16.4483 6.54856 16.1229C6.4528 15.8767 6.33789 15.5048 6.3078 14.8238C6.27497 14.0854 6.26676 13.8638 6.26676 11.9959C6.26676 10.1252 6.27497 9.90369 6.3078 9.168C6.33789 8.48427 6.4528 8.11506 6.54856 7.86892C6.67442 7.54347 6.82763 7.30826 7.07114 7.06486C7.31737 6.81871 7.54993 6.66829 7.87551 6.54249C8.12175 6.44677 8.49384 6.3319 9.1751 6.30182C9.91108 6.269 10.1327 6.26079 12.0041 6.26079ZM12.0041 5C10.1026 5 9.86457 5.0082 9.11765 5.04102C8.37346 5.07384 7.86183 5.19418 7.4186 5.36648C6.95622 5.54698 6.56498 5.78492 6.17647 6.17601C5.78523 6.56437 5.5472 6.95546 5.36662 7.41492C5.19425 7.86072 5.07387 8.36941 5.04104 9.1133C5.00821 9.86267 5 10.1006 5 12.0014C5 13.9021 5.00821 14.1401 5.04104 14.8867C5.07387 15.6306 5.19425 16.142 5.36662 16.5851C5.5472 17.0473 5.78523 17.4384 6.17647 17.8267C6.56498 18.2151 6.95622 18.4558 7.41587 18.6335C7.86183 18.8058 8.37072 18.9262 9.11491 18.959C9.86183 18.9918 10.0999 19 12.0014 19C13.9029 19 14.1409 18.9918 14.8878 18.959C15.632 18.9262 16.1436 18.8058 16.5869 18.6335C17.0465 18.4558 17.4378 18.2151 17.8263 17.8267C18.2148 17.4384 18.4555 17.0473 18.6334 16.5878C18.8057 16.142 18.9261 15.6333 18.959 14.8894C18.9918 14.1428 19 13.9049 19 12.0041C19 10.1033 18.9918 9.8654 18.959 9.11877C18.9261 8.37488 18.8057 7.86345 18.6334 7.42039C18.461 6.95546 18.223 6.56437 17.8317 6.17601C17.4432 5.78765 17.052 5.54698 16.5923 5.36921C16.1464 5.19691 15.6375 5.07658 14.8933 5.04376C14.1436 5.0082 13.9056 5 12.0041 5Z" fill="black"/>
<path d="M12.0045 8.40494C10.0181 8.40494 8.40665 10.0158 8.40665 12.0013C8.40665 13.9869 10.0181 15.5977 12.0045 15.5977C13.9908 15.5977 15.6023 13.9869 15.6023 12.0013C15.6023 10.0158 13.9908 8.40494 12.0045 8.40494ZM12.0045 14.3342C10.7158 14.3342 9.67067 13.2895 9.67067 12.0013C9.67067 10.7132 10.7158 9.66847 12.0045 9.66847C13.2931 9.66847 14.3382 10.7132 14.3382 12.0013C14.3382 13.2895 13.2931 14.3342 12.0045 14.3342Z" fill="black"/>
<path d="M16.5841 8.26285C16.5841 8.72779 16.2065 9.10247 15.7442 9.10247C15.279 9.10247 14.9042 8.72505 14.9042 8.26285C14.9042 7.79792 15.2818 7.42323 15.7442 7.42323C16.2065 7.42323 16.5841 7.80065 16.5841 8.26285Z" fill="black"/>
</svg>
