<svg width="24" height="24" viewBox="0 0 24 24" fill="none" xmlns="http://www.w3.org/2000/svg">
<path d="M18.8605 9.20137C18.8605 9.20137 18.7238 8.23613 18.3027 7.81231C17.7695 7.25449 17.1734 7.25176 16.9 7.21895C14.9422 7.07676 12.0027 7.07676 12.0027 7.07676H11.9973C11.9973 7.07676 9.05781 7.07676 7.1 7.21895C6.82656 7.25176 6.23047 7.25449 5.69727 7.81231C5.27617 8.23613 5.14219 9.20137 5.14219 9.20137C5.14219 9.20137 5 10.3361 5 11.4682V12.5291C5 13.6611 5.13945 14.7959 5.13945 14.7959C5.13945 14.7959 5.27617 15.7611 5.69453 16.185C6.22773 16.7428 6.92773 16.7236 7.23945 16.7838C8.36055 16.8904 12 16.9232 12 16.9232C12 16.9232 14.9422 16.9178 16.9 16.7783C17.1734 16.7455 17.7695 16.7428 18.3027 16.185C18.7238 15.7611 18.8605 14.7959 18.8605 14.7959C18.8605 14.7959 19 13.6639 19 12.5291V11.4682C19 10.3361 18.8605 9.20137 18.8605 9.20137ZM10.5535 13.817V9.88223L14.3352 11.8564L10.5535 13.817Z" fill="black"/>
</svg>
