<svg width="24" height="24" viewBox="0 0 24 24" fill="none" xmlns="http://www.w3.org/2000/svg">
<path d="M5.77778 16.4444C5.77778 17.0058 5.93372 17.4425 6.24561 17.7544C6.5575 18.0663 6.99415 18.2222 7.55556 18.2222H16.4444C17.0058 18.2222 17.4425 18.0663 17.7544 17.7544C18.0663 17.4425 18.2222 17.0058 18.2222 16.4444V7.55556C18.2222 6.99415 18.0663 6.5575 17.7544 6.24561C17.4425 5.93372 17.0058 5.77778 16.4444 5.77778H7.55556C6.99415 5.77778 6.5575 5.93372 6.24561 6.24561C5.93372 6.5575 5.77778 6.99415 5.77778 7.55556V16.4444ZM4 7.55556C4 6.90059 4.15595 6.30279 4.46784 5.76218C4.79012 5.21118 5.22157 4.77973 5.76218 4.46784C6.31319 4.15595 6.91098 4 7.55556 4H16.4444C17.0994 4 17.6972 4.15595 18.2378 4.46784C18.7888 4.77973 19.2203 5.21118 19.5322 5.76218C19.8441 6.30279 20 6.90059 20 7.55556V16.4444C20 17.089 19.8441 17.6868 19.5322 18.2378C19.2203 18.7784 18.7888 19.2099 18.2378 19.5322C17.6972 19.8441 17.0994 20 16.4444 20H7.55556C6.91098 20 6.31319 19.8441 5.76218 19.5322C5.22157 19.2099 4.79012 18.7784 4.46784 18.2378C4.15595 17.6868 4 17.089 4 16.4444V7.55556ZM8.91228 10.6589C8.41326 10.6589 7.987 10.4873 7.63353 10.1442C7.29045 9.79077 7.11891 9.36452 7.11891 8.8655C7.11891 8.54321 7.19688 8.24691 7.35283 7.97661C7.51917 7.7063 7.73749 7.49318 8.0078 7.33723C8.2885 7.18129 8.58999 7.10331 8.91228 7.10331C9.23457 7.10331 9.53086 7.18129 9.80117 7.33723C10.0715 7.49318 10.2846 7.7063 10.4405 7.97661C10.5965 8.24691 10.6745 8.54321 10.6745 8.8655C10.6745 9.18778 10.5965 9.48928 10.4405 9.76998C10.2846 10.0403 10.0715 10.2586 9.80117 10.425C9.53086 10.5809 9.23457 10.6589 8.91228 10.6589ZM19.7349 14.9318C19.9116 15.0877 20 15.2956 20 15.5556C20 15.7947 19.9116 16.0026 19.7349 16.1793C19.5686 16.3561 19.3606 16.4444 19.1111 16.4444C18.8616 16.4444 18.6537 16.3561 18.4873 16.1793L14.2612 11.9532C14.2404 11.9324 14.3028 11.9168 14.4483 11.9064C14.5939 11.896 14.7394 11.896 14.885 11.9064C15.0409 11.9168 15.1033 11.9324 15.0721 11.9532L11.0643 15.961C10.8356 16.1897 10.5549 16.3041 10.2222 16.3041C9.88954 16.3041 9.60884 16.1897 9.38012 15.961L7.1501 13.731C7.1293 13.7102 7.19168 13.6946 7.33723 13.6842C7.48278 13.6738 7.62833 13.6738 7.77388 13.6842C7.92982 13.6946 7.9922 13.7102 7.96101 13.731L5.51267 16.1793C5.35673 16.3561 5.1488 16.4444 4.88889 16.4444C4.64977 16.4444 4.44185 16.3561 4.26511 16.1793C4.08837 16.0026 4 15.7947 4 15.5556C4 15.2956 4.08837 15.0877 4.26511 14.9318L6.71345 12.4834C6.94217 12.2443 7.22287 12.1248 7.55556 12.1248C7.88824 12.1248 8.16894 12.2443 8.39766 12.4834L10.6277 14.7135C10.6589 14.7342 10.5965 14.7498 10.4405 14.7602C10.295 14.7706 10.1494 14.7706 10.0039 14.7602C9.85835 14.7498 9.79597 14.7342 9.81676 14.7135L13.8246 10.7057C14.0533 10.4665 14.334 10.347 14.6667 10.347C14.9994 10.347 15.2801 10.4665 15.5088 10.7057L19.7349 14.9318Z" fill="black"/>
</svg>
