<svg width="24" height="24" viewBox="0 0 24 24" fill="none" xmlns="http://www.w3.org/2000/svg">
<path d="M15.9946 11.8533C16.1685 11.6685 16.3859 11.5761 16.6467 11.5761C16.9076 11.5761 17.125 11.6685 17.2989 11.8533C17.4837 12.0272 17.5761 12.2446 17.5761 12.5054C17.5761 12.7663 17.4837 12.9837 17.2989 13.1576L12.75 17.7065C12.5543 17.9022 12.3043 18 12 18C11.7065 18 11.4565 17.9022 11.25 17.7065L6.70109 13.1576C6.51631 12.9837 6.42391 12.7663 6.42391 12.5054C6.42391 12.2446 6.51631 12.0272 6.70109 11.8533C6.88587 11.6685 7.10326 11.5761 7.35326 11.5761C7.625 11.5761 7.84239 11.6685 8.00544 11.8533L12.5543 16.4022C12.6087 16.4565 12.5272 16.4946 12.3098 16.5163C12.1033 16.538 11.8913 16.538 11.6739 16.5163C11.4674 16.4946 11.3913 16.4565 11.4457 16.4022L15.9946 11.8533ZM15.9946 6.27717C16.1685 6.09239 16.3859 6 16.6467 6C16.9076 6 17.125 6.09239 17.2989 6.27717C17.4837 6.45109 17.5761 6.66848 17.5761 6.92935C17.5761 7.19022 17.4837 7.40761 17.2989 7.58152L12.75 12.1304C12.5543 12.3261 12.3043 12.4239 12 12.4239C11.7065 12.4239 11.4565 12.3261 11.25 12.1304L6.70109 7.58152C6.51631 7.40761 6.42391 7.19022 6.42391 6.92935C6.42391 6.66848 6.51631 6.45109 6.70109 6.27717C6.88587 6.09239 7.10326 6 7.35326 6C7.625 6 7.84239 6.09239 8.00544 6.27717L12.5543 10.8261C12.6087 10.8804 12.5272 10.9185 12.3098 10.9402C12.1033 10.962 11.8913 10.962 11.6739 10.9402C11.4674 10.9185 11.3913 10.8804 11.4457 10.8261L15.9946 6.27717Z" fill="black"/>
</svg>
