<svg width="24" height="24" viewBox="0 0 24 24" fill="none" xmlns="http://www.w3.org/2000/svg">
<path d="M13.0386 6.1614C12.8795 6.0117 12.8 5.82456 12.8 5.6C12.8 5.37544 12.8795 5.1883 13.0386 5.0386C13.1977 4.87953 13.3848 4.8 13.6 4.8C13.8339 4.8 14.0211 4.87953 14.1614 5.0386L15.5368 6.4H16.8C17.3801 6.4 17.9135 6.54503 18.4 6.83509C18.8959 7.11579 19.2842 7.50409 19.5649 8C19.855 8.48655 20 9.01988 20 9.6V16C20 16.5708 19.855 17.1041 19.5649 17.6C19.2842 18.0865 18.8959 18.4749 18.4 18.7649C17.9135 19.055 17.3801 19.2 16.8 19.2H7.2C6.62924 19.2 6.09591 19.055 5.6 18.7649C5.11345 18.4749 4.72515 18.0865 4.43509 17.6C4.14503 17.1041 4 16.5708 4 16V9.6C4 9.01988 4.14503 8.48655 4.43509 8C4.72515 7.50409 5.11345 7.11579 5.6 6.83509C6.09591 6.54503 6.62924 6.4 7.2 6.4H8.46316L9.8386 5.0386C9.9883 4.87953 10.1754 4.8 10.4 4.8C10.6246 4.8 10.8117 4.87953 10.9614 5.0386C11.1205 5.1883 11.2 5.37544 11.2 5.6C11.2 5.82456 11.1205 6.0117 10.9614 6.1614L9.13684 8H7.2C6.88187 8 6.60117 8.0655 6.35789 8.19649C6.11462 8.31813 5.92749 8.50058 5.79649 8.74386C5.6655 8.98713 5.6 9.27251 5.6 9.6V16C5.6 16.3181 5.6655 16.5988 5.79649 16.8421C5.92749 17.0854 6.11462 17.2725 6.35789 17.4035C6.60117 17.5345 6.88187 17.6 7.2 17.6H16.8C17.1275 17.6 17.4129 17.5345 17.6561 17.4035C17.8994 17.2725 18.0819 17.0854 18.2035 16.8421C18.3345 16.5988 18.4 16.3181 18.4 16V9.6C18.4 9.27251 18.3345 8.98713 18.2035 8.74386C18.0819 8.50058 17.8994 8.31813 17.6561 8.19649C17.4129 8.0655 17.1275 8 16.8 8H14.8632L13.0386 6.1614ZM12 10.4C11.5322 10.4 11.1158 10.5029 10.7509 10.7088C10.386 10.9053 10.1006 11.186 9.89474 11.5509C9.69825 11.9064 9.6 12.3228 9.6 12.8C9.6 13.2678 9.69825 13.6842 9.89474 14.0491C10.1006 14.414 10.386 14.6994 10.7509 14.9053C11.1158 15.1018 11.5322 15.2 12 15.2C12.4772 15.2 12.8936 15.1018 13.2491 14.9053C13.614 14.6994 13.8947 14.414 14.0912 14.0491C14.2971 13.6842 14.4 13.2678 14.4 12.8C14.4 12.3228 14.2971 11.9064 14.0912 11.5509C13.8947 11.186 13.614 10.9053 13.2491 10.7088C12.8936 10.5029 12.4772 10.4 12 10.4ZM12 8.8C12.7298 8.8 13.3988 8.97778 14.007 9.33333C14.6246 9.68889 15.1111 10.1754 15.4667 10.793C15.8222 11.4012 16 12.0702 16 12.8C16 13.5205 15.8222 14.1895 15.4667 14.807C15.1111 15.4152 14.6246 15.9018 14.007 16.2667C13.3988 16.6222 12.7298 16.8 12 16.8C11.2795 16.8 10.6105 16.6222 9.99298 16.2667C9.3848 15.9018 8.89825 15.4152 8.53333 14.807C8.17778 14.1895 8 13.5205 8 12.8C8 12.0702 8.17778 11.4012 8.53333 10.793C8.89825 10.1754 9.3848 9.68889 9.99298 9.33333C10.6105 8.97778 11.2795 8.8 12 8.8ZM10.4 6.4C10.1848 6.4 9.99766 6.32047 9.8386 6.1614C9.67953 6.00234 9.6 5.8152 9.6 5.6C9.6 5.37544 9.67953 5.1883 9.8386 5.0386C9.99766 4.87953 10.1848 4.8 10.4 4.8H13.6C13.8246 4.8 14.0117 4.87953 14.1614 5.0386C14.3205 5.1883 14.4 5.37544 14.4 5.6C14.4 5.8152 14.3205 6.00234 14.1614 6.1614C14.0117 6.32047 13.8246 6.4 13.6 6.4H10.4Z" fill="black"/>
</svg>
