<svg width="24" height="24" viewBox="0 0 24 24" fill="none" xmlns="http://www.w3.org/2000/svg">
<path d="M9.33333 17.3333C9.154 17.3333 8.99805 17.2671 8.8655 17.1345C8.73294 17.002 8.66667 16.846 8.66667 16.6667C8.66667 16.4795 8.73294 16.3236 8.8655 16.1988C8.99805 16.0663 9.154 16 9.33333 16H14C14.5146 16 14.9747 15.8869 15.3801 15.6608C15.7856 15.4269 16.1014 15.1072 16.3275 14.7018C16.5536 14.2963 16.6667 13.8402 16.6667 13.3333C16.6667 12.8187 16.5536 12.3587 16.3275 11.9532C16.1014 11.5478 15.7856 11.232 15.3801 11.0059C14.9747 10.7797 14.5146 10.6667 14 10.6667H6.66667C6.48733 10.6667 6.33138 10.6004 6.19883 10.4678C6.06628 10.3353 6 10.1793 6 10C6 9.81287 6.06628 9.65692 6.19883 9.53217C6.33138 9.39962 6.48733 9.33334 6.66667 9.33334H14C14.7251 9.33334 15.3918 9.51268 16 9.87135C16.616 10.23 17.1033 10.7174 17.462 11.3333C17.8207 11.9415 18 12.6082 18 13.3333C18 14.0507 17.8207 14.7174 17.462 15.3333C17.1033 15.9493 16.616 16.4367 16 16.7953C15.3918 17.154 14.7251 17.3333 14 17.3333H9.33333ZM8.8655 6.8655C8.99025 6.73295 9.1462 6.66667 9.33333 6.66667C9.52047 6.66667 9.67641 6.73295 9.80117 6.8655C9.93372 6.99026 10 7.1462 10 7.33334C10 7.52047 9.93372 7.67642 9.80117 7.80117L7.20468 10.3977C7.16569 10.4367 7.1384 10.3821 7.12281 10.2339C7.10721 10.078 7.10721 9.92593 7.12281 9.77778C7.1384 9.62184 7.16569 9.56336 7.20468 9.60234L9.80117 12.1988C9.93372 12.3158 10 12.4717 10 12.6667C10 12.846 9.93372 13.002 9.80117 13.1345C9.67641 13.2671 9.52047 13.3333 9.33333 13.3333C9.1462 13.3333 8.99025 13.2671 8.8655 13.1345L6.26901 10.538C6.12865 10.3899 6.05848 10.2105 6.05848 10C6.05848 9.78168 6.12865 9.60234 6.26901 9.46199L8.8655 6.8655Z" fill="black"/>
</svg>
