<svg width="24" height="24" viewBox="0 0 24 24" fill="none" xmlns="http://www.w3.org/2000/svg">
<path d="M12 15.1394C12.2846 15.1394 12.5462 15.2129 12.7849 15.3597C13.0235 15.4974 13.2117 15.6856 13.3494 15.9243C13.4963 16.1629 13.5697 16.4246 13.5697 16.7091C13.5697 16.9845 13.4963 17.2461 13.3494 17.494C13.2117 17.7326 13.0235 17.9254 12.7849 18.0723C12.5462 18.21 12.2846 18.2788 12 18.2788C11.7246 18.2788 11.463 18.21 11.2151 18.0723C10.9765 17.9254 10.7837 17.7326 10.6368 17.494C10.4991 17.2461 10.4303 16.9845 10.4303 16.7091C10.4303 16.4246 10.4991 16.1629 10.6368 15.9243C10.7837 15.6856 10.9765 15.4974 11.2151 15.3597C11.463 15.2129 11.7246 15.1394 12 15.1394ZM9.75559 14.4923C9.60872 14.6391 9.42972 14.7126 9.21859 14.7126C9.00746 14.7126 8.82387 14.6345 8.66781 14.4785C8.51176 14.3224 8.43373 14.1388 8.43373 13.9277C8.43373 13.6982 8.51635 13.51 8.68158 13.3632C9.14056 12.9134 9.64544 12.5783 10.1962 12.358C10.7745 12.1193 11.3758 12 12 12C12.6334 12 13.2347 12.1193 13.8038 12.358C14.3546 12.5783 14.8594 12.9134 15.3184 13.3632C15.4836 13.51 15.5663 13.6982 15.5663 13.9277C15.5663 14.1388 15.4882 14.3224 15.3322 14.4785C15.1853 14.6345 15.0017 14.7126 14.7814 14.7126C14.5703 14.7126 14.3913 14.6391 14.2444 14.4923C13.9323 14.1985 13.5835 13.969 13.1979 13.8038C12.8308 13.6477 12.4314 13.5697 12 13.5697C11.5686 13.5697 11.1692 13.6477 10.8021 13.8038C10.4165 13.969 10.0677 14.1985 9.75559 14.4923ZM7.5525 12.2754C7.38726 12.4223 7.20367 12.4957 7.00172 12.4957C6.79059 12.4957 6.607 12.4177 6.45095 12.2616C6.29489 12.1056 6.21687 11.922 6.21687 11.7108C6.21687 11.4905 6.29489 11.3024 6.45095 11.1463C7.21285 10.4119 8.06196 9.84739 8.99828 9.45267C9.94377 9.05795 10.9443 8.86059 12 8.86059C13.0557 8.86059 14.0562 9.05795 15.0017 9.45267C15.938 9.84739 16.7871 10.4119 17.5491 11.1463C17.7051 11.3024 17.7831 11.4905 17.7831 11.7108C17.7831 11.922 17.7051 12.1056 17.5491 12.2616C17.4022 12.4177 17.2186 12.4957 16.9983 12.4957C16.7963 12.4957 16.6127 12.4223 16.4475 12.2754C15.86 11.6879 15.1761 11.2289 14.3959 10.8985C13.6523 10.5863 12.8537 10.4303 12 10.4303C11.1555 10.4303 10.3569 10.5863 9.60413 10.8985C8.83305 11.2289 8.14917 11.6879 7.5525 12.2754ZM5.33563 10.0448C5.19793 10.2008 5.01434 10.2788 4.78485 10.2788C4.57372 10.2788 4.39013 10.2008 4.23408 10.0448C4.07803 9.8887 4 9.70511 4 9.49398C4 9.26449 4.07803 9.0809 4.23408 8.9432C5.24383 7.93345 6.428 7.13483 7.78657 6.54733C9.13597 5.99656 10.5404 5.72117 12 5.72117C13.4687 5.72117 14.8732 5.99656 16.2134 6.54733C17.572 7.13483 18.7562 7.93345 19.7659 8.9432C19.922 9.0809 20 9.26449 20 9.49398C20 9.70511 19.922 9.8887 19.7659 10.0448C19.619 10.2008 19.4355 10.2788 19.2151 10.2788C18.9948 10.2788 18.8112 10.2008 18.6644 10.0448C17.8107 9.19105 16.7917 8.50717 15.6076 7.99312C14.4693 7.52496 13.2668 7.29088 12 7.29088C10.7332 7.29088 9.53069 7.52496 8.39243 7.99312C7.21744 8.50717 6.19851 9.19105 5.33563 10.0448Z" fill="black"/>
</svg>
