<svg width="current" height="current" viewBox="0 0 24 24" fill="none" xmlns="http://www.w3.org/2000/svg">
<path d="M12 5.59301C10.9566 5.59301 10.0064 5.83523 9.14936 6.31965C8.30161 6.80408 7.63553 7.47016 7.1511 8.3179C6.66668 9.16565 6.42446 10.1159 6.42446 11.1686C6.42446 11.9511 6.5642 12.6731 6.84368 13.3345C7.12315 13.9866 7.52839 14.5782 8.0594 15.1092L10.8402 17.89C11.2221 18.2626 11.6087 18.4489 12 18.4489C12.4006 18.4489 12.7919 18.2626 13.1738 17.89L15.9406 15.1231C16.4716 14.5828 16.8769 13.9866 17.1563 13.3345C17.4358 12.6731 17.5756 11.9511 17.5756 11.1686C17.5756 10.1159 17.3333 9.16565 16.8489 8.3179C16.3645 7.47016 15.6984 6.80408 14.8507 6.31965C14.0029 5.83523 13.0527 5.59301 12 5.59301ZM12 4C13.3042 4 14.506 4.3214 15.6053 4.96419C16.7045 5.59767 17.5709 6.46405 18.2044 7.56332C18.8472 8.66259 19.1686 9.86434 19.1686 11.1686C19.1686 12.1374 18.9823 13.0597 18.6096 13.9354C18.237 14.8111 17.72 15.5796 17.0585 16.241L14.2917 19.0079C13.8725 19.4364 13.3834 19.7298 12.8245 19.8882C12.2748 20.0373 11.7252 20.0373 11.1756 19.8882C10.6352 19.7298 10.1508 19.4364 9.72228 19.0079L6.94149 16.2271C6.28007 15.575 5.76304 14.8111 5.3904 13.9354C5.01777 13.0597 4.83145 12.1374 4.83145 11.1686C4.83145 9.86434 5.15285 8.66259 5.79564 7.56332C6.43844 6.46405 7.30947 5.59767 8.40874 4.96419C9.50802 4.3214 10.7051 4 12 4ZM13.8306 9.01659C13.9796 8.85822 14.1659 8.77904 14.3895 8.77904C14.6131 8.77904 14.7994 8.85822 14.9485 9.01659C15.1069 9.16565 15.186 9.35197 15.186 9.57555C15.186 9.79913 15.1069 9.98544 14.9485 10.1345L11.8463 13.2367C11.6786 13.4044 11.4643 13.4882 11.2035 13.4882C10.952 13.4882 10.7377 13.4044 10.5607 13.2367L9.05154 11.7275C8.89317 11.5785 8.81398 11.3921 8.81398 11.1686C8.81398 10.945 8.89317 10.7587 9.05154 10.6096C9.20991 10.4512 9.39623 10.3721 9.61049 10.3721C9.84339 10.3721 10.0297 10.4512 10.1694 10.6096L11.6786 12.1188C11.7252 12.1654 11.6553 12.198 11.469 12.2166C11.292 12.2352 11.1103 12.2352 10.924 12.2166C10.747 12.198 10.6818 12.1654 10.7284 12.1188L13.8306 9.01659Z" fill="currentColor"/>
</svg>
