<svg width="current" height="current" viewBox="0 0 24 24" fill="none" xmlns="http://www.w3.org/2000/svg">
<path d="M15.5556 11.1111C15.8051 11.1111 16.013 11.1995 16.1793 11.3762C16.3561 11.5426 16.4444 11.7505 16.4444 12C16.4444 12.2391 16.3561 12.447 16.1793 12.6238C16.013 12.8005 15.8051 12.8889 15.5556 12.8889H8.44444C8.20533 12.8889 7.9974 12.8005 7.82066 12.6238C7.64392 12.447 7.55556 12.2391 7.55556 12C7.55556 11.7505 7.64392 11.5426 7.82066 11.3762C7.9974 11.1995 8.20533 11.1111 8.44444 11.1111H15.5556ZM19.1111 5.77778C19.3606 5.77778 19.5686 5.86615 19.7349 6.04289C19.9116 6.20923 20 6.41716 20 6.66667C20 6.90578 19.9116 7.11371 19.7349 7.29045C19.5686 7.46719 19.3606 7.55556 19.1111 7.55556H4.88889C4.64977 7.55556 4.44185 7.46719 4.26511 7.29045C4.08837 7.11371 4 6.90578 4 6.66667C4 6.41716 4.08837 6.20923 4.26511 6.04289C4.44185 5.86615 4.64977 5.77778 4.88889 5.77778H19.1111ZM17.3333 16.4444C17.5828 16.4444 17.7908 16.5328 17.9571 16.7096C18.1339 16.8759 18.2222 17.0838 18.2222 17.3333C18.2222 17.5725 18.1339 17.7804 17.9571 17.9571C17.7908 18.1339 17.5828 18.2222 17.3333 18.2222H6.66667C6.42755 18.2222 6.21962 18.1339 6.04289 17.9571C5.86615 17.7804 5.77778 17.5725 5.77778 17.3333C5.77778 17.0838 5.86615 16.8759 6.04289 16.7096C6.21962 16.5328 6.42755 16.4444 6.66667 16.4444H17.3333Z" fill="currentColor"/>
</svg>
