<svg width="24" height="24" viewBox="0 0 24 24" fill="none" xmlns="http://www.w3.org/2000/svg">
<path d="M12 7.8C11.8143 7.8 11.6363 7.87375 11.505 8.00503C11.3737 8.1363 11.3 8.31435 11.3 8.5V15.5C11.3 15.6857 11.3737 15.8637 11.505 15.995C11.6363 16.1263 11.8143 16.2 12 16.2C12.1857 16.2 12.3637 16.1263 12.495 15.995C12.6262 15.8637 12.7 15.6857 12.7 15.5V8.5C12.7 8.31435 12.6262 8.1363 12.495 8.00503C12.3637 7.87375 12.1857 7.8 12 7.8ZM8.5 12C8.31435 12 8.1363 12.0737 8.00503 12.205C7.87375 12.3363 7.8 12.5143 7.8 12.7V15.5C7.8 15.6857 7.87375 15.8637 8.00503 15.995C8.1363 16.1263 8.31435 16.2 8.5 16.2C8.68565 16.2 8.8637 16.1263 8.99497 15.995C9.12625 15.8637 9.2 15.6857 9.2 15.5V12.7C9.2 12.5143 9.12625 12.3363 8.99497 12.205C8.8637 12.0737 8.68565 12 8.5 12ZM15.5 10.6C15.3143 10.6 15.1363 10.6737 15.005 10.805C14.8737 10.9363 14.8 11.1143 14.8 11.3V15.5C14.8 15.6857 14.8737 15.8637 15.005 15.995C15.1363 16.1263 15.3143 16.2 15.5 16.2C15.6857 16.2 15.8637 16.1263 15.995 15.995C16.1263 15.8637 16.2 15.6857 16.2 15.5V11.3C16.2 11.1143 16.1263 10.9363 15.995 10.805C15.8637 10.6737 15.6857 10.6 15.5 10.6ZM16.9 5H7.1C6.54305 5 6.0089 5.22125 5.61508 5.61508C5.22125 6.0089 5 6.54305 5 7.1V16.9C5 17.457 5.22125 17.9911 5.61508 18.3849C6.0089 18.7788 6.54305 19 7.1 19H16.9C17.457 19 17.9911 18.7788 18.3849 18.3849C18.7788 17.9911 19 17.457 19 16.9V7.1C19 6.54305 18.7788 6.0089 18.3849 5.61508C17.9911 5.22125 17.457 5 16.9 5ZM17.6 16.9C17.6 17.0857 17.5263 17.2637 17.395 17.395C17.2637 17.5263 17.0857 17.6 16.9 17.6H7.1C6.91435 17.6 6.7363 17.5263 6.60503 17.395C6.47375 17.2637 6.4 17.0857 6.4 16.9V7.1C6.4 6.91435 6.47375 6.7363 6.60503 6.60503C6.7363 6.47375 6.91435 6.4 7.1 6.4H16.9C17.0857 6.4 17.2637 6.47375 17.395 6.60503C17.5263 6.7363 17.6 6.91435 17.6 7.1V16.9Z" fill="black"/>
</svg>
