<svg width="24" height="24" viewBox="0 0 24 24" fill="none" xmlns="http://www.w3.org/2000/svg">
<path d="M8.88889 5C9.10721 5 9.28915 5.07732 9.4347 5.23197C9.58934 5.37752 9.66667 5.55945 9.66667 5.77778C9.66667 5.987 9.58934 6.16894 9.4347 6.32359C9.28915 6.47823 9.10721 6.55556 8.88889 6.55556H8.11111C7.80182 6.55556 7.52891 6.61923 7.2924 6.74659C7.05588 6.86485 6.87394 7.04223 6.74659 7.27875C6.61923 7.51527 6.55556 7.79272 6.55556 8.11111V15.8889C6.55556 16.1982 6.61923 16.4711 6.74659 16.7076C6.87394 16.9441 7.05588 17.1261 7.2924 17.2534C7.52891 17.3808 7.80182 17.4444 8.11111 17.4444H8.88889C9.10721 17.4444 9.28915 17.5218 9.4347 17.6764C9.58934 17.822 9.66667 18.0039 9.66667 18.2222C9.66667 18.4314 9.58934 18.6134 9.4347 18.768C9.28915 18.9227 9.10721 19 8.88889 19H8.11111C7.55621 19 7.03769 18.859 6.55556 18.577C6.08252 18.295 5.705 17.9175 5.423 17.4444C5.141 16.9623 5 16.4438 5 15.8889V8.11111C5 7.54711 5.141 7.02859 5.423 6.55556C5.705 6.07342 6.08252 5.69591 6.55556 5.423C7.03769 5.141 7.55621 5 8.11111 5H8.88889ZM15.6569 15.6569C15.5205 15.8116 15.3385 15.8889 15.1111 15.8889C14.9019 15.8889 14.7199 15.8116 14.5653 15.6569C14.4107 15.5023 14.3333 15.3203 14.3333 15.1111C14.3333 14.8837 14.4107 14.7018 14.5653 14.5653L17.5945 11.5361C17.64 11.4906 17.6719 11.5588 17.6901 11.7407C17.7083 11.9136 17.7083 12.091 17.6901 12.2729C17.6719 12.4457 17.64 12.5094 17.5945 12.4639L14.5653 9.4347C14.4107 9.28915 14.3333 9.10721 14.3333 8.88889C14.3333 8.67057 14.4107 8.48863 14.5653 8.34308C14.7199 8.18843 14.9019 8.11111 15.1111 8.11111C15.3385 8.11111 15.5205 8.18843 15.6569 8.34308L18.6862 11.3723C18.859 11.5361 18.9454 11.7453 18.9454 12C18.9454 12.2456 18.859 12.4548 18.6862 12.6277L15.6569 15.6569ZM18.2222 11.2222C18.4405 11.2222 18.6225 11.2995 18.768 11.4542C18.9227 11.5997 19 11.7817 19 12C19 12.2092 18.9227 12.3912 18.768 12.5458C18.6225 12.7005 18.4405 12.7778 18.2222 12.7778H8.88889C8.67966 12.7778 8.49773 12.7005 8.34308 12.5458C8.18843 12.3912 8.11111 12.2092 8.11111 12C8.11111 11.7817 8.18843 11.5997 8.34308 11.4542C8.49773 11.2995 8.67966 11.2222 8.88889 11.2222H18.2222Z" fill="black"/>
</svg>
