<svg width="current" height="current" viewBox="0 0 24 24" fill="none" xmlns="http://www.w3.org/2000/svg">
<path d="M9.01049 12C9.01049 11.458 9.14598 10.9598 9.41696 10.5052C9.68794 10.042 10.0507 9.6792 10.5052 9.41696C10.9598 9.14598 11.458 9.01049 12 9.01049C12.542 9.01049 13.0402 9.14598 13.4948 9.41696C13.958 9.6792 14.3208 10.042 14.583 10.5052C14.854 10.9598 14.9895 11.458 14.9895 12C14.9895 12.5332 14.854 13.0315 14.583 13.4948C14.3208 13.9493 13.958 14.3121 13.4948 14.583C13.0402 14.854 12.542 14.9895 12 14.9895C11.4668 14.9895 10.9685 14.854 10.5052 14.583C10.0507 14.3121 9.68794 13.9493 9.41696 13.4948C9.14598 13.0402 9.01049 12.542 9.01049 12ZM10.5052 12C10.5052 12.2972 10.5664 12.5594 10.6888 12.7867C10.8112 13.014 10.986 13.1888 11.2133 13.3112C11.4406 13.4336 11.7028 13.4948 12 13.4948C12.3059 13.4948 12.5726 13.4336 12.7998 13.3112C13.0271 13.1888 13.1976 13.014 13.3112 12.7867C13.4336 12.5594 13.4948 12.2972 13.4948 12C13.4948 11.6941 13.4336 11.4274 13.3112 11.2002C13.1976 10.9729 13.0271 10.8024 12.7998 10.6888C12.5726 10.5664 12.3059 10.5052 12 10.5052C11.7028 10.5052 11.4406 10.5664 11.2133 10.6888C10.986 10.8024 10.8112 10.9729 10.6888 11.2002C10.5664 11.4274 10.5052 11.6941 10.5052 12ZM16.6941 7.63374C17.3934 8.16696 17.9834 8.81381 18.4642 9.5743C18.9537 10.3348 19.299 11.1434 19.5 12C19.299 12.8566 18.9537 13.6652 18.4642 14.4257C17.9834 15.1862 17.3934 15.833 16.6941 16.3663C16.0297 16.8907 15.2911 17.2928 14.4781 17.5726C13.674 17.8435 12.8479 17.979 12 17.979C11.1521 17.979 10.3217 17.8435 9.50874 17.5726C8.70455 17.2928 7.97028 16.8907 7.30594 16.3663C6.60664 15.833 6.01224 15.1862 5.52273 14.4257C5.04196 13.6652 4.70105 12.8566 4.5 12C4.70105 11.1434 5.04196 10.3348 5.52273 9.5743C6.01224 8.81381 6.60664 8.16696 7.30594 7.63374C7.97028 7.10927 8.70455 6.71154 9.50874 6.44056C10.3217 6.16084 11.1521 6.02098 12 6.02098C12.8479 6.02098 13.674 6.16084 14.4781 6.44056C15.2911 6.71154 16.0297 7.10927 16.6941 7.63374ZM15.7762 8.81381C15.2255 8.37675 14.6355 8.05332 14.0061 7.84353C13.3767 7.625 12.708 7.51574 12 7.51574C11.292 7.51574 10.6233 7.625 9.99388 7.84353C9.37325 8.05332 8.78322 8.37675 8.22378 8.81381C7.69056 9.22465 7.24038 9.69668 6.87325 10.2299C6.51486 10.7631 6.23951 11.3531 6.0472 12C6.23951 12.6381 6.51486 13.2281 6.87325 13.7701C7.24038 14.3033 7.69056 14.7754 8.22378 15.1862C8.78322 15.6233 9.37325 15.951 9.99388 16.1696C10.6233 16.3794 11.292 16.4843 12 16.4843C12.708 16.4843 13.3767 16.3794 14.0061 16.1696C14.6355 15.951 15.2255 15.6233 15.7762 15.1862C16.3094 14.7754 16.7552 14.3033 17.1136 13.7701C17.4808 13.2281 17.7605 12.6381 17.9528 12C17.7605 11.3531 17.4808 10.7631 17.1136 10.2299C16.7552 9.69668 16.3094 9.22465 15.7762 8.81381Z" fill="currentColor"/>
</svg>
