<svg width="current" height="current" viewBox="0 0 24 24" fill="none" xmlns="http://www.w3.org/2000/svg">
<path d="M4.5 12C4.74476 10.9598 5.18182 10.0114 5.81119 9.15472C6.4493 8.29808 7.2229 7.60315 8.13199 7.06993L9.22028 8.15822C8.45105 8.52535 7.79108 9.04108 7.24038 9.70542C6.69843 10.3698 6.3007 11.1346 6.0472 12C6.30944 12.9003 6.72465 13.6914 7.29283 14.3732C7.86976 15.0463 8.56031 15.5664 9.36451 15.9336C10.1774 16.3007 11.0559 16.4843 12 16.4843C12.778 16.4843 13.5122 16.3575 14.2028 16.104C14.9021 15.8505 15.5227 15.4834 16.0647 15.0026L17.0874 16.0253C16.3969 16.646 15.6145 17.1267 14.7404 17.4677C13.8663 17.8086 12.9528 17.979 12 17.979C10.8287 17.979 9.71853 17.7255 8.66958 17.2185C7.62063 16.7028 6.72902 15.9904 5.99476 15.0813C5.26923 14.1722 4.77098 13.1451 4.5 12ZM9.61364 6.44056C10.3829 6.16084 11.1783 6.02098 12 6.02098C13.1801 6.02098 14.2902 6.27447 15.3304 6.78147C16.3794 7.28846 17.2666 7.9965 17.9921 8.90559C18.7264 9.81468 19.229 10.8462 19.5 12C19.3689 12.542 19.1809 13.0577 18.9362 13.5472C18.7002 14.028 18.4161 14.4825 18.0839 14.9108L17.0087 13.8357C17.2185 13.5647 17.4021 13.2762 17.5594 12.9703C17.7255 12.6556 17.8566 12.3322 17.9528 12C17.6906 11.0996 17.271 10.3129 16.6941 9.63986C16.1259 8.95804 15.4353 8.43357 14.6224 8.06643C13.8182 7.6993 12.9441 7.51573 12 7.51573C11.5717 7.51573 11.2045 7.58566 10.8986 7.72552L9.61364 6.44056ZM4.52622 5.2736C4.52622 5.06381 4.60052 4.88898 4.74913 4.74912C4.89773 4.60052 5.07255 4.52622 5.2736 4.52622C5.49213 4.52622 5.66696 4.60052 5.79808 4.74912L19.2509 18.2019C19.3995 18.333 19.4738 18.5079 19.4738 18.7264C19.4738 18.9274 19.3995 19.1023 19.2509 19.2509C19.111 19.3995 18.9362 19.4738 18.7264 19.4738C18.5166 19.4738 18.3418 19.3995 18.2019 19.2509L13.521 14.5699C13.1451 14.7885 12.7343 14.9239 12.2885 14.9764C11.8514 15.0201 11.4231 14.9677 11.0035 14.8191C10.5839 14.6705 10.2124 14.4344 9.88899 14.111C9.56556 13.7876 9.32955 13.4161 9.18094 12.9965C9.03234 12.5769 8.9799 12.1486 9.0236 11.7115C9.07605 11.2657 9.21154 10.8549 9.43007 10.479L4.74913 5.79808C4.60052 5.65822 4.52622 5.48339 4.52622 5.2736ZM12.3409 9.16783C12.6556 9.15909 12.9703 9.21591 13.285 9.33828C13.5997 9.46066 13.875 9.64423 14.111 9.88898C14.3558 10.125 14.5393 10.4003 14.6617 10.715C14.7841 11.0297 14.8409 11.3444 14.8322 11.6591L12.3409 9.16783Z" fill="currentColor"/>
</svg>
