<svg width="current" height="current" viewBox="0 0 24 24" fill="none" xmlns="http://www.w3.org/2000/svg">
<path d="M12 17.2C12.9731 17.2 13.855 16.9719 14.6456 16.5158C15.4439 16.0596 16.0673 15.4363 16.5158 14.6456C16.9719 13.8474 17.2 12.9655 17.2 12C17.2 11.0269 16.9719 10.145 16.5158 9.35439C16.0673 8.55614 15.4439 7.93275 14.6456 7.48421C13.855 7.02807 12.9731 6.8 12 6.8C11.0345 6.8 10.1526 7.02807 9.35439 7.48421C8.56374 7.93275 7.94035 8.55614 7.48421 9.35439C7.02807 10.145 6.8 11.0269 6.8 12C6.8 12.9655 7.02807 13.8474 7.48421 14.6456C7.94035 15.4363 8.56374 16.0596 9.35439 16.5158C10.1526 16.9719 11.0345 17.2 12 17.2ZM12 18.5C10.8292 18.5 9.74211 18.2111 8.7386 17.6333C7.74269 17.048 6.95205 16.2573 6.36667 15.2614C5.78889 14.2579 5.5 13.1708 5.5 12C5.5 10.8216 5.78889 9.7345 6.36667 8.7386C6.95205 7.74269 7.74269 6.95585 8.7386 6.37807C9.74211 5.79269 10.8292 5.5 12 5.5C13.1784 5.5 14.2655 5.79269 15.2614 6.37807C16.2573 6.95585 17.0442 7.74649 17.6219 8.75C18.2073 9.74591 18.5 10.8292 18.5 12C18.5 13.1708 18.2073 14.2579 17.6219 15.2614C17.0442 16.2573 16.2535 17.048 15.25 17.6333C14.2541 18.2111 13.1708 18.5 12 18.5ZM11.35 8.75C11.35 8.56754 11.4146 8.4155 11.5439 8.29386C11.6731 8.16462 11.8251 8.1 12 8.1C12.1825 8.1 12.3345 8.16462 12.4561 8.29386C12.5854 8.4155 12.65 8.56754 12.65 8.75V12.8667C12.65 13.0415 12.5854 13.1936 12.4561 13.3228C12.3345 13.452 12.1825 13.5167 12 13.5167C11.8251 13.5167 11.6731 13.452 11.5439 13.3228C11.4146 13.1936 11.35 13.0415 11.35 12.8667V8.75ZM12 15.9C11.7643 15.9 11.5591 15.8164 11.3842 15.6491C11.217 15.4743 11.1333 15.269 11.1333 15.0333C11.1333 14.7977 11.217 14.5962 11.3842 14.4289C11.5591 14.2541 11.7643 14.1667 12 14.1667C12.2357 14.1667 12.4371 14.2541 12.6044 14.4289C12.7792 14.5962 12.8667 14.7977 12.8667 15.0333C12.8667 15.269 12.7792 15.4743 12.6044 15.6491C12.4371 15.8164 12.2357 15.9 12 15.9Z" fill="currentColor"/>
</svg>
