<svg width="current" height="current" viewBox="0 0 24 24" fill="none" xmlns="http://www.w3.org/2000/svg">
<path d="M7.49999 6.6C6.93157 6.6 6.48947 6.75789 6.17368 7.07368C5.85789 7.38947 5.69999 7.83158 5.69999 8.4H18.3C18.3 7.83158 18.1421 7.38947 17.8263 7.07368C17.5105 6.75789 17.0684 6.6 16.5 6.6H7.49999ZM16.5 4.8C17.1632 4.8 17.7684 4.95789 18.3158 5.27368C18.8737 5.58947 19.3105 6.02632 19.6263 6.58421C19.9421 7.13158 20.1 7.73684 20.1 8.4V10.2H3.89999V8.4C3.89999 7.73684 4.05789 7.13158 4.37368 6.58421C4.69999 6.02632 5.13684 5.58947 5.6842 5.27368C6.2421 4.95789 6.84736 4.8 7.49999 4.8H16.5ZM5.69999 17.4C5.69999 17.9684 5.85789 18.4105 6.17368 18.7263C6.48947 19.0421 6.93157 19.2 7.49999 19.2H16.5C17.0684 19.2 17.5105 19.0421 17.8263 18.7263C18.1421 18.4105 18.3 17.9684 18.3 17.4V10.2H5.69999V17.4ZM20.1 8.4V17.4C20.1 18.0526 19.9421 18.6579 19.6263 19.2158C19.3105 19.7632 18.8737 20.2 18.3158 20.5263C17.7684 20.8421 17.1632 21 16.5 21H7.49999C6.84736 21 6.2421 20.8421 5.6842 20.5263C5.13684 20.2 4.69999 19.7632 4.37368 19.2158C4.05789 18.6579 3.89999 18.0526 3.89999 17.4V8.4H20.1ZM6.59999 3.9C6.59999 3.64737 6.68947 3.43684 6.86842 3.26842C7.04736 3.08947 7.25789 3 7.49999 3C7.75263 3 7.96315 3.08947 8.13157 3.26842C8.31052 3.43684 8.39999 3.64737 8.39999 3.9V5.7C8.39999 5.94211 8.31052 6.15263 8.13157 6.33158C7.96315 6.51053 7.75263 6.6 7.49999 6.6C7.25789 6.6 7.04736 6.51053 6.86842 6.33158C6.68947 6.15263 6.59999 5.94211 6.59999 5.7V3.9ZM17.4 5.7C17.4 5.94211 17.3105 6.15263 17.1316 6.33158C16.9632 6.51053 16.7526 6.6 16.5 6.6C16.2579 6.6 16.0474 6.51053 15.8684 6.33158C15.6895 6.15263 15.6 5.94211 15.6 5.7V3.9C15.6 3.64737 15.6895 3.43684 15.8684 3.26842C16.0474 3.08947 16.2579 3 16.5 3C16.7526 3 16.9632 3.08947 17.1316 3.26842C17.3105 3.43684 17.4 3.64737 17.4 3.9V5.7ZM14.1 12.2684C14.2684 12.0895 14.4789 12 14.7316 12C14.9842 12 15.1947 12.0895 15.3632 12.2684C15.5421 12.4368 15.6316 12.6474 15.6316 12.9C15.6316 13.1526 15.5421 13.3632 15.3632 13.5316L11.8579 17.0368C11.6684 17.2263 11.4263 17.3211 11.1316 17.3211C10.8474 17.3211 10.6053 17.2263 10.4053 17.0368L8.69999 15.3316C8.52105 15.1632 8.43157 14.9526 8.43157 14.7C8.43157 14.4474 8.52105 14.2368 8.69999 14.0684C8.87894 13.8895 9.08947 13.8 9.33157 13.8C9.59473 13.8 9.80526 13.8895 9.96315 14.0684L11.6684 15.7737C11.721 15.8263 11.6421 15.8632 11.4316 15.8842C11.2316 15.9053 11.0263 15.9053 10.8158 15.8842C10.6158 15.8632 10.5421 15.8263 10.5947 15.7737L14.1 12.2684Z" fill="currentColor"/>
</svg>
