<svg width="current" height="current" viewBox="0 0 24 24" fill="none" xmlns="http://www.w3.org/2000/svg">
<path d="M15.6 12C15.8526 12 16.0632 12.0895 16.2316 12.2684C16.4105 12.4368 16.5 12.6474 16.5 12.9C16.5 13.1421 16.4105 13.3526 16.2316 13.5316C16.0632 13.7105 15.8526 13.8 15.6 13.8H8.4C8.15789 13.8 7.94737 13.7105 7.76842 13.5316C7.58947 13.3526 7.5 13.1421 7.5 12.9C7.5 12.6474 7.58947 12.4368 7.76842 12.2684C7.94737 12.0895 8.15789 12 8.4 12H15.6ZM12 15.6C12.2526 15.6 12.4632 15.6895 12.6316 15.8684C12.8105 16.0368 12.9 16.2474 12.9 16.5C12.9 16.7421 12.8105 16.9526 12.6316 17.1316C12.4632 17.3105 12.2526 17.4 12 17.4H8.4C8.15789 17.4 7.94737 17.3105 7.76842 17.1316C7.58947 16.9526 7.5 16.7421 7.5 16.5C7.5 16.2474 7.58947 16.0368 7.76842 15.8684C7.94737 15.6895 8.15789 15.6 8.4 15.6H12ZM7.5 6.6C6.93158 6.6 6.48947 6.75789 6.17368 7.07368C5.85789 7.38947 5.7 7.83158 5.7 8.4H18.3C18.3 7.83158 18.1421 7.38947 17.8263 7.07368C17.5105 6.75789 17.0684 6.6 16.5 6.6H7.5ZM16.5 4.8C17.1632 4.8 17.7684 4.95789 18.3158 5.27368C18.8737 5.58947 19.3105 6.02632 19.6263 6.58421C19.9421 7.13158 20.1 7.73684 20.1 8.4V10.2H3.9V8.4C3.9 7.73684 4.05789 7.13158 4.37368 6.58421C4.7 6.02632 5.13684 5.58947 5.68421 5.27368C6.2421 4.95789 6.84737 4.8 7.5 4.8H16.5ZM5.7 17.4C5.7 17.9684 5.85789 18.4105 6.17368 18.7263C6.48947 19.0421 6.93158 19.2 7.5 19.2H16.5C17.0684 19.2 17.5105 19.0421 17.8263 18.7263C18.1421 18.4105 18.3 17.9684 18.3 17.4V10.2H5.7V17.4ZM20.1 8.4V17.4C20.1 18.0526 19.9421 18.6579 19.6263 19.2158C19.3105 19.7632 18.8737 20.2 18.3158 20.5263C17.7684 20.8421 17.1632 21 16.5 21H7.5C6.84737 21 6.2421 20.8421 5.68421 20.5263C5.13684 20.2 4.7 19.7632 4.37368 19.2158C4.05789 18.6579 3.9 18.0526 3.9 17.4V8.4H20.1ZM6.6 3.9C6.6 3.64737 6.68947 3.43684 6.86842 3.26842C7.04737 3.08947 7.25789 3 7.5 3C7.75263 3 7.96316 3.08947 8.13158 3.26842C8.31053 3.43684 8.4 3.64737 8.4 3.9V5.7C8.4 5.94211 8.31053 6.15263 8.13158 6.33158C7.96316 6.51053 7.75263 6.6 7.5 6.6C7.25789 6.6 7.04737 6.51053 6.86842 6.33158C6.68947 6.15263 6.6 5.94211 6.6 5.7V3.9ZM17.4 5.7C17.4 5.94211 17.3105 6.15263 17.1316 6.33158C16.9632 6.51053 16.7526 6.6 16.5 6.6C16.2579 6.6 16.0474 6.51053 15.8684 6.33158C15.6895 6.15263 15.6 5.94211 15.6 5.7V3.9C15.6 3.64737 15.6895 3.43684 15.8684 3.26842C16.0474 3.08947 16.2579 3 16.5 3C16.7526 3 16.9632 3.08947 17.1316 3.26842C17.3105 3.43684 17.4 3.64737 17.4 3.9V5.7Z" fill="currentColor"/>
</svg>
