<svg width="24" height="24" viewBox="0 0 24 24" fill="none" xmlns="http://www.w3.org/2000/svg">
<path d="M12 17.2C12.9731 17.2 13.855 16.9719 14.6456 16.5158C15.4439 16.0596 16.0673 15.4363 16.5158 14.6456C16.9719 13.8474 17.2 12.9655 17.2 12C17.2 11.0269 16.9719 10.145 16.5158 9.35439C16.0673 8.55614 15.4439 7.93275 14.6456 7.48421C13.855 7.02807 12.9731 6.8 12 6.8C11.0345 6.8 10.1526 7.02807 9.35439 7.48421C8.56374 7.93275 7.94035 8.55614 7.48421 9.35439C7.02807 10.145 6.8 11.0269 6.8 12C6.8 12.9655 7.02807 13.8474 7.48421 14.6456C7.94035 15.4363 8.56374 16.0596 9.35439 16.5158C10.1526 16.9719 11.0345 17.2 12 17.2ZM12 18.5C10.8292 18.5 9.74211 18.2111 8.7386 17.6333C7.74269 17.048 6.95205 16.2573 6.36667 15.2614C5.78889 14.2579 5.5 13.1708 5.5 12C5.5 10.8216 5.78889 9.7345 6.36667 8.7386C6.95205 7.74269 7.74269 6.95585 8.7386 6.37807C9.74211 5.79269 10.8292 5.5 12 5.5C13.1784 5.5 14.2655 5.79269 15.2614 6.37807C16.2573 6.95585 17.0442 7.74649 17.6219 8.75C18.2073 9.74591 18.5 10.8292 18.5 12C18.5 13.1708 18.2073 14.2579 17.6219 15.2614C17.0442 16.2573 16.2535 17.048 15.25 17.6333C14.2541 18.2111 13.1708 18.5 12 18.5ZM11.35 11.7833C11.35 11.6009 11.4146 11.4488 11.5439 11.3272C11.6731 11.198 11.8251 11.1333 12 11.1333C12.1825 11.1333 12.3345 11.198 12.4561 11.3272C12.5854 11.4488 12.65 11.6009 12.65 11.7833V14.6C12.65 14.7749 12.5854 14.9269 12.4561 15.0561C12.3345 15.1854 12.1825 15.25 12 15.25C11.8251 15.25 11.6731 15.1854 11.5439 15.0561C11.4146 14.9269 11.35 14.7749 11.35 14.6V11.7833ZM12 8.75C12.2357 8.75 12.4371 8.83743 12.6044 9.01228C12.7792 9.17953 12.8667 9.38099 12.8667 9.61667C12.8667 9.85234 12.7792 10.0576 12.6044 10.2325C12.4371 10.3997 12.2357 10.4833 12 10.4833C11.7643 10.4833 11.5591 10.3997 11.3842 10.2325C11.217 10.0576 11.1333 9.85234 11.1333 9.61667C11.1333 9.38099 11.217 9.17953 11.3842 9.01228C11.5591 8.83743 11.7643 8.75 12 8.75Z" fill="black"/>
</svg>
