<svg width="current" height="current" viewBox="0 0 24 24" fill="none" xmlns="http://www.w3.org/2000/svg">
<path d="M7.5 12C7.5 10.4 7.68947 8.91053 8.06842 7.53158C8.44737 6.15263 8.97368 5.05263 9.64737 4.23158C10.3316 3.41053 11.1158 3 12 3C12.8842 3 13.6684 3.41053 14.3526 4.23158C15.0368 5.05263 15.5632 6.15263 15.9316 7.53158C16.3105 8.91053 16.5 10.4 16.5 12C16.5 13.6 16.3105 15.0895 15.9316 16.4684C15.5632 17.8474 15.0368 18.9474 14.3526 19.7684C13.6684 20.5895 12.8842 21 12 21C11.1158 21 10.3316 20.5895 9.64737 19.7684C8.97368 18.9474 8.44737 17.8474 8.06842 16.4684C7.68947 15.0895 7.5 13.6 7.5 12ZM9.3 12C9.3 13.3789 9.42632 14.6211 9.67895 15.7263C9.93158 16.8211 10.2632 17.6737 10.6737 18.2842C11.0842 18.8947 11.5263 19.2 12 19.2C12.4737 19.2 12.9158 18.8947 13.3263 18.2842C13.7474 17.6737 14.0789 16.8211 14.3211 15.7263C14.5737 14.6211 14.7 13.3789 14.7 12C14.7 10.6211 14.5737 9.38421 14.3211 8.28947C14.0789 7.18421 13.7474 6.32632 13.3263 5.71579C12.9158 5.10526 12.4737 4.8 12 4.8C11.5263 4.8 11.0842 5.10526 10.6737 5.71579C10.2632 6.32632 9.93158 7.18421 9.67895 8.28947C9.42632 9.38421 9.3 10.6211 9.3 12ZM4.73684 10.2C4.49474 10.2 4.28421 10.1105 4.10526 9.93158C3.92632 9.75263 3.83684 9.54211 3.83684 9.3C3.83684 9.04737 3.92632 8.83684 4.10526 8.66842C4.28421 8.48947 4.49474 8.4 4.73684 8.4H19.2632C19.5158 8.4 19.7316 8.48947 19.9105 8.66842C20.0895 8.83684 20.1789 9.04737 20.1789 9.3C20.1789 9.54211 20.0895 9.75263 19.9105 9.93158C19.7316 10.1105 19.5158 10.2 19.2632 10.2H4.73684ZM4.73684 15.6C4.49474 15.6 4.28421 15.5105 4.10526 15.3316C3.92632 15.1526 3.83684 14.9421 3.83684 14.7C3.83684 14.4474 3.92632 14.2368 4.10526 14.0684C4.28421 13.8895 4.49474 13.8 4.73684 13.8H19.2632C19.5158 13.8 19.7316 13.8895 19.9105 14.0684C20.0895 14.2368 20.1789 14.4474 20.1789 14.7C20.1789 14.9421 20.0895 15.1526 19.9105 15.3316C19.7316 15.5105 19.5158 15.6 19.2632 15.6H4.73684ZM12 19.2C13.3474 19.2 14.5684 18.8842 15.6632 18.2526C16.7684 17.6211 17.6316 16.7579 18.2526 15.6632C18.8842 14.5579 19.2 13.3368 19.2 12C19.2 10.6526 18.8842 9.43158 18.2526 8.33684C17.6316 7.23158 16.7684 6.36842 15.6632 5.74737C14.5684 5.11579 13.3474 4.8 12 4.8C10.6632 4.8 9.4421 5.11579 8.33684 5.74737C7.24211 6.36842 6.37895 7.23158 5.74737 8.33684C5.11579 9.43158 4.8 10.6526 4.8 12C4.8 13.3368 5.11579 14.5579 5.74737 15.6632C6.37895 16.7579 7.24211 17.6211 8.33684 18.2526C9.4421 18.8842 10.6632 19.2 12 19.2ZM12 21C10.3789 21 8.87368 20.6 7.48421 19.8C6.10526 18.9895 5.01053 17.8947 4.2 16.5158C3.4 15.1263 3 13.6211 3 12C3 10.3684 3.4 8.86316 4.2 7.48421C5.01053 6.10526 6.10526 5.01579 7.48421 4.21579C8.87368 3.40526 10.3789 3 12 3C13.6316 3 15.1368 3.40526 16.5158 4.21579C17.8947 5.01579 18.9842 6.11053 19.7842 7.5C20.5947 8.87895 21 10.3789 21 12C21 13.6211 20.5947 15.1263 19.7842 16.5158C18.9842 17.8947 17.8895 18.9895 16.5 19.8C15.1211 20.6 13.6211 21 12 21Z" fill="currentColor"/>
</svg>
