<svg width="current" height="current" viewBox="0 0 24 24" fill="none" xmlns="http://www.w3.org/2000/svg">
<path d="M16.2488 18.8005C16.7854 18.8005 17.2029 18.6514 17.501 18.3533C17.7992 18.0551 17.9483 17.6377 17.9483 17.101V12.0025C17.9483 11.4658 17.7992 11.0484 17.501 10.7502C17.2029 10.4521 16.7854 10.303 16.2488 10.303H7.75124C7.21455 10.303 6.79713 10.4521 6.49897 10.7502C6.20082 11.0484 6.05174 11.4658 6.05174 12.0025V17.101C6.05174 17.6377 6.20082 18.0551 6.49897 18.3533C6.79713 18.6514 7.21455 18.8005 7.75124 18.8005H16.2488ZM7.75124 20.5C7.13505 20.5 6.56358 20.3509 6.03683 20.0528C5.52002 19.7447 5.10757 19.3322 4.79947 18.8154C4.50131 18.2887 4.35223 17.7172 4.35223 17.101V12.0025C4.35223 11.3764 4.50131 10.8049 4.79947 10.2881C5.10757 9.76133 5.52002 9.34887 6.03683 9.05072C6.56358 8.75256 7.13505 8.60348 7.75124 8.60348H16.2488C16.8749 8.60348 17.4464 8.75256 17.9632 9.05072C18.4899 9.34887 18.9024 9.76133 19.2005 10.2881C19.4987 10.8049 19.6478 11.3764 19.6478 12.0025V17.101C19.6478 17.7172 19.4987 18.2887 19.2005 18.8154C18.9024 19.3322 18.4899 19.7447 17.9632 20.0528C17.4464 20.3509 16.8749 20.5 16.2488 20.5H7.75124ZM12 12.8522C12.3081 12.8522 12.5913 12.9317 12.8497 13.0908C13.1082 13.2398 13.3119 13.4436 13.461 13.702C13.62 13.9604 13.6995 14.2436 13.6995 14.5517C13.6995 14.8499 13.62 15.1331 13.461 15.4015C13.3119 15.6599 13.1082 15.8686 12.8497 16.0276C12.5913 16.1767 12.3081 16.2512 12 16.2512C11.7018 16.2512 11.4186 16.1767 11.1502 16.0276C10.8918 15.8686 10.6831 15.6599 10.5241 15.4015C10.375 15.1331 10.3005 14.8499 10.3005 14.5517C10.3005 14.2436 10.375 13.9604 10.5241 13.702C10.6831 13.4436 10.8918 13.2398 11.1502 13.0908C11.4186 12.9317 11.7018 12.8522 12 12.8522ZM15.399 9.45323C15.399 9.68182 15.3145 9.88059 15.1456 10.0495C14.9866 10.2185 14.7878 10.303 14.5493 10.303C14.3207 10.303 14.1219 10.2185 13.9529 10.0495C13.784 9.88059 13.6995 9.68182 13.6995 9.45323V6.90398C13.6995 6.7052 13.6747 6.53625 13.625 6.39711C13.5852 6.25797 13.5156 6.11386 13.4163 5.96478C13.3069 5.80576 13.1926 5.68153 13.0734 5.59208C12.964 5.49269 12.8199 5.40324 12.641 5.32374C12.4721 5.2641 12.3131 5.22435 12.164 5.20447C12.0248 5.1846 11.8609 5.19453 11.672 5.23429C11.4832 5.27404 11.3242 5.3287 11.195 5.39827C11.0658 5.46785 10.9316 5.56723 10.7925 5.69643C10.6434 5.86539 10.4446 5.94987 10.1961 5.94987C9.96755 5.94987 9.76878 5.86539 9.59982 5.69643C9.43087 5.52748 9.34639 5.32871 9.34639 5.10012C9.34639 4.85165 9.43087 4.65288 9.59982 4.5038C10.0669 4.01681 10.6483 3.70374 11.344 3.5646C12.0298 3.4354 12.6808 3.5 13.297 3.7584C13.9231 4.01681 14.435 4.43423 14.8325 5.01067C15.0213 5.27901 15.1605 5.58214 15.2499 5.92005C15.3493 6.24803 15.399 6.576 15.399 6.90398V9.45323Z" fill="currentColor"/>
</svg>
