<svg width="24" height="24" viewBox="0 0 24 24" fill="none" xmlns="http://www.w3.org/2000/svg">
<path d="M17.4444 14.3333C17.4444 14.115 17.5218 13.9331 17.6764 13.7875C17.8311 13.6329 18.013 13.5556 18.2222 13.5556C18.4405 13.5556 18.6225 13.6329 18.768 13.7875C18.9227 13.9331 19 14.115 19 14.3333V15.8889C19 16.4529 18.8635 16.976 18.5906 17.4581C18.3177 17.9311 17.9402 18.3086 17.4581 18.5906C16.9851 18.8635 16.462 19 15.8889 19H8.11111C7.54711 19 7.02404 18.8635 6.54191 18.5906C6.06888 18.3086 5.69136 17.9311 5.40936 17.4581C5.13645 16.976 5 16.4529 5 15.8889V8.11111C5 7.53801 5.13645 7.01494 5.40936 6.54191C5.69136 6.05978 6.06888 5.68226 6.54191 5.40936C7.02404 5.13645 7.54711 5 8.11111 5H9.66667C9.88499 5 10.0669 5.07732 10.2125 5.23197C10.3671 5.37752 10.4444 5.55945 10.4444 5.77778C10.4444 5.987 10.3671 6.16894 10.2125 6.32359C10.0669 6.47823 9.88499 6.55556 9.66667 6.55556H8.11111C7.61988 6.55556 7.23782 6.69201 6.96491 6.96491C6.69201 7.23782 6.55556 7.61988 6.55556 8.11111V15.8889C6.55556 16.3801 6.69201 16.7622 6.96491 17.0351C7.23782 17.308 7.61988 17.4444 8.11111 17.4444H15.8889C16.3801 17.4444 16.7622 17.308 17.0351 17.0351C17.308 16.7622 17.4444 16.3801 17.4444 15.8889V14.3333ZM10.9903 14.1014C10.8538 14.256 10.6719 14.3333 10.4444 14.3333C10.2352 14.3333 10.0533 14.256 9.89864 14.1014C9.74399 13.9467 9.66667 13.7648 9.66667 13.5556C9.66667 13.3281 9.74399 13.1462 9.89864 13.0097L17.6764 5.23197C17.822 5.07732 18.0039 5 18.2222 5C18.4405 5 18.6225 5.07732 18.768 5.23197C18.9227 5.37752 19 5.55945 19 5.77778C19 5.9961 18.9227 6.17804 18.768 6.32359L10.9903 14.1014ZM19 10.4444C19 10.6537 18.9227 10.8356 18.768 10.9903C18.6225 11.1449 18.4405 11.2222 18.2222 11.2222C18.013 11.2222 17.8311 11.1449 17.6764 10.9903C17.5218 10.8356 17.4444 10.6537 17.4444 10.4444V5.88694C17.4444 5.84146 17.5081 5.87784 17.6355 5.9961C17.7719 6.10526 17.8947 6.22807 18.0039 6.36452C18.1222 6.49188 18.1585 6.55556 18.1131 6.55556H13.5556C13.3463 6.55556 13.1644 6.47823 13.0097 6.32359C12.8551 6.16894 12.7778 5.987 12.7778 5.77778C12.7778 5.55945 12.8551 5.37752 13.0097 5.23197C13.1644 5.07732 13.3463 5 13.5556 5H18.1131C18.3587 5 18.5679 5.08642 18.7407 5.25926C18.9136 5.4321 19 5.64133 19 5.88694V10.4444Z" fill="black"/>
</svg>
