<svg width="current" height="current" viewBox="0 0 24 24" fill="none" xmlns="http://www.w3.org/2000/svg">
<path d="M12.7273 8.36364C12.7273 7.92982 12.6337 7.5513 12.4466 7.22807C12.2679 6.89633 12.0128 6.64115 11.681 6.46252C11.3578 6.27539 10.9793 6.18182 10.5455 6.18182C10.1201 6.18182 9.74163 6.27539 9.40989 6.46252C9.07815 6.64115 8.81871 6.89633 8.63158 7.22807C8.45295 7.5513 8.36364 7.92982 8.36364 8.36364C8.36364 8.78894 8.45295 9.16746 8.63158 9.4992C8.81871 9.83094 9.07815 10.0904 9.40989 10.2775C9.74163 10.4561 10.1201 10.5455 10.5455 10.5455C10.9793 10.5455 11.3578 10.4561 11.681 10.2775C12.0128 10.0904 12.2679 9.83094 12.4466 9.4992C12.6337 9.16746 12.7273 8.78894 12.7273 8.36364ZM14.1818 8.36364C14.1818 9.01861 14.0202 9.62679 13.697 10.1882C13.3737 10.7411 12.9314 11.1834 12.37 11.5152C11.8171 11.8384 11.2089 12 10.5455 12C9.89048 12 9.2823 11.8384 8.72089 11.5152C8.168 11.1834 7.72568 10.7411 7.39394 10.1882C7.07071 9.62679 6.90909 9.01861 6.90909 8.36364C6.90909 7.70016 7.07071 7.09197 7.39394 6.53907C7.72568 5.97767 8.168 5.53535 8.72089 5.21212C9.2823 4.88889 9.89048 4.72727 10.5455 4.72727C11.2089 4.72727 11.8171 4.88889 12.37 5.21212C12.9314 5.53535 13.3737 5.97767 13.697 6.53907C14.0202 7.09197 14.1818 7.70016 14.1818 8.36364ZM10.5455 14.1818C9.55875 14.1818 8.67836 14.2839 7.90431 14.488C7.13025 14.6837 6.52632 14.9474 6.0925 15.2791C5.6672 15.6108 5.45455 15.9724 5.45455 16.3636C5.45455 16.6528 5.51409 16.908 5.63317 17.1292C5.75226 17.3503 5.92238 17.5205 6.14354 17.6396C6.3647 17.7586 6.61988 17.8182 6.90909 17.8182H14.1818C14.4795 17.8182 14.739 17.7586 14.9601 17.6396C15.1813 17.5205 15.3472 17.3503 15.4577 17.1292C15.5768 16.908 15.6364 16.6528 15.6364 16.3636C15.6364 15.9724 15.4195 15.6108 14.9856 15.2791C14.5603 14.9474 13.9607 14.6837 13.1866 14.488C12.4125 14.2839 11.5322 14.1818 10.5455 14.1818ZM10.5455 12.7273C11.7108 12.7273 12.7911 12.8804 13.7863 13.1866C14.79 13.4928 15.5896 13.9224 16.185 14.4753C16.7889 15.0282 17.0909 15.6576 17.0909 16.3636C17.0909 16.8825 16.9591 17.3674 16.6954 17.8182C16.4402 18.2605 16.0872 18.6135 15.6364 18.8772C15.194 19.1409 14.7092 19.2727 14.1818 19.2727H6.90909C6.39022 19.2727 5.90537 19.1409 5.45455 18.8772C5.01223 18.6135 4.65922 18.2605 4.39553 17.8182C4.13184 17.3674 4 16.8825 4 16.3636C4 15.6576 4.29771 15.0282 4.89314 14.4753C5.49708 13.9224 6.29665 13.4928 7.29187 13.1866C8.29559 12.8804 9.38012 12.7273 10.5455 12.7273ZM16.3636 9.09091C16.3636 8.88676 16.4359 8.71664 16.5805 8.58054C16.7251 8.43594 16.8953 8.36364 17.0909 8.36364C17.2951 8.36364 17.4652 8.43594 17.6013 8.58054C17.7459 8.71664 17.8182 8.88676 17.8182 9.09091V13.4545C17.8182 13.6502 17.7459 13.8203 17.6013 13.9649C17.4652 14.1095 17.2951 14.1818 17.0909 14.1818C16.8953 14.1818 16.7251 14.1095 16.5805 13.9649C16.4359 13.8203 16.3636 13.6502 16.3636 13.4545V9.09091ZM14.9091 12C14.7135 12 14.5433 11.9277 14.3987 11.7831C14.2541 11.6385 14.1818 11.4684 14.1818 11.2727C14.1818 11.0686 14.2541 10.8985 14.3987 10.7624C14.5433 10.6178 14.7135 10.5455 14.9091 10.5455H19.2727C19.4769 10.5455 19.647 10.6178 19.7831 10.7624C19.9277 10.8985 20 11.0686 20 11.2727C20 11.4684 19.9277 11.6385 19.7831 11.7831C19.647 11.9277 19.4769 12 19.2727 12H14.9091Z" fill="currentColor"/>
</svg>
