<svg width="current" height="current" viewBox="0 0 24 24" fill="none" xmlns="http://www.w3.org/2000/svg">
<path d="M11.5895 4.8C11.3263 4.8 11.1368 4.84211 11.0211 4.92632C10.9158 5.01053 10.8368 5.17368 10.7842 5.41579L10.7526 5.57368C10.679 5.91053 10.5316 6.22632 10.3105 6.52105C10.1 6.80526 9.82106 7.04211 9.47369 7.23158C9.30527 7.32632 9.2158 7.37895 9.20527 7.38947C8.86843 7.6 8.5158 7.73158 8.14737 7.78421C7.77895 7.83684 7.42632 7.81053 7.08948 7.70526L6.71053 7.57895C6.55264 7.53684 6.42106 7.54737 6.3158 7.61053C6.22106 7.66316 6.10527 7.8 5.96843 8.02105L5.5579 8.76316C5.43159 8.99474 5.37369 9.17895 5.38422 9.31579C5.40527 9.45263 5.51053 9.60526 5.70001 9.77368L5.84211 9.9C6.10527 10.1526 6.30001 10.4421 6.42632 10.7684C6.56316 11.0842 6.62106 11.4316 6.60001 11.8105V12.2053C6.62106 12.9632 6.36843 13.5895 5.84211 14.0842L5.54211 14.3842C5.4158 14.4895 5.35264 14.6 5.35264 14.7158C5.35264 14.8316 5.4158 15 5.54211 15.2211L5.98422 15.9789C6.11053 16.2 6.23685 16.3368 6.36316 16.3895C6.48948 16.4316 6.67895 16.4105 6.93158 16.3263L7.10527 16.2789C7.44211 16.1737 7.78948 16.1474 8.14737 16.2C8.50527 16.2526 8.83685 16.3842 9.14211 16.5947L9.44211 16.7526C9.80001 16.9526 10.0842 17.1947 10.2947 17.4789C10.5158 17.7526 10.6684 18.0526 10.7526 18.3789L10.8474 18.7737C10.8684 18.8895 10.9 18.9789 10.9421 19.0421C10.9947 19.0947 11.0737 19.1368 11.179 19.1684C11.2842 19.1895 11.4211 19.2 11.5895 19.2H12.4105C12.6737 19.2 12.8579 19.1579 12.9632 19.0737C13.079 18.9895 13.1632 18.8211 13.2158 18.5684L13.2474 18.4105C13.4158 17.6947 13.8526 17.1421 14.5579 16.7526C14.7053 16.6789 14.7947 16.6263 14.8263 16.5947C15.1632 16.3842 15.5105 16.2579 15.8684 16.2158C16.2263 16.1632 16.5684 16.1842 16.8947 16.2789L17.2737 16.3895C17.4421 16.4421 17.5737 16.4474 17.6684 16.4053C17.7632 16.3526 17.879 16.2211 18.0158 16.0105L18.0316 15.9632L18.4421 15.2368C18.579 15.0053 18.6368 14.8211 18.6158 14.6842C18.5947 14.5474 18.4947 14.3947 18.3158 14.2263L18.1737 14.1C17.9 13.8474 17.6947 13.5579 17.5579 13.2316C17.4316 12.9053 17.379 12.5579 17.4 12.1895V11.7947C17.379 11.0368 17.6316 10.4105 18.1579 9.91579L18.4737 9.61579C18.5895 9.51053 18.6474 9.4 18.6474 9.28421C18.6579 9.16842 18.5947 8.99474 18.4579 8.76316L18.0158 8.02105C17.9 7.8 17.7737 7.66842 17.6368 7.62632C17.5105 7.57368 17.3211 7.58947 17.0684 7.67368L16.9105 7.72105C16.5842 7.81579 16.2368 7.83684 15.8684 7.78421C15.5 7.73158 15.1474 7.6 14.8105 7.38947C14.7474 7.34737 14.6579 7.29474 14.5421 7.23158C14.1842 7.04211 13.8947 6.8 13.6737 6.50526C13.4632 6.21053 13.3211 5.89474 13.2474 5.5579L13.1684 5.17895C13.1474 5.03158 13.0842 4.93158 12.979 4.87895C12.8842 4.82632 12.6947 4.8 12.4105 4.8H11.5895ZM12.4105 3C13.0632 3 13.6158 3.17368 14.0684 3.52105C14.5316 3.85789 14.8211 4.28947 14.9368 4.81579L15.0158 5.19474C15.0368 5.31053 15.0684 5.39474 15.1105 5.44737C15.1632 5.5 15.2684 5.56842 15.4263 5.65263L15.5368 5.73158C15.6526 5.78421 15.7421 5.83684 15.8053 5.88947C15.9421 5.97368 16.0421 6.02105 16.1053 6.03158C16.1684 6.04211 16.2632 6.02632 16.3895 5.98421L16.5316 5.93684C17.1316 5.74737 17.7158 5.76316 18.2842 5.98421C18.8526 6.20526 19.2895 6.58947 19.5947 7.13684L20.0053 7.86316C20.3211 8.4 20.4474 8.9579 20.3842 9.53684C20.3211 10.1053 20.0895 10.5737 19.6895 10.9421L19.3895 11.2105C19.3053 11.2947 19.2474 11.3684 19.2158 11.4316C19.1947 11.4947 19.1895 11.6053 19.2 11.7632V12.3158C19.1895 12.4211 19.1947 12.5053 19.2158 12.5684C19.2474 12.6316 19.3053 12.7 19.3895 12.7737L19.5316 12.9C19.9842 13.3316 20.2526 13.8421 20.3368 14.4316C20.4316 15.0105 20.3263 15.5737 20.0211 16.1211L19.579 16.8632C19.2737 17.4 18.8579 17.7842 18.3316 18.0158C17.8158 18.2474 17.2947 18.2842 16.7684 18.1263L16.3895 18.0158C16.2737 17.9737 16.1842 17.9579 16.1211 17.9684C16.0579 17.9789 15.9579 18.0211 15.8211 18.0947L15.5211 18.2842L15.3947 18.3632C15.2579 18.4368 15.1632 18.5 15.1105 18.5526C15.0684 18.6053 15.0368 18.6842 15.0158 18.7895L14.9842 18.9316C14.8579 19.5526 14.5526 20.0526 14.0684 20.4316C13.5947 20.8105 13.0421 21 12.4105 21H11.5895C10.9684 21 10.4263 20.8316 9.96316 20.4947C9.50001 20.1579 9.20527 19.7211 9.07895 19.1842L9.00001 18.8211C8.96843 18.6947 8.92632 18.6053 8.87369 18.5526C8.83159 18.5 8.74211 18.4368 8.60527 18.3632L8.19474 18.1105C8.06843 18.0263 7.96843 17.9789 7.89474 17.9684C7.83159 17.9579 7.74211 17.9737 7.62632 18.0158L7.46843 18.0632C6.87895 18.2421 6.29474 18.2263 5.7158 18.0158C5.14737 17.7947 4.71053 17.4105 4.40527 16.8632L3.99474 16.1211C3.67895 15.5842 3.55264 15.0316 3.6158 14.4632C3.67895 13.8947 3.9158 13.4263 4.32632 13.0579L4.61053 12.7895C4.70527 12.6947 4.76316 12.6211 4.78422 12.5684C4.80527 12.5053 4.81053 12.3947 4.80001 12.2368V11.6684C4.81053 11.5632 4.80001 11.4842 4.76843 11.4316C4.74737 11.3684 4.70001 11.3 4.62632 11.2263L4.48422 11.1C4.02106 10.6684 3.74211 10.1579 3.64737 9.56842C3.56316 8.97895 3.67369 8.41579 3.97895 7.87895L4.42106 7.12105C4.73685 6.57368 5.1579 6.18947 5.68422 5.96842C6.21053 5.73684 6.73159 5.70526 7.24737 5.87368L7.62632 6C7.74211 6.03158 7.83159 6.04211 7.89474 6.03158C7.96843 6.02105 8.06843 5.97368 8.19474 5.88947C8.23685 5.8579 8.27895 5.83158 8.32106 5.81053C8.37369 5.78947 8.42106 5.76316 8.46316 5.73158L8.58948 5.65263C8.74737 5.56842 8.84737 5.5 8.88948 5.44737C8.94211 5.39474 8.97369 5.31579 8.98422 5.21053L9.0158 5.05263C9.15264 4.44211 9.4579 3.94737 9.93159 3.56842C10.4053 3.18947 10.9579 3 11.5895 3H12.4105ZM8.40001 12C8.40001 11.3474 8.56316 10.7474 8.88948 10.2C9.2158 9.64211 9.65264 9.20526 10.2 8.88947C10.7579 8.56316 11.3579 8.4 12 8.4C12.6526 8.4 13.2526 8.56316 13.8 8.88947C14.3579 9.20526 14.7947 9.64211 15.1105 10.2C15.4368 10.7474 15.6 11.3474 15.6 12C15.6 12.6421 15.4368 13.2421 15.1105 13.8C14.7947 14.3474 14.3579 14.7842 13.8 15.1105C13.2526 15.4368 12.6526 15.6 12 15.6C11.3579 15.6 10.7579 15.4368 10.2 15.1105C9.65264 14.7842 9.2158 14.3474 8.88948 13.8C8.56316 13.2421 8.40001 12.6421 8.40001 12ZM10.2 12C10.2 12.3579 10.2737 12.6737 10.4211 12.9474C10.5684 13.2211 10.779 13.4316 11.0526 13.5789C11.3263 13.7263 11.6421 13.8 12 13.8C12.3684 13.8 12.6895 13.7263 12.9632 13.5789C13.2368 13.4316 13.4421 13.2211 13.579 12.9474C13.7263 12.6737 13.8 12.3579 13.8 12C13.8 11.6316 13.7263 11.3105 13.579 11.0368C13.4421 10.7632 13.2368 10.5579 12.9632 10.4211C12.6895 10.2737 12.3684 10.2 12 10.2C11.6421 10.2 11.3263 10.2737 11.0526 10.4211C10.779 10.5579 10.5684 10.7632 10.4211 11.0368C10.2737 11.3105 10.2 11.6316 10.2 12Z" fill="currentColor"/>
</svg>
