<svg width="24" height="24" viewBox="0 0 24 24" fill="none" xmlns="http://www.w3.org/2000/svg">
<path d="M11.0556 16.7222C12.1381 16.7222 13.1101 16.4792 13.9717 15.9932C14.8333 15.4961 15.5071 14.8168 15.9932 13.9552C16.4792 13.0936 16.7222 12.127 16.7222 11.0556C16.7222 9.97303 16.4792 9.00097 15.9932 8.13938C15.5071 7.27778 14.8333 6.60396 13.9717 6.11793C13.1101 5.6319 12.1381 5.38889 11.0556 5.38889C9.98408 5.38889 9.01754 5.6319 8.15595 6.11793C7.29435 6.60396 6.61501 7.27778 6.11793 8.13938C5.6319 9.00097 5.38889 9.97303 5.38889 11.0556C5.38889 12.127 5.6319 13.0936 6.11793 13.9552C6.61501 14.8168 7.29435 15.4961 8.15595 15.9932C9.01754 16.4792 9.98408 16.7222 11.0556 16.7222ZM11.0556 18.6111C9.68583 18.6111 8.42105 18.2742 7.26121 17.6004C6.10136 16.9266 5.18454 16.0097 4.51072 14.8499C3.83691 13.6901 3.5 12.4253 3.5 11.0556C3.5 9.67479 3.83691 8.41001 4.51072 7.26121C5.18454 6.10136 6.10136 5.18454 7.26121 4.51072C8.42105 3.83691 9.68583 3.5 11.0556 3.5C12.4363 3.5 13.7011 3.83691 14.8499 4.51072C16.0097 5.18454 16.9266 6.10136 17.6004 7.26121C18.2742 8.42105 18.6111 9.68583 18.6111 11.0556C18.6111 12.4253 18.2742 13.6901 17.6004 14.8499C16.9266 16.0097 16.0097 16.9266 14.8499 17.6004C13.6901 18.2742 12.4253 18.6111 11.0556 18.6111ZM20.2183 18.8928C20.4061 19.0585 20.5 19.2794 20.5 19.5556C20.5 19.8096 20.4061 20.0305 20.2183 20.2183C20.0416 20.4061 19.8207 20.5 19.5556 20.5C19.2904 20.5 19.0695 20.4061 18.8928 20.2183L15.115 16.4405C14.9272 16.2749 14.8333 16.0539 14.8333 15.7778C14.8333 15.5127 14.9272 15.2917 15.115 15.115C15.3028 14.9272 15.5237 14.8333 15.7778 14.8333C16.0539 14.8333 16.2749 14.9272 16.4405 15.115L20.2183 18.8928ZM8.22222 12C7.96816 12 7.74724 11.9061 7.55945 11.7183C7.37167 11.5305 7.27778 11.3096 7.27778 11.0556C7.27778 10.7904 7.37167 10.5695 7.55945 10.3928C7.74724 10.205 7.96816 10.1111 8.22222 10.1111H13.8889C14.154 10.1111 14.3749 10.205 14.5517 10.3928C14.7394 10.5695 14.8333 10.7904 14.8333 11.0556C14.8333 11.3096 14.7394 11.5305 14.5517 11.7183C14.3749 11.9061 14.154 12 13.8889 12H8.22222Z" fill="black"/>
</svg>
