<svg width="current" height="current" viewBox="0 0 24 24" fill="none" xmlns="http://www.w3.org/2000/svg">
<path d="M12.6667 17.3333C12.6667 17.5127 12.6004 17.6686 12.4678 17.8012C12.3431 17.9337 12.1871 18 12 18C11.8207 18 11.6647 17.9337 11.5322 17.8012C11.3996 17.6686 11.3333 17.5127 11.3333 17.3333V6.66667C11.3333 6.47953 11.3996 6.32359 11.5322 6.19883C11.6647 6.06628 11.8207 6 12 6C12.1871 6 12.3431 6.06628 12.4678 6.19883C12.6004 6.32359 12.6667 6.47953 12.6667 6.66667V17.3333ZM16.1988 12.1988C16.3236 12.0663 16.4795 12 16.6667 12C16.8538 12 17.0098 12.0663 17.1345 12.1988C17.2671 12.3236 17.3333 12.4795 17.3333 12.6667C17.3333 12.8538 17.2671 13.0097 17.1345 13.1345L12.538 17.731C12.3977 17.8713 12.2183 17.9415 12 17.9415C11.7895 17.9415 11.6101 17.8713 11.462 17.731L6.8655 13.1345C6.73295 13.0097 6.66667 12.8538 6.66667 12.6667C6.66667 12.4795 6.73295 12.3236 6.8655 12.1988C6.99806 12.0663 7.154 12 7.33334 12C7.52827 12 7.68422 12.0663 7.80117 12.1988L12.3977 16.7953C12.4367 16.8343 12.3782 16.8616 12.2222 16.8772C12.0741 16.8928 11.922 16.8928 11.7661 16.8772C11.6179 16.8616 11.5634 16.8343 11.6023 16.7953L16.1988 12.1988Z" fill="currentColor"/>
</svg>
