<svg width="current" height="current" viewBox="0 0 24 24" fill="none" xmlns="http://www.w3.org/2000/svg">
<path d="M12.1467 15.9946C12.3315 16.1576 12.4239 16.375 12.4239 16.6467C12.4239 16.8967 12.3315 17.1141 12.1467 17.2989C11.9728 17.4837 11.7554 17.5761 11.4946 17.5761C11.2337 17.5761 11.0163 17.4837 10.8424 17.2989L6.29348 12.75C6.09783 12.5435 6 12.2935 6 12C6 11.6957 6.09783 11.4457 6.29348 11.25L10.8424 6.70109C11.0163 6.51631 11.2337 6.42392 11.4946 6.42392C11.7554 6.42392 11.9728 6.51631 12.1467 6.70109C12.3315 6.87501 12.4239 7.0924 12.4239 7.35327C12.4239 7.61414 12.3315 7.83153 12.1467 8.00544L7.59783 12.5544C7.54348 12.6087 7.50544 12.5326 7.4837 12.3261C7.46196 12.1087 7.46196 11.8967 7.4837 11.6902C7.50544 11.4728 7.54348 11.3913 7.59783 11.4457L12.1467 15.9946ZM17.7228 15.9946C17.9076 16.1576 18 16.375 18 16.6467C18 16.8967 17.9076 17.1141 17.7228 17.2989C17.5489 17.4837 17.3315 17.5761 17.0707 17.5761C16.8098 17.5761 16.5924 17.4837 16.4185 17.2989L11.8696 12.75C11.6739 12.5435 11.5761 12.2935 11.5761 12C11.5761 11.6957 11.6739 11.4457 11.8696 11.25L16.4185 6.70109C16.5924 6.51631 16.8098 6.42392 17.0707 6.42392C17.3315 6.42392 17.5489 6.51631 17.7228 6.70109C17.9076 6.87501 18 7.0924 18 7.35327C18 7.61414 17.9076 7.83153 17.7228 8.00544L13.1739 12.5544C13.1196 12.6087 13.0815 12.5326 13.0598 12.3261C13.038 12.1087 13.038 11.8967 13.0598 11.6902C13.0815 11.4728 13.1196 11.3913 13.1739 11.4457L17.7228 15.9946Z" fill="currentColor"/>
</svg>
