<svg width="24" height="24" viewBox="0 0 24 24" fill="none" xmlns="http://www.w3.org/2000/svg">
<path d="M8.01086 12.1547C7.84803 12.3392 7.63094 12.4315 7.35957 12.4315C7.10991 12.4315 6.89281 12.3392 6.70828 12.1547C6.52375 11.9701 6.43148 11.7531 6.43148 11.5034C6.43148 11.232 6.52375 11.0149 6.70828 10.8521L11.251 6.30936C11.4573 6.10312 11.7069 6 12 6C12.3039 6 12.5536 6.10312 12.749 6.30936L17.2917 10.8521C17.4763 11.0149 17.5685 11.232 17.5685 11.5034C17.5685 11.7531 17.4763 11.9701 17.2917 12.1547C17.118 12.3392 16.901 12.4315 16.6404 12.4315C16.3799 12.4315 16.1628 12.3392 15.9891 12.1547L11.4464 7.61194C11.3921 7.55767 11.4681 7.51968 11.6744 7.49797C11.8915 7.47626 12.1031 7.47626 12.3094 7.49797C12.5265 7.51968 12.6079 7.55767 12.5536 7.61194L8.01086 12.1547ZM8.01086 17.7232C7.84803 17.9077 7.63094 18 7.35957 18C7.10991 18 6.89281 17.9077 6.70828 17.7232C6.52375 17.5387 6.43148 17.3216 6.43148 17.0719C6.43148 16.8005 6.52375 16.5834 6.70828 16.4206L11.251 11.8779C11.4573 11.6716 11.7069 11.5685 12 11.5685C12.3039 11.5685 12.5536 11.6716 12.749 11.8779L17.2917 16.4206C17.4763 16.5834 17.5685 16.8005 17.5685 17.0719C17.5685 17.3216 17.4763 17.5387 17.2917 17.7232C17.118 17.9077 16.901 18 16.6404 18C16.3799 18 16.1628 17.9077 15.9891 17.7232L11.4464 13.1805C11.3921 13.1262 11.4681 13.0882 11.6744 13.0665C11.8915 13.0448 12.1031 13.0448 12.3094 13.0665C12.5265 13.0882 12.6079 13.1262 12.5536 13.1805L8.01086 17.7232Z" fill="black"/>
</svg>
