<svg width="24" height="24" viewBox="0 0 24 24" fill="none" xmlns="http://www.w3.org/2000/svg">
<path d="M17.7771 10.0805C17.9257 10.2126 18 10.3818 18 10.5882C18 10.7781 17.9298 10.9432 17.7895 11.0836C17.6574 11.2239 17.4923 11.2941 17.2941 11.2941C17.1042 11.2941 16.9432 11.2281 16.8111 11.096L14.644 9.01547C14.2147 8.60268 13.7523 8.29308 13.257 8.08668C12.7699 7.87203 12.2332 7.7647 11.6471 7.7647C10.8462 7.7647 10.1238 7.94633 9.47988 8.30959C8.83591 8.67285 8.32817 9.17646 7.95666 9.82043C7.5934 10.4644 7.41176 11.1909 7.41176 12C7.41176 12.8008 7.5934 13.5232 7.95666 14.1672C8.32817 14.8111 8.83591 15.3189 9.47988 15.6904C10.1238 16.0537 10.8462 16.2353 11.6471 16.2353C12.258 16.2353 12.8029 16.1321 13.2817 15.9257C13.7688 15.7193 14.2229 15.4056 14.644 14.9845C14.7926 14.8524 14.9577 14.7864 15.1393 14.7864C15.3375 14.7864 15.5026 14.8565 15.6347 14.9969C15.775 15.129 15.8452 15.2941 15.8452 15.4923C15.8452 15.6904 15.775 15.8596 15.6347 16C15.098 16.5201 14.4912 16.9247 13.8142 17.2136C13.1455 17.5026 12.4231 17.6471 11.6471 17.6471C10.6233 17.6471 9.67802 17.3952 8.81115 16.8916C7.94427 16.388 7.25903 15.7028 6.75542 14.8359C6.25181 13.969 6 13.0237 6 12C6 10.968 6.25181 10.0227 6.75542 9.16408C7.25903 8.29721 7.94427 7.61196 8.81115 7.10835C9.67802 6.60474 10.6233 6.35294 11.6471 6.35294C12.4066 6.35294 13.1207 6.50154 13.7895 6.79876C14.4665 7.08771 15.0733 7.48813 15.6099 7.99999L17.7771 10.0805ZM14.4706 11.2941C14.2807 11.2941 14.1156 11.2239 13.9752 11.0836C13.8349 10.9432 13.7647 10.7781 13.7647 10.5882C13.7647 10.3901 13.8349 10.225 13.9752 10.0929C14.1156 9.95252 14.2807 9.88235 14.4706 9.88235H17.195C17.2363 9.88235 17.2033 9.94427 17.096 10.0681C16.9969 10.1837 16.8854 10.2951 16.7616 10.4025C16.646 10.5015 16.5882 10.5304 16.5882 10.4892V7.7647C16.5882 7.56656 16.6584 7.40144 16.7988 7.26934C16.9391 7.12899 17.1042 7.05882 17.2941 7.05882C17.4923 7.05882 17.6574 7.12899 17.7895 7.26934C17.9298 7.40144 18 7.56656 18 7.7647V10.4892C18 10.7121 17.9216 10.902 17.7647 11.0588C17.6078 11.2157 17.418 11.2941 17.195 11.2941H14.4706Z" fill="black"/>
</svg>
