<svg width="current" height="current" viewBox="0 0 24 24" fill="none" xmlns="http://www.w3.org/2000/svg">
<path d="M7.79999 18.3C7.79999 18.4883 7.7304 18.652 7.59122 18.7912C7.46023 18.9304 7.29649 19 7.09999 19C6.91169 19 6.74795 18.9304 6.60877 18.7912C6.46958 18.652 6.39999 18.4883 6.39999 18.3V7.8C6.39999 7.28421 6.5228 6.81345 6.76841 6.38772C7.02222 5.9538 7.36198 5.61404 7.78771 5.36842C8.22163 5.12281 8.69239 5 9.19999 5H14.8C15.3158 5 15.7865 5.12281 16.2123 5.36842C16.6462 5.61404 16.986 5.9538 17.2316 6.38772C17.4772 6.81345 17.6 7.28421 17.6 7.8V18.3C17.6 18.4883 17.5304 18.652 17.3912 18.7912C17.2602 18.9304 17.0965 19 16.9 19C16.7117 19 16.5479 18.9304 16.4088 18.7912C16.2696 18.652 16.2 18.4883 16.2 18.3V7.8C16.2 7.35789 16.0772 7.01404 15.8316 6.76842C15.586 6.52281 15.2421 6.4 14.8 6.4H9.19999C8.75789 6.4 8.41403 6.52281 8.16841 6.76842C7.9228 7.01404 7.79999 7.35789 7.79999 7.8V18.3ZM17.2561 17.6982C17.3626 17.7556 17.4444 17.8374 17.5017 17.9439C17.5672 18.0503 17.6 18.169 17.6 18.3C17.6 18.4883 17.5304 18.652 17.3912 18.7912C17.2602 18.9304 17.0965 19 16.9 19C16.7854 19 16.6708 18.9673 16.5561 18.9018L12 16.2982L7.45613 18.9018C7.33333 18.9673 7.21461 19 7.09999 19C6.91169 19 6.74795 18.9304 6.60877 18.7912C6.46958 18.652 6.39999 18.4883 6.39999 18.3C6.39999 18.169 6.42865 18.0503 6.48596 17.9439C6.55146 17.8374 6.64151 17.7556 6.75613 17.6982L12 14.6895L17.2561 17.6982Z" fill="currentColor"/>
</svg>
