<svg width="24" height="24" viewBox="0 0 24 24" fill="none" xmlns="http://www.w3.org/2000/svg">
<path d="M7.1864 8.0636C7.06213 7.94664 7 7.80044 7 7.625C7 7.44956 7.06213 7.30336 7.1864 7.1864C7.31067 7.06213 7.45687 7 7.625 7C7.80775 7 7.95395 7.06213 8.0636 7.1864L16.8136 15.9364C16.9379 16.0461 17 16.1923 17 16.375C17 16.5431 16.9379 16.6893 16.8136 16.8136C16.6966 16.9379 16.5504 17 16.375 17C16.1996 17 16.0534 16.9379 15.9364 16.8136L7.1864 8.0636ZM15.9364 7.1864C16.0534 7.06213 16.1996 7 16.375 7C16.5504 7 16.6966 7.06213 16.8136 7.1864C16.9379 7.30336 17 7.44956 17 7.625C17 7.80044 16.9379 7.94664 16.8136 8.0636L8.0636 16.8136C7.95395 16.9379 7.80775 17 7.625 17C7.45687 17 7.31067 16.9379 7.1864 16.8136C7.06213 16.6893 7 16.5431 7 16.375C7 16.1923 7.06213 16.0461 7.1864 15.9364L15.9364 7.1864Z" fill="black"/>
</svg>
