<svg width="current" height="current" viewBox="0 0 24 24" fill="none" xmlns="http://www.w3.org/2000/svg">
<path d="M12.5649 7.19825C12.655 7.32924 12.7 7.46842 12.7 7.61579C12.7 7.80409 12.6304 7.96784 12.4912 8.10702C12.3602 8.2462 12.1965 8.31579 12 8.31579C11.7626 8.31579 11.5743 8.22164 11.4351 8.03333C11.1567 7.66491 10.8333 7.38655 10.4649 7.19825C10.0965 7.00994 9.67485 6.91579 9.2 6.91579C8.66784 6.91579 8.18889 7.0345 7.76316 7.27193C7.33743 7.50936 7.00175 7.84094 6.75614 8.26667C6.51871 8.6924 6.4 9.17544 6.4 9.71579C6.4 11.2959 6.85848 12.6713 7.77544 13.8421C8.6924 15.0047 9.76082 15.9708 10.9807 16.7404C11.3737 16.986 11.7135 17.1088 12 17.1088C12.2947 17.1088 12.6345 16.986 13.0193 16.7404C14.2392 15.9708 15.3076 15.0047 16.2246 13.8421C17.1415 12.6713 17.6 11.2959 17.6 9.71579C17.6 9.17544 17.4813 8.6924 17.2439 8.26667C17.0064 7.84094 16.6749 7.50936 16.2491 7.27193C15.8234 7.0345 15.3404 6.91579 14.8 6.91579C14.3251 6.91579 13.9035 7.00994 13.5351 7.19825C13.1667 7.38655 12.8433 7.66491 12.5649 8.03333C12.4257 8.22164 12.2374 8.31579 12 8.31579C11.8117 8.31579 11.648 8.2462 11.5088 8.10702C11.3696 7.96784 11.3 7.80409 11.3 7.61579C11.3 7.46842 11.345 7.32924 11.4351 7.19825C11.8281 6.68246 12.3193 6.2731 12.9088 5.97018C13.4982 5.66725 14.1287 5.51579 14.8 5.51579C15.5614 5.51579 16.2614 5.70409 16.9 6.0807C17.5468 6.45731 18.0585 6.96901 18.4351 7.61579C18.8117 8.25439 19 8.95439 19 9.71579C19 11.5906 18.4637 13.2117 17.3912 14.5789C16.3269 15.9462 15.1234 17.0596 13.7807 17.9193C13.1912 18.2959 12.5977 18.4842 12 18.4842C11.4023 18.4842 10.8088 18.2959 10.2193 17.9193C8.87661 17.0596 7.66901 15.9462 6.59649 14.5789C5.53216 13.2117 5 11.5906 5 9.71579C5 8.95439 5.1883 8.25439 5.56491 7.61579C5.94152 6.96901 6.45322 6.45731 7.1 6.0807C7.74678 5.70409 8.44678 5.51579 9.2 5.51579C9.87134 5.51579 10.5018 5.66725 11.0912 5.97018C11.6807 6.2731 12.1719 6.68246 12.5649 7.19825Z" fill="currentColor"/>
</svg>
