<svg width="current" height="current" viewBox="0 0 24 24" fill="none" xmlns="http://www.w3.org/2000/svg">
<path d="M12.7273 6.18182C12.7273 6.37746 12.655 6.54758 12.5104 6.69218C12.3743 6.83679 12.2041 6.90909 12 6.90909C11.8044 6.90909 11.6342 6.83679 11.4896 6.69218C11.345 6.54758 11.2727 6.37746 11.2727 6.18182V4.72727C11.2727 4.52313 11.345 4.353 11.4896 4.21691C11.6342 4.0723 11.8044 4 12 4C12.2041 4 12.3743 4.0723 12.5104 4.21691C12.655 4.353 12.7273 4.52313 12.7273 4.72727V6.18182ZM12.7273 19.2727C12.7273 19.4684 12.655 19.6385 12.5104 19.7831C12.3743 19.9277 12.2041 20 12 20C11.8044 20 11.6342 19.9277 11.4896 19.7831C11.345 19.6385 11.2727 19.4684 11.2727 19.2727V17.8182C11.2727 17.614 11.345 17.4439 11.4896 17.3078C11.6342 17.1632 11.8044 17.0909 12 17.0909C12.2041 17.0909 12.3743 17.1632 12.5104 17.3078C12.655 17.4439 12.7273 17.614 12.7273 17.8182V19.2727ZM19.2727 11.2727C19.4769 11.2727 19.647 11.345 19.7831 11.4896C19.9277 11.6257 20 11.7959 20 12C20 12.1956 19.9277 12.3658 19.7831 12.5104C19.647 12.655 19.4769 12.7273 19.2727 12.7273H17.8182C17.6225 12.7273 17.4524 12.655 17.3078 12.5104C17.1632 12.3658 17.0909 12.1956 17.0909 12C17.0909 11.7959 17.1632 11.6257 17.3078 11.4896C17.4524 11.345 17.6225 11.2727 17.8182 11.2727H19.2727ZM6.18182 11.2727C6.38596 11.2727 6.55609 11.345 6.69219 11.4896C6.83679 11.6257 6.90909 11.7959 6.90909 12C6.90909 12.1956 6.83679 12.3658 6.69219 12.5104C6.55609 12.655 6.38596 12.7273 6.18182 12.7273H4.72727C4.53163 12.7273 4.36151 12.655 4.21691 12.5104C4.0723 12.3658 4 12.1956 4 12C4 11.7959 4.0723 11.6257 4.21691 11.4896C4.36151 11.345 4.53163 11.2727 4.72727 11.2727H6.18182ZM9.09091 12C9.09091 11.4726 9.22275 10.9878 9.48644 10.5455C9.75013 10.0946 10.1031 9.74163 10.5455 9.48644C10.9878 9.22275 11.4726 9.09091 12 9.09091C12.5274 9.09091 13.0122 9.22275 13.4545 9.48644C13.9054 9.74163 14.2584 10.0946 14.5136 10.5455C14.7772 10.9878 14.9091 11.4726 14.9091 12C14.9091 12.5189 14.7772 13.0037 14.5136 13.4545C14.2584 13.8969 13.9054 14.2499 13.4545 14.5136C13.0122 14.7772 12.5274 14.9091 12 14.9091C11.4811 14.9091 10.9963 14.7772 10.5455 14.5136C10.1031 14.2499 9.75013 13.8969 9.48644 13.4545C9.22275 13.0122 9.09091 12.5274 9.09091 12ZM10.5455 12C10.5455 12.2892 10.605 12.5444 10.7241 12.7656C10.8432 12.9867 11.0133 13.1568 11.2344 13.2759C11.4556 13.395 11.7108 13.4545 12 13.4545C12.2977 13.4545 12.5572 13.395 12.7783 13.2759C12.9995 13.1568 13.1653 12.9867 13.2759 12.7656C13.395 12.5444 13.4545 12.2892 13.4545 12C13.4545 11.7023 13.395 11.4428 13.2759 11.2217C13.1653 11.0005 12.9995 10.8347 12.7783 10.7241C12.5572 10.605 12.2977 10.5455 12 10.5455C11.7108 10.5455 11.4556 10.605 11.2344 10.7241C11.0133 10.8347 10.8432 11.0005 10.7241 11.2217C10.605 11.4428 10.5455 11.7023 10.5455 12ZM12 17.0909C12.9612 17.0909 13.8288 16.8698 14.6029 16.4274C15.3769 15.9851 15.9851 15.3769 16.4274 14.6029C16.8698 13.8203 17.0909 12.9527 17.0909 12C17.0909 11.0388 16.8698 10.1712 16.4274 9.39713C15.9851 8.62307 15.3769 8.01489 14.6029 7.57257C13.8288 7.13025 12.9612 6.90909 12 6.90909C11.0473 6.90909 10.1797 7.13025 9.39713 7.57257C8.62307 8.01489 8.01489 8.62307 7.57257 9.39713C7.13025 10.1712 6.90909 11.0388 6.90909 12C6.90909 12.9527 7.13025 13.8203 7.57257 14.6029C8.01489 15.3769 8.62307 15.9851 9.39713 16.4274C10.1797 16.8698 11.0473 17.0909 12 17.0909ZM12 18.5455C10.8177 18.5455 9.72461 18.252 8.72089 17.6651C7.71717 17.0781 6.92185 16.2871 6.33493 15.2919C5.74801 14.2881 5.45455 13.1909 5.45455 12C5.45455 10.8091 5.74801 9.71185 6.33493 8.70813C6.92185 7.70441 7.71292 6.91334 8.70813 6.33493C9.71186 5.74801 10.8091 5.45455 12 5.45455C13.1909 5.45455 14.2881 5.74801 15.2919 6.33493C16.2956 6.91334 17.0867 7.70441 17.6651 8.70813C18.252 9.71185 18.5455 10.8091 18.5455 12C18.5455 13.1824 18.252 14.2754 17.6651 15.2791C17.0867 16.2828 16.2956 17.0781 15.2919 17.6651C14.2881 18.252 13.1909 18.5455 12 18.5455Z" fill="currentColor"/>
</svg>
