<svg width="current" height="current" viewBox="0 0 24 24" fill="none" xmlns="http://www.w3.org/2000/svg">
<path d="M10.6726 9.26333C10.5266 9.55528 10.3259 9.79249 10.0704 9.97496C9.82408 10.1574 9.53669 10.2669 9.20825 10.3034L5.88277 10.7824C5.96488 10.7733 6.01506 10.7322 6.0333 10.6592C6.06067 10.5862 6.04699 10.5224 5.99225 10.4676L8.41451 12.8351C8.65172 13.0724 8.81594 13.3324 8.90718 13.6152C8.99841 13.8889 9.02122 14.1945 8.9756 14.5321L8.40083 17.8713C8.40083 17.7892 8.36889 17.7299 8.30503 17.6934C8.25029 17.6477 8.18643 17.6432 8.11344 17.6797L11.0968 16.0922C11.407 15.928 11.7081 15.8459 12 15.8459C12.292 15.8459 12.593 15.928 12.9032 16.0922L15.8866 17.6797C15.8227 17.6432 15.7589 17.6477 15.695 17.6934C15.6311 17.7299 15.6038 17.7892 15.6129 17.8713L15.0381 14.5321C14.9834 14.2037 14.9971 13.898 15.0792 13.6152C15.1704 13.3324 15.3437 13.0724 15.5992 12.8351L18.0078 10.4676C17.953 10.5224 17.9348 10.5862 17.953 10.6592C17.9804 10.7322 18.0351 10.7733 18.1173 10.7824L14.7918 10.3034C14.4633 10.2669 14.1714 10.1574 13.9159 9.97496C13.6696 9.79249 13.478 9.55528 13.3412 9.26333L11.8358 6.22524C11.8723 6.29822 11.927 6.33472 12 6.33472C12.0821 6.33472 12.1369 6.29822 12.1642 6.22524L10.6726 9.26333ZM10.7684 5.5273C10.9326 5.20798 11.1789 4.98902 11.5073 4.87041C11.8358 4.75181 12.1642 4.75181 12.4927 4.87041C12.8211 4.98902 13.0674 5.20798 13.2317 5.5273L14.7507 8.57908C14.7781 8.64294 14.81 8.68856 14.8465 8.71593C14.883 8.7433 14.9377 8.75698 15.0107 8.75698L18.3362 9.23596C18.692 9.2907 18.9749 9.45492 19.1847 9.72863C19.4037 10.0023 19.5086 10.3171 19.4995 10.6729C19.4995 11.0196 19.3672 11.3252 19.1026 11.5898L16.6666 13.9573C16.6119 14.0121 16.58 14.0577 16.5708 14.0942C16.5617 14.1307 16.5663 14.1945 16.5845 14.2858L17.1593 17.5976C17.214 17.9625 17.1411 18.2909 16.9403 18.5829C16.7396 18.8748 16.4705 19.071 16.1329 19.1714C15.8045 19.2626 15.476 19.2215 15.1476 19.0482L12.1642 17.4881C12.1004 17.4425 12.0456 17.4197 12 17.4197C11.9635 17.4197 11.9088 17.4425 11.8358 17.4881L8.85244 19.0482C8.53312 19.2215 8.20467 19.2626 7.86711 19.1714C7.52954 19.071 7.2604 18.8748 7.05969 18.5829C6.85897 18.2909 6.79055 17.9625 6.85441 17.5976L7.42918 14.2858C7.43831 14.2037 7.43375 14.1444 7.4155 14.1079C7.40638 14.0622 7.37444 14.0121 7.3197 13.9573L4.89744 11.5898C4.64198 11.3252 4.50969 11.0196 4.50057 10.6729C4.49145 10.3171 4.5918 10.0023 4.80164 9.72863C5.0206 9.45492 5.30799 9.2907 5.6638 9.23596L8.98929 8.75698C9.06227 8.75698 9.11701 8.7433 9.15351 8.71593C9.19913 8.68856 9.23562 8.64294 9.26299 8.57908L10.7684 5.5273Z" fill="currentColor"/>
</svg>
