<svg width="24" height="24" viewBox="0 0 24 24" fill="none" xmlns="http://www.w3.org/2000/svg">
<path d="M8.93021 8.71319V19.3953H7.28681C6.69095 19.3953 6.13835 19.2512 5.62899 18.9628C5.12924 18.6649 4.7304 18.2661 4.43247 17.7663C4.14416 17.257 4 16.7044 4 16.1085V12C4 11.3945 4.14416 10.8419 4.43247 10.3422C4.7304 9.83282 5.12924 9.43398 5.62899 9.14567C6.13835 8.85735 6.69095 8.71319 7.28681 8.71319H8.93021ZM7.28681 10.3566C6.76784 10.3566 6.36419 10.5008 6.07588 10.7891C5.78756 11.0774 5.6434 11.481 5.6434 12V16.1085C5.6434 16.6275 5.78756 17.0311 6.07588 17.3194C6.36419 17.6078 6.76784 17.7519 7.28681 17.7519V10.3566ZM11.3953 7.89149C11.3953 7.38213 11.2608 6.9881 10.9917 6.70939C10.7226 6.42108 10.3382 6.26731 9.83841 6.24809C9.85763 6.26731 9.99217 6.18082 10.242 5.9886C10.4054 5.85406 10.4823 5.79639 10.4727 5.81561L8.93021 9.69347V17.7519H15.7056C16.1958 17.7519 16.6042 17.6126 16.931 17.3339C17.2674 17.0551 17.4788 16.6755 17.5653 16.195L18.3149 12.0577C18.3822 11.6829 18.3726 11.3705 18.2861 11.1206C18.2092 10.8708 18.0554 10.6834 17.8248 10.5584C17.5941 10.4239 17.2866 10.3566 16.9022 10.3566H12.3323C12.0729 10.3566 11.8518 10.2653 11.6692 10.0827C11.4866 9.9001 11.3953 9.67905 11.3953 9.41957V7.89149ZM13.0387 9.41957C13.0387 9.46762 12.9666 9.43398 12.8225 9.31866C12.6879 9.19372 12.5582 9.06398 12.4333 8.92943C12.3179 8.78527 12.2843 8.71319 12.3323 8.71319H16.9022C17.5653 8.71319 18.1467 8.87657 18.6465 9.20333C19.1558 9.52048 19.5258 9.95776 19.7565 10.5152C19.9968 11.0726 20.0592 11.6829 19.9439 12.346L19.1943 16.4977C19.0886 17.0359 18.8627 17.5261 18.5167 17.9681C18.1804 18.4102 17.7623 18.761 17.2626 19.0205C16.7724 19.2704 16.2534 19.3953 15.7056 19.3953H7.28681V9.37632L8.94463 5.21015C9.03112 5.00833 9.15606 4.85936 9.31944 4.76326C9.49243 4.65754 9.67983 4.60469 9.88165 4.60469C10.4583 4.62391 10.9869 4.78248 11.4674 5.08041C11.9575 5.37833 12.342 5.77237 12.6207 6.26251C12.8994 6.75264 13.0387 7.29564 13.0387 7.89149V9.41957Z" fill="black"/>
</svg>
