<svg width="current" height="current" viewBox="0 0 24 24" fill="none" xmlns="http://www.w3.org/2000/svg">
<path d="M15.0683 15.2878V4.60252H16.7122C17.3179 4.60252 17.8706 4.74672 18.3705 5.03512C18.88 5.32352 19.279 5.72248 19.5674 6.23199C19.8558 6.73188 20 7.28465 20 7.89029V12C20 12.596 19.8558 13.1488 19.5674 13.6583C19.279 14.1582 18.88 14.5572 18.3705 14.8552C17.8706 15.1436 17.3179 15.2878 16.7122 15.2878H15.0683ZM16.7122 13.6439C17.2314 13.6439 17.6351 13.4997 17.9235 13.2113C18.2119 12.9229 18.3561 12.5191 18.3561 12V7.89029C18.3561 7.37117 18.2119 6.96741 17.9235 6.67901C17.6351 6.39061 17.2314 6.24641 16.7122 6.24641V13.6439ZM12.6025 16.1097C12.6025 16.6192 12.7371 17.0134 13.0063 17.2922C13.2755 17.5709 13.66 17.7248 14.1599 17.7536C14.1407 17.7248 14.0109 17.8113 13.7705 18.0132C13.5975 18.1477 13.5158 18.2054 13.5254 18.1862L15.0683 14.3072V6.24641H8.29093C7.81027 6.24641 7.4017 6.3858 7.06523 6.66459C6.72876 6.94338 6.52208 7.3183 6.44517 7.78935L5.69533 11.9423C5.61842 12.3076 5.61842 12.6201 5.69533 12.8796C5.78185 13.1296 5.94047 13.3218 6.17119 13.4564C6.40191 13.5814 6.70954 13.6439 7.09407 13.6439H11.6652C11.9248 13.6439 12.1459 13.7352 12.3285 13.9179C12.5112 14.1005 12.6025 14.3216 12.6025 14.5812V16.1097ZM10.9586 14.5812C10.9586 14.5331 11.0259 14.5716 11.1605 14.6965C11.3047 14.8119 11.4345 14.9417 11.5499 15.0859C11.6748 15.2205 11.7133 15.2878 11.6652 15.2878H7.09407C6.43075 15.2878 5.84433 15.1243 5.33483 14.7975C4.83493 14.4706 4.46482 14.0284 4.22448 13.4708C3.99376 12.9133 3.94089 12.3076 4.06586 11.6539L4.81571 7.48653C4.91184 6.95779 5.12814 6.47232 5.46461 6.03011C5.81069 5.58789 6.22887 5.24181 6.71915 4.99186C7.21904 4.7323 7.74297 4.60252 8.29093 4.60252H16.7122V14.6244L15.0539 18.7918C14.9674 18.9937 14.8424 19.1475 14.679 19.2533C14.5156 19.3494 14.3329 19.3975 14.131 19.3975C13.5446 19.3782 13.0063 19.2196 12.516 18.9216C12.0353 18.6236 11.6556 18.2295 11.3768 17.7392C11.098 17.2393 10.9586 16.6961 10.9586 16.1097V14.5812Z" fill="currentColor"/>
</svg>
