<svg width="current" height="24" viewBox="0 0 24 24" fill="none" xmlns="http://www.w3.org/2000/svg">
<path d="M3 12C3 11.6374 3.08772 11.3041 3.26316 11C3.45029 10.6959 3.69591 10.4561 4 10.2807C4.31579 10.0936 4.64912 10 5 10C5.36257 10 5.69591 10.0936 6 10.2807C6.30409 10.4561 6.54386 10.6959 6.7193 11C6.90643 11.3041 7 11.6374 7 12C7 12.3509 6.90643 12.6842 6.7193 13C6.54386 13.3041 6.30409 13.5497 6 13.7368C5.69591 13.9123 5.36257 14 5 14C4.64912 14 4.31579 13.9123 4 13.7368C3.69591 13.5497 3.45029 13.3041 3.26316 13C3.08772 12.6842 3 12.3509 3 12ZM10 12C10 11.6374 10.0877 11.3041 10.2632 11C10.4503 10.6959 10.6959 10.4561 11 10.2807C11.3158 10.0936 11.6491 10 12 10C12.3626 10 12.6959 10.0936 13 10.2807C13.3041 10.4561 13.5439 10.6959 13.7193 11C13.9064 11.3041 14 11.6374 14 12C14 12.3509 13.9064 12.6842 13.7193 13C13.5439 13.3041 13.3041 13.5497 13 13.7368C12.6959 13.9123 12.3626 14 12 14C11.6491 14 11.3158 13.9123 11 13.7368C10.6959 13.5497 10.4503 13.3041 10.2632 13C10.0877 12.6842 10 12.3509 10 12ZM17 12C17 11.6374 17.0877 11.3041 17.2632 11C17.4503 10.6959 17.6959 10.4561 18 10.2807C18.3158 10.0936 18.6491 10 19 10C19.3626 10 19.6959 10.0936 20 10.2807C20.3041 10.4561 20.5439 10.6959 20.7193 11C20.9064 11.3041 21 11.6374 21 12C21 12.3509 20.9064 12.6842 20.7193 13C20.5439 13.3041 20.3041 13.5497 20 13.7368C19.6959 13.9123 19.3626 14 19 14C18.6491 14 18.3158 13.9123 18 13.7368C17.6959 13.5497 17.4503 13.3041 17.2632 13C17.0877 12.6842 17 12.3509 17 12ZM3 5C3 4.63743 3.08772 4.30409 3.26316 4C3.45029 3.69591 3.69591 3.45614 4 3.2807C4.31579 3.09357 4.64912 3 5 3C5.36257 3 5.69591 3.09357 6 3.2807C6.30409 3.45614 6.54386 3.69591 6.7193 4C6.90643 4.30409 7 4.63743 7 5C7 5.35088 6.90643 5.68421 6.7193 6C6.54386 6.30409 6.30409 6.54971 6 6.73684C5.69591 6.91228 5.36257 7 5 7C4.64912 7 4.31579 6.91228 4 6.73684C3.69591 6.54971 3.45029 6.30409 3.26316 6C3.08772 5.68421 3 5.35088 3 5ZM10 5C10 4.63743 10.0877 4.30409 10.2632 4C10.4503 3.69591 10.6959 3.45614 11 3.2807C11.3158 3.09357 11.6491 3 12 3C12.3626 3 12.6959 3.09357 13 3.2807C13.3041 3.45614 13.5439 3.69591 13.7193 4C13.9064 4.30409 14 4.63743 14 5C14 5.35088 13.9064 5.68421 13.7193 6C13.5439 6.30409 13.3041 6.54971 13 6.73684C12.6959 6.91228 12.3626 7 12 7C11.6491 7 11.3158 6.91228 11 6.73684C10.6959 6.54971 10.4503 6.30409 10.2632 6C10.0877 5.68421 10 5.35088 10 5ZM17 5C17 4.63743 17.0877 4.30409 17.2632 4C17.4503 3.69591 17.6959 3.45614 18 3.2807C18.3158 3.09357 18.6491 3 19 3C19.3626 3 19.6959 3.09357 20 3.2807C20.3041 3.45614 20.5439 3.69591 20.7193 4C20.9064 4.30409 21 4.63743 21 5C21 5.35088 20.9064 5.68421 20.7193 6C20.5439 6.30409 20.3041 6.54971 20 6.73684C19.6959 6.91228 19.3626 7 19 7C18.6491 7 18.3158 6.91228 18 6.73684C17.6959 6.54971 17.4503 6.30409 17.2632 6C17.0877 5.68421 17 5.35088 17 5ZM3 19C3 18.6374 3.08772 18.3041 3.26316 18C3.45029 17.6959 3.69591 17.4561 4 17.2807C4.31579 17.0936 4.64912 17 5 17C5.36257 17 5.69591 17.0936 6 17.2807C6.30409 17.4561 6.54386 17.6959 6.7193 18C6.90643 18.3041 7 18.6374 7 19C7 19.3509 6.90643 19.6842 6.7193 20C6.54386 20.3041 6.30409 20.5497 6 20.7368C5.69591 20.9123 5.36257 21 5 21C4.64912 21 4.31579 20.9123 4 20.7368C3.69591 20.5497 3.45029 20.3041 3.26316 20C3.08772 19.6842 3 19.3509 3 19ZM10 19C10 18.6374 10.0877 18.3041 10.2632 18C10.4503 17.6959 10.6959 17.4561 11 17.2807C11.3158 17.0936 11.6491 17 12 17C12.3626 17 12.6959 17.0936 13 17.2807C13.3041 17.4561 13.5439 17.6959 13.7193 18C13.9064 18.3041 14 18.6374 14 19C14 19.3509 13.9064 19.6842 13.7193 20C13.5439 20.3041 13.3041 20.5497 13 20.7368C12.6959 20.9123 12.3626 21 12 21C11.6491 21 11.3158 20.9123 11 20.7368C10.6959 20.5497 10.4503 20.3041 10.2632 20C10.0877 19.6842 10 19.3509 10 19ZM17 19C17 18.6374 17.0877 18.3041 17.2632 18C17.4503 17.6959 17.6959 17.4561 18 17.2807C18.3158 17.0936 18.6491 17 19 17C19.3626 17 19.6959 17.0936 20 17.2807C20.3041 17.4561 20.5439 17.6959 20.7193 18C20.9064 18.3041 21 18.6374 21 19C21 19.3509 20.9064 19.6842 20.7193 20C20.5439 20.3041 20.3041 20.5497 20 20.7368C19.6959 20.9123 19.3626 21 19 21C18.6491 21 18.3158 20.9123 18 20.7368C17.6959 20.5497 17.4503 20.3041 17.2632 20C17.0877 19.6842 17 19.3509 17 19Z" fill="black"/>
</svg>
