<svg width="current" height="24" viewBox="0 0 24 24" fill="none" xmlns="http://www.w3.org/2000/svg">
<path d="M15.7982 8.34211C15.9737 8.14328 16.2076 8.04386 16.5 8.04386C16.7807 8.04386 17.0146 8.14328 17.2018 8.34211C17.4006 8.52924 17.5 8.76316 17.5 9.04386C17.5 9.32456 17.4006 9.55848 17.2018 9.74562L11.307 15.6404C11.0965 15.8509 10.8275 15.9561 10.5 15.9561C10.1842 15.9561 9.91521 15.8509 9.69298 15.6404L6.79825 12.7456C6.59942 12.5702 6.5 12.3363 6.5 12.0439C6.5 11.7632 6.59942 11.5292 6.79825 11.3421C6.99708 11.1433 7.23099 11.0439 7.5 11.0439C7.7924 11.0439 8.02632 11.1433 8.20175 11.3421L11.0965 14.2368C11.155 14.2953 11.0673 14.3363 10.8333 14.3597C10.6111 14.383 10.383 14.383 10.1491 14.3597C9.9269 14.3363 9.84503 14.2953 9.90351 14.2368L15.7982 8.34211Z" fill="black"/>
</svg>
