<svg width="current" height="24" viewBox="0 0 24 24" fill="none" xmlns="http://www.w3.org/2000/svg">
<path d="M6.6 7.5V17.4C6.6 17.9684 6.75789 18.4105 7.07368 18.7263C7.38947 19.0421 7.83158 19.2 8.4 19.2H15.6C16.1684 19.2 16.6105 19.0421 16.9263 18.7263C17.2421 18.4105 17.4 17.9684 17.4 17.4V7.5H6.6ZM19.2 17.4C19.2 18.0526 19.0421 18.6579 18.7263 19.2158C18.4105 19.7632 17.9737 20.2 17.4158 20.5263C16.8684 20.8421 16.2632 21 15.6 21H8.4C7.74737 21 7.14211 20.8421 6.58421 20.5263C6.03684 20.2 5.6 19.7632 5.27368 19.2158C4.95789 18.6579 4.8 18.0526 4.8 17.4V5.7H19.2V17.4ZM3.9 7.5C3.65789 7.5 3.44737 7.41053 3.26842 7.23158C3.08947 7.05263 3 6.84211 3 6.6C3 6.34737 3.08947 6.13684 3.26842 5.96842C3.44737 5.78947 3.65789 5.7 3.9 5.7H5.7C5.95263 5.7 6.16316 5.78947 6.33158 5.96842C6.51053 6.13684 6.6 6.34737 6.6 6.6C6.6 6.84211 6.51053 7.05263 6.33158 7.23158C6.16316 7.41053 5.95263 7.5 5.7 7.5H3.9ZM20.1 5.7C20.3526 5.7 20.5632 5.78947 20.7316 5.96842C20.9105 6.13684 21 6.34737 21 6.6C21 6.84211 20.9105 7.05263 20.7316 7.23158C20.5632 7.41053 20.3526 7.5 20.1 7.5H18.3C18.0579 7.5 17.8474 7.41053 17.6684 7.23158C17.4895 7.05263 17.4 6.84211 17.4 6.6C17.4 6.34737 17.4895 6.13684 17.6684 5.96842C17.8474 5.78947 18.0579 5.7 18.3 5.7H20.1ZM14.7 3C14.9526 3 15.1632 3.08947 15.3316 3.26842C15.5105 3.43684 15.6 3.64737 15.6 3.9C15.6 4.14211 15.5105 4.35263 15.3316 4.53158C15.1632 4.71053 14.9526 4.8 14.7 4.8H9.3C9.05789 4.8 8.84737 4.71053 8.66842 4.53158C8.48947 4.35263 8.4 4.14211 8.4 3.9C8.4 3.64737 8.48947 3.43684 8.66842 3.26842C8.84737 3.08947 9.05789 3 9.3 3H14.7ZM11.1 16.5C11.1 16.7421 11.0105 16.9526 10.8316 17.1316C10.6632 17.3105 10.4526 17.4 10.2 17.4C9.95789 17.4 9.74737 17.3105 9.56842 17.1316C9.38947 16.9526 9.3 16.7421 9.3 16.5V10.2C9.3 9.94737 9.38947 9.73684 9.56842 9.56842C9.74737 9.38947 9.95789 9.3 10.2 9.3C10.4526 9.3 10.6632 9.38947 10.8316 9.56842C11.0105 9.73684 11.1 9.94737 11.1 10.2V16.5ZM14.7 16.5C14.7 16.7421 14.6105 16.9526 14.4316 17.1316C14.2632 17.3105 14.0526 17.4 13.8 17.4C13.5579 17.4 13.3474 17.3105 13.1684 17.1316C12.9895 16.9526 12.9 16.7421 12.9 16.5V10.2C12.9 9.94737 12.9895 9.73684 13.1684 9.56842C13.3474 9.38947 13.5579 9.3 13.8 9.3C14.0526 9.3 14.2632 9.38947 14.4316 9.56842C14.6105 9.73684 14.7 9.94737 14.7 10.2V16.5Z" fill="currentColor"/>
</svg>
