<svg width="current" height="24" viewBox="0 0 24 24" fill="none" xmlns="http://www.w3.org/2000/svg">
<path d="M12 11.1C11.7579 11.1 11.5474 11.0105 11.3684 10.8316C11.1895 10.6526 11.1 10.4421 11.1 10.2C11.1 9.94737 11.1895 9.73684 11.3684 9.56842C11.5474 9.38947 11.7579 9.3 12 9.3H18.3C18.5526 9.3 18.7631 9.38947 18.9316 9.56842C19.1105 9.73684 19.2 9.94737 19.2 10.2C19.2 10.4421 19.1105 10.6526 18.9316 10.8316C18.7631 11.0105 18.5526 11.1 18.3 11.1H12ZM12 3C12.2526 3 12.4631 3.08947 12.6316 3.26842C12.8105 3.43684 12.9 3.64737 12.9 3.9C12.9 4.14211 12.8105 4.35263 12.6316 4.53158C12.4631 4.71053 12.2526 4.8 12 4.8H8.39999C8.04209 4.8 7.7263 4.87368 7.45262 5.02105C7.17894 5.1579 6.96841 5.36316 6.82104 5.63684C6.67367 5.91053 6.59999 6.23158 6.59999 6.6V17.4C6.59999 17.7579 6.67367 18.0737 6.82104 18.3474C6.96841 18.6211 7.17894 18.8316 7.45262 18.9789C7.7263 19.1263 8.04209 19.2 8.39999 19.2H15.6C15.9684 19.2 16.2895 19.1263 16.5631 18.9789C16.8368 18.8316 17.0421 18.6211 17.1789 18.3474C17.3263 18.0737 17.4 17.7579 17.4 17.4V10.2C17.4 9.94737 17.4895 9.73684 17.6684 9.56842C17.8474 9.38947 18.0579 9.3 18.3 9.3C18.5526 9.3 18.7631 9.38947 18.9316 9.56842C19.1105 9.73684 19.2 9.94737 19.2 10.2V17.4C19.2 18.0421 19.0368 18.6421 18.7105 19.2C18.3947 19.7474 17.9579 20.1842 17.4 20.5105C16.8526 20.8368 16.2526 21 15.6 21H8.39999C7.75788 21 7.15788 20.8368 6.59999 20.5105C6.05262 20.1842 5.61578 19.7474 5.28946 19.2C4.96315 18.6421 4.79999 18.0421 4.79999 17.4V6.6C4.79999 5.94737 4.96315 5.34737 5.28946 4.8C5.61578 4.24211 6.05262 3.80526 6.59999 3.48947C7.15788 3.16316 7.75788 3 8.39999 3H12ZM11.1 3.9C11.1 3.64737 11.1895 3.43684 11.3684 3.26842C11.5474 3.08947 11.7579 3 12 3C12.2526 3 12.4631 3.08947 12.6316 3.26842C12.8105 3.43684 12.9 3.64737 12.9 3.9V10.2C12.9 10.4421 12.8105 10.6526 12.6316 10.8316C12.4631 11.0105 12.2526 11.1 12 11.1C11.7579 11.1 11.5474 11.0105 11.3684 10.8316C11.1895 10.6526 11.1 10.4421 11.1 10.2V3.9ZM18.9316 9.56842C19.1105 9.72632 19.2 9.93684 19.2 10.2C19.2 10.4421 19.1105 10.6526 18.9316 10.8316C18.7631 11.0105 18.5526 11.1 18.3 11.1C18.0474 11.1 17.8368 11.0105 17.6684 10.8316L11.3684 4.53158C11.1895 4.36316 11.1 4.15263 11.1 3.9C11.1 3.64737 11.1895 3.43684 11.3684 3.26842C11.5474 3.08947 11.7579 3 12 3C12.2631 3 12.4737 3.08947 12.6316 3.26842L18.9316 9.56842Z" fill="black"/>
</svg>
