<svg width="current" height="24" viewBox="0 0 24 24" fill="none" xmlns="http://www.w3.org/2000/svg">
<path d="M7.49999 6.6C6.93157 6.6 6.48947 6.75789 6.17368 7.07368C5.85789 7.38947 5.69999 7.83158 5.69999 8.4H18.3C18.3 7.83158 18.1421 7.38947 17.8263 7.07368C17.5105 6.75789 17.0684 6.6 16.5 6.6H7.49999ZM16.5 4.8C17.1632 4.8 17.7684 4.95789 18.3158 5.27368C18.8737 5.58947 19.3105 6.02632 19.6263 6.58421C19.9421 7.13158 20.1 7.73684 20.1 8.4V10.2H3.89999V8.4C3.89999 7.73684 4.05789 7.13158 4.37368 6.58421C4.69999 6.02632 5.13684 5.58947 5.6842 5.27368C6.2421 4.95789 6.84736 4.8 7.49999 4.8H16.5ZM5.69999 17.4C5.69999 17.9684 5.85789 18.4105 6.17368 18.7263C6.48947 19.0421 6.93157 19.2 7.49999 19.2H16.5C17.0684 19.2 17.5105 19.0421 17.8263 18.7263C18.1421 18.4105 18.3 17.9684 18.3 17.4V10.2H5.69999V17.4ZM20.1 8.4V17.4C20.1 18.0526 19.9421 18.6579 19.6263 19.2158C19.3105 19.7632 18.8737 20.2 18.3158 20.5263C17.7684 20.8421 17.1632 21 16.5 21H7.49999C6.84736 21 6.2421 20.8421 5.6842 20.5263C5.13684 20.2 4.69999 19.7632 4.37368 19.2158C4.05789 18.6579 3.89999 18.0526 3.89999 17.4V8.4H20.1ZM6.59999 3.9C6.59999 3.64737 6.68947 3.43684 6.86842 3.26842C7.04736 3.08947 7.25789 3 7.49999 3C7.75263 3 7.96315 3.08947 8.13157 3.26842C8.31052 3.43684 8.39999 3.64737 8.39999 3.9V5.7C8.39999 5.94211 8.31052 6.15263 8.13157 6.33158C7.96315 6.51053 7.75263 6.6 7.49999 6.6C7.25789 6.6 7.04736 6.51053 6.86842 6.33158C6.68947 6.15263 6.59999 5.94211 6.59999 5.7V3.9ZM17.4 5.7C17.4 5.94211 17.3105 6.15263 17.1316 6.33158C16.9632 6.51053 16.7526 6.6 16.5 6.6C16.2579 6.6 16.0474 6.51053 15.8684 6.33158C15.6895 6.15263 15.6 5.94211 15.6 5.7V3.9C15.6 3.64737 15.6895 3.43684 15.8684 3.26842C16.0474 3.08947 16.2579 3 16.5 3C16.7526 3 16.9632 3.08947 17.1316 3.26842C17.3105 3.43684 17.4 3.64737 17.4 3.9V5.7ZM9.56842 13.5316C9.38947 13.3632 9.29999 13.1526 9.29999 12.9C9.29999 12.6474 9.38947 12.4368 9.56842 12.2684C9.74736 12.0895 9.95789 12 10.2 12C10.4632 12 10.6737 12.0895 10.8316 12.2684L14.4316 15.8684C14.6105 16.0263 14.7 16.2368 14.7 16.5C14.7 16.7421 14.6105 16.9526 14.4316 17.1316C14.2632 17.3105 14.0526 17.4 13.8 17.4C13.5474 17.4 13.3368 17.3105 13.1684 17.1316L9.56842 13.5316ZM13.1684 12.2684C13.3368 12.0895 13.5474 12 13.8 12C14.0526 12 14.2632 12.0895 14.4316 12.2684C14.6105 12.4368 14.7 12.6474 14.7 12.9C14.7 13.1526 14.6105 13.3632 14.4316 13.5316L10.8316 17.1316C10.6737 17.3105 10.4632 17.4 10.2 17.4C9.95789 17.4 9.74736 17.3105 9.56842 17.1316C9.38947 16.9526 9.29999 16.7421 9.29999 16.5C9.29999 16.2368 9.38947 16.0263 9.56842 15.8684L13.1684 12.2684Z" fill="currentColor"/>
</svg>
