<svg width="24" height="24" viewBox="0 0 24 24" fill="none" xmlns="http://www.w3.org/2000/svg">
<path d="M21 8C21 8.26901 20.9006 8.50292 20.7018 8.70175C20.5146 8.90058 20.2807 9 20 9C19.731 9 19.4971 8.90058 19.2982 8.70175C19.0994 8.50292 19 8.26901 19 8V7C19 6.36842 18.8246 5.87719 18.4737 5.52632C18.1228 5.17544 17.6316 5 17 5H16C15.731 5 15.4971 4.90058 15.2982 4.70175C15.0994 4.50292 15 4.26901 15 4C15 3.7193 15.0994 3.48538 15.2982 3.29825C15.4971 3.09942 15.731 3 16 3H17C17.7368 3 18.4094 3.17544 19.0175 3.52632C19.6374 3.87719 20.1228 4.36257 20.4737 4.98246C20.8246 5.59064 21 6.26316 21 7V8ZM5 8C5 8.26901 4.90058 8.50292 4.70175 8.70175C4.51462 8.90058 4.2807 9 4 9C3.73099 9 3.49708 8.90058 3.29825 8.70175C3.09942 8.50292 3 8.26901 3 8V7C3 6.26316 3.17544 5.59064 3.52632 4.98246C3.88889 4.36257 4.37427 3.87719 4.98246 3.52632C5.60234 3.17544 6.27485 3 7 3H8C8.2807 3 8.51462 3.09942 8.70175 3.29825C8.90058 3.48538 9 3.7193 9 4C9 4.26901 8.90058 4.50292 8.70175 4.70175C8.51462 4.90058 8.2807 5 8 5H7C6.36842 5 5.87719 5.17544 5.52632 5.52632C5.17544 5.87719 5 6.36842 5 7V8ZM19 16C19 15.7193 19.0994 15.4854 19.2982 15.2982C19.4971 15.0994 19.731 15 20 15C20.2807 15 20.5146 15.0994 20.7018 15.2982C20.9006 15.4854 21 15.7193 21 16V17C21 17.7251 20.8246 18.3977 20.4737 19.0175C20.1228 19.6257 19.6374 20.1111 19.0175 20.4737C18.4094 20.8246 17.7368 21 17 21H16C15.731 21 15.4971 20.9006 15.2982 20.7018C15.0994 20.5029 15 20.269 15 20C15 19.7193 15.0994 19.4854 15.2982 19.2982C15.4971 19.0994 15.731 19 16 19H17C17.6316 19 18.1228 18.8246 18.4737 18.4737C18.8246 18.1228 19 17.6316 19 17V16ZM3 16C3 15.7193 3.09942 15.4854 3.29825 15.2982C3.49708 15.0994 3.73099 15 4 15C4.2807 15 4.51462 15.0994 4.70175 15.2982C4.90058 15.4854 5 15.7193 5 16V17C5 17.6316 5.17544 18.1228 5.52632 18.4737C5.87719 18.8246 6.36842 19 7 19H8C8.2807 19 8.51462 19.0994 8.70175 19.2982C8.90058 19.4854 9 19.7193 9 20C9 20.269 8.90058 20.5029 8.70175 20.7018C8.51462 20.9006 8.2807 21 8 21H7C6.27485 21 5.60234 20.8246 4.98246 20.4737C4.37427 20.1111 3.88889 19.6257 3.52632 19.0175C3.17544 18.3977 3 17.7251 3 17V16ZM16 11C16 11.269 15.9006 11.5029 15.7018 11.7018C15.5146 11.9006 15.2807 12 15 12C14.731 12 14.4971 11.9006 14.2982 11.7018C14.0994 11.5029 14 11.269 14 11V10C14 9.7193 14.0994 9.48538 14.2982 9.29825C14.4971 9.09942 14.731 9 15 9C15.2807 9 15.5146 9.09942 15.7018 9.29825C15.9006 9.48538 16 9.7193 16 10V11ZM11 14C10.731 14 10.4971 13.9006 10.2982 13.7018C10.0994 13.5029 10 13.269 10 13C10 12.7193 10.0994 12.4854 10.2982 12.2982C10.4971 12.0994 10.731 12 11 12C11.0585 12 11.0819 12.0117 11.0702 12.0351C11.0702 12.0585 11.0585 12.076 11.0351 12.0877C11.0117 12.0877 11 12.0585 11 12V10C11 9.7193 11.0994 9.48538 11.2982 9.29825C11.4971 9.09942 11.731 9 12 9C12.2807 9 12.5146 9.09942 12.7018 9.29825C12.9006 9.48538 13 9.7193 13 10V12C13 12.3509 12.9064 12.6842 12.7193 13C12.5439 13.3041 12.3041 13.5497 12 13.7368C11.6959 13.9123 11.3626 14 11 14ZM10 11C10 11.269 9.90058 11.5029 9.70175 11.7018C9.51462 11.9006 9.2807 12 9 12C8.73099 12 8.49708 11.9006 8.29825 11.7018C8.09942 11.5029 8 11.269 8 11V10C8 9.7193 8.09942 9.48538 8.29825 9.29825C8.49708 9.09942 8.73099 9 9 9C9.2807 9 9.51462 9.09942 9.70175 9.29825C9.90058 9.48538 10 9.7193 10 10V11ZM8.47368 15.5263C8.27485 15.3392 8.17544 15.1053 8.17544 14.8246C8.17544 14.5439 8.27485 14.3099 8.47368 14.1228C8.67251 13.924 8.90643 13.8246 9.17544 13.8246C9.46784 13.8246 9.70175 13.924 9.87719 14.1228C10.193 14.4269 10.5146 14.6491 10.8421 14.7895C11.1813 14.9298 11.5673 15 12 15C12.4327 15 12.8187 14.9298 13.1579 14.7895C13.4971 14.6491 13.8187 14.4269 14.1228 14.1228C14.3099 13.924 14.5439 13.8246 14.8246 13.8246C15.1053 13.8246 15.3392 13.924 15.5263 14.1228C15.7251 14.3099 15.8246 14.5439 15.8246 14.8246C15.8246 15.1053 15.7251 15.3392 15.5263 15.5263C15.0585 15.9942 14.5146 16.3567 13.8947 16.614C13.2866 16.8713 12.655 17 12 17C11.345 17 10.7076 16.8713 10.0877 16.614C9.47953 16.3567 8.94152 15.9942 8.47368 15.5263Z" fill="black"/>
</svg>
