<svg width="current" height="24" viewBox="0 0 24 24" fill="none" xmlns="http://www.w3.org/2000/svg">
<path d="M11.1 12.0237C11.1 11.771 11.1895 11.5605 11.3684 11.3921C11.5474 11.2132 11.7579 11.1237 12 11.1237C12.2526 11.1237 12.4632 11.2132 12.6316 11.3921C12.8105 11.5605 12.9 11.771 12.9 12.0237C12.9 13.5921 12.7105 15.0447 12.3316 16.3816C11.9632 17.7184 11.4474 19.0237 10.7842 20.2974C10.7105 20.4447 10.6 20.5605 10.4526 20.6447C10.3053 20.7289 10.1474 20.7711 9.97895 20.7711C9.73684 20.7711 9.52632 20.6816 9.34737 20.5026C9.16842 20.3237 9.07895 20.1132 9.07895 19.8711C9.07895 19.7237 9.11053 19.5816 9.17368 19.4447C9.79474 18.2868 10.2684 17.1184 10.5947 15.9395C10.9316 14.75 11.1 13.4447 11.1 12.0237ZM13.7211 20.4553C13.6474 20.6026 13.5368 20.7289 13.3895 20.8342C13.2421 20.9289 13.0789 20.9763 12.9 20.9763C12.6579 20.9763 12.4474 20.8868 12.2684 20.7079C12.0895 20.5289 12 20.3184 12 20.0763C12 19.95 12.0316 19.8237 12.0947 19.6974C13.2316 17.2553 13.8 14.6974 13.8 12.0237C13.8 11.6553 13.7263 11.3342 13.5789 11.0605C13.4421 10.7868 13.2368 10.5816 12.9632 10.4447C12.6895 10.2974 12.3684 10.2237 12 10.2237C11.6421 10.2237 11.3263 10.2974 11.0526 10.4447C10.7789 10.5816 10.5684 10.7868 10.4211 11.0605C10.2737 11.3342 10.2 11.6553 10.2 12.0237C10.2 14.5289 9.56316 16.9237 8.28947 19.2079C8.21579 19.3447 8.10526 19.4553 7.95789 19.5395C7.82105 19.6237 7.66842 19.6658 7.5 19.6658C7.25789 19.6658 7.04737 19.5763 6.86842 19.3974C6.68947 19.2184 6.6 19.0079 6.6 18.7658C6.6 18.6289 6.63684 18.4816 6.71053 18.3237C7.25789 17.3553 7.67368 16.3605 7.95789 15.3395C8.25263 14.3184 8.4 13.2132 8.4 12.0237C8.4 11.371 8.56316 10.7711 8.88947 10.2237C9.21579 9.66579 9.65263 9.22894 10.2 8.91316C10.7579 8.58684 11.3579 8.42368 12 8.42368C12.6526 8.42368 13.2526 8.58684 13.8 8.91316C14.3579 9.22894 14.7947 9.66579 15.1105 10.2237C15.4368 10.7711 15.6 11.371 15.6 12.0237C15.6 13.4974 15.4368 14.95 15.1105 16.3816C14.7842 17.8132 14.3211 19.1711 13.7211 20.4553ZM21 12.0237C21 12.2658 20.9105 12.4763 20.7316 12.6553C20.5632 12.8342 20.3526 12.9237 20.1 12.9237C19.8579 12.9237 19.6474 12.8342 19.4684 12.6553C19.2895 12.4763 19.2 12.2658 19.2 12.0237C19.2 10.6763 18.8842 9.45526 18.2526 8.36052C17.6316 7.25526 16.7684 6.3921 15.6632 5.77105C14.5684 5.13947 13.3474 4.82368 12 4.82368C10.6632 4.82368 9.4421 5.13947 8.33684 5.77105C7.24211 6.3921 6.37895 7.25526 5.74737 8.36052C5.11579 9.45526 4.8 10.6763 4.8 12.0237C4.8 12.2658 4.71053 12.4763 4.53158 12.6553C4.36316 12.8342 4.15263 12.9237 3.9 12.9237C3.65789 12.9237 3.44737 12.8342 3.26842 12.6553C3.08947 12.4763 3 12.2658 3 12.0237C3 10.3921 3.4 8.88684 4.2 7.50789C5.01053 6.12894 6.10526 5.03947 7.48421 4.23947C8.87368 3.42894 10.3789 3.02368 12 3.02368C13.6316 3.02368 15.1368 3.42894 16.5158 4.23947C17.8947 5.03947 18.9842 6.12894 19.7842 7.50789C20.5947 8.88684 21 10.3921 21 12.0237ZM17.1316 19.1921C17.0684 19.371 16.9579 19.5184 16.8 19.6342C16.6526 19.75 16.4789 19.8079 16.2789 19.8079C16.0368 19.8079 15.8263 19.7184 15.6474 19.5395C15.4684 19.3605 15.3789 19.15 15.3789 18.9079C15.3789 18.8342 15.3947 18.7342 15.4263 18.6079C15.7842 17.6395 16.0526 16.5921 16.2316 15.4658C16.4105 14.3395 16.5 13.1921 16.5 12.0237C16.5 11.1605 16.3053 10.3868 15.9158 9.70263C15.5368 9.01842 15.0053 8.48684 14.3211 8.10789C13.6368 7.71842 12.8632 7.52368 12 7.52368C11.1474 7.52368 10.3789 7.71842 9.69474 8.10789C9.01053 8.48684 8.47368 9.01842 8.08421 9.70263C7.69474 10.3868 7.5 11.1605 7.5 12.0237C7.5 12.9605 7.38947 13.8816 7.16842 14.7868C6.94737 15.6816 6.65263 16.4921 6.28421 17.2184C6.21053 17.3658 6.1 17.4868 5.95263 17.5816C5.80526 17.6763 5.64737 17.7237 5.47895 17.7237C5.23684 17.7237 5.02632 17.6342 4.84737 17.4553C4.66842 17.2763 4.57895 17.0658 4.57895 16.8237C4.57895 16.6763 4.61053 16.5395 4.67368 16.4132C5 15.7816 5.25263 15.0974 5.43158 14.3605C5.61053 13.6237 5.7 12.8447 5.7 12.0237C5.7 10.8763 5.97895 9.82368 6.53684 8.86579C7.10526 7.89737 7.87368 7.13421 8.8421 6.57631C9.81053 6.00789 10.8632 5.72368 12 5.72368C13.1474 5.72368 14.2 6.00789 15.1579 6.57631C16.1263 7.13421 16.8895 7.89737 17.4474 8.86579C18.0158 9.82368 18.3 10.8763 18.3 12.0237C18.3 13.2658 18.2 14.5079 18 15.75C17.8 16.9921 17.5105 18.1395 17.1316 19.1921Z" fill="black"/>
</svg>
