<svg width="current" height="24" viewBox="0 0 24 24" fill="none" xmlns="http://www.w3.org/2000/svg">
<path d="M18.0316 14.4316C17.8737 14.6105 17.6632 14.7 17.4 14.7C17.1579 14.7 16.9474 14.6105 16.7684 14.4316C16.5895 14.2526 16.5 14.0421 16.5 13.8C16.5 13.5368 16.5895 13.3263 16.7684 13.1684L17.9842 11.9526C18.3947 11.5421 18.7 11.0947 18.9 10.6105C19.1 10.1158 19.2 9.57368 19.2 8.98421C19.2 8.17368 19.0211 7.45263 18.6632 6.82105C18.3053 6.18947 17.8105 5.69474 17.1789 5.33684C16.5474 4.97895 15.8263 4.8 15.0158 4.8C14.4263 4.8 13.8842 4.9 13.3895 5.1C12.9053 5.3 12.4579 5.60526 12.0474 6.01579L10.8316 7.23158C10.6737 7.41053 10.4632 7.5 10.2 7.5C9.95789 7.5 9.74737 7.41053 9.56842 7.23158C9.38947 7.05263 9.3 6.84211 9.3 6.6C9.3 6.33684 9.38947 6.12632 9.56842 5.96842L10.7842 4.75263C11.3421 4.19474 11.9895 3.76316 12.7263 3.4579C13.4632 3.15263 14.2263 3 15.0158 3C16.1 3 17.1 3.26842 18.0158 3.80526C18.9421 4.33158 19.6684 5.05789 20.1947 5.98421C20.7316 6.9 21 7.9 21 8.98421C21 9.77368 20.8474 10.5368 20.5421 11.2737C20.2368 12.0105 19.8053 12.6579 19.2474 13.2158L18.0316 14.4316ZM13.1684 16.7684C13.3368 16.5895 13.5474 16.5 13.8 16.5C14.0526 16.5 14.2632 16.5895 14.4316 16.7684C14.6105 16.9368 14.7 17.1474 14.7 17.4C14.7 17.6526 14.6105 17.8632 14.4316 18.0316L13.2158 19.2474C12.6579 19.8053 12.0105 20.2368 11.2737 20.5421C10.5474 20.8474 9.78421 21 8.98421 21C7.9 21 6.9 20.7316 5.98421 20.1947C5.06842 19.6579 4.34211 18.9316 3.80526 18.0158C3.26842 17.1 3 16.1 3 15.0158C3 14.2158 3.15263 13.4526 3.45789 12.7263C3.76316 11.9895 4.19474 11.3421 4.75263 10.7842L5.96842 9.56842C6.13684 9.38947 6.34737 9.3 6.6 9.3C6.85263 9.3 7.06316 9.38947 7.23158 9.56842C7.41053 9.73684 7.5 9.94737 7.5 10.2C7.5 10.4526 7.41053 10.6632 7.23158 10.8316L6.01579 12.0474C5.61579 12.4579 5.31053 12.9105 5.1 13.4053C4.9 13.8895 4.8 14.4263 4.8 15.0158C4.8 15.8158 4.97895 16.5368 5.33684 17.1789C5.69474 17.8105 6.18947 18.3053 6.82105 18.6632C7.46316 19.0211 8.18421 19.2 8.98421 19.2C9.57368 19.2 10.1105 19.1 10.5947 18.9C11.0895 18.6895 11.5421 18.3842 11.9526 17.9842L13.1684 16.7684ZM9.93158 15.3316C9.77368 15.5105 9.56316 15.6 9.3 15.6C9.05789 15.6 8.84737 15.5105 8.66842 15.3316C8.48947 15.1526 8.4 14.9421 8.4 14.7C8.4 14.4368 8.48947 14.2263 8.66842 14.0684L14.0684 8.66842C14.2368 8.48947 14.4474 8.4 14.7 8.4C14.9526 8.4 15.1632 8.48947 15.3316 8.66842C15.5105 8.83684 15.6 9.04737 15.6 9.3C15.6 9.55263 15.5105 9.76316 15.3316 9.93158L9.93158 15.3316Z" fill="black"/>
</svg>
