<svg width="current" height="24" viewBox="0 0 24 24" fill="none" xmlns="http://www.w3.org/2000/svg">
<path d="M16.25 18.8C16.7868 18.8 17.2044 18.6509 17.5026 18.3526C17.8009 18.0544 17.95 17.6368 17.95 17.1V12C17.95 11.4632 17.8009 11.0456 17.5026 10.7474C17.2044 10.4491 16.7868 10.3 16.25 10.3H7.75001C7.21316 10.3 6.79562 10.4491 6.49737 10.7474C6.19913 11.0456 6.05001 11.4632 6.05001 12V17.1C6.05001 17.6368 6.19913 18.0544 6.49737 18.3526C6.79562 18.6509 7.21316 18.8 7.75001 18.8H16.25ZM7.75001 20.5C7.12369 20.5 6.55205 20.3509 6.03509 20.0526C5.51813 19.7444 5.10556 19.3319 4.79737 18.8149C4.49913 18.298 4.35001 17.7263 4.35001 17.1V12C4.35001 11.3737 4.49913 10.802 4.79737 10.2851C5.10556 9.75819 5.51813 9.34561 6.03509 9.04737C6.55205 8.74912 7.12369 8.6 7.75001 8.6H16.25C16.8763 8.6 17.448 8.74912 17.9649 9.04737C18.4918 9.34561 18.9044 9.75819 19.2026 10.2851C19.5009 10.802 19.65 11.3737 19.65 12V17.1C19.65 17.7263 19.5009 18.298 19.2026 18.8149C18.9044 19.3319 18.4918 19.7444 17.9649 20.0526C17.448 20.3509 16.8763 20.5 16.25 20.5H7.75001ZM12 12.85C12.3082 12.85 12.5915 12.9295 12.85 13.0886C13.1085 13.2377 13.3123 13.4415 13.4614 13.7C13.6205 13.9585 13.7 14.2418 13.7 14.55C13.7 14.8482 13.6205 15.1316 13.4614 15.4C13.3123 15.6585 13.1085 15.8673 12.85 16.0263C12.5915 16.1754 12.3082 16.25 12 16.25C11.7018 16.25 11.4184 16.1754 11.15 16.0263C10.8915 15.8673 10.6828 15.6585 10.5237 15.4C10.3746 15.1316 10.3 14.8482 10.3 14.55C10.3 14.2418 10.3746 13.9585 10.5237 13.7C10.6828 13.4415 10.8915 13.2377 11.15 13.0886C11.4184 12.9295 11.7018 12.85 12 12.85ZM8.60001 9.45V6.9C8.60001 6.27368 8.74913 5.70205 9.04738 5.18509C9.35556 4.65819 9.76814 4.24561 10.2851 3.94737C10.8021 3.64912 11.3737 3.5 12 3.5C12.6263 3.5 13.198 3.64912 13.7149 3.94737C14.2418 4.24561 14.6544 4.65819 14.9526 5.18509C15.2509 5.70205 15.4 6.27368 15.4 6.9V9.45H13.7V6.9C13.7 6.36316 13.5509 5.94561 13.2526 5.64737C12.9544 5.34912 12.5368 5.2 12 5.2C11.4632 5.2 11.0456 5.34912 10.7474 5.64737C10.4491 5.94561 10.3 6.36316 10.3 6.9V9.45H8.60001Z" fill="black"/>
</svg>
