<svg width="current" height="24" viewBox="0 0 24 24" fill="none" xmlns="http://www.w3.org/2000/svg">
<path d="M12 3C12.3626 3 12.6959 3.09357 13 3.2807C13.3041 3.45614 13.5439 3.69591 13.7193 4C13.9064 4.30409 14 4.63743 14 5C14 5.35088 13.9064 5.68421 13.7193 6C13.5439 6.30409 13.3041 6.54971 13 6.73684C12.6959 6.91228 12.3626 7 12 7C11.6491 7 11.3158 6.91228 11 6.73684C10.6959 6.54971 10.4503 6.30409 10.2632 6C10.0877 5.68421 10 5.35088 10 5C10 4.63743 10.0877 4.30409 10.2632 4C10.4503 3.69591 10.6959 3.45614 11 3.2807C11.3158 3.09357 11.6491 3 12 3ZM12 10C12.3626 10 12.6959 10.0936 13 10.2807C13.3041 10.4561 13.5439 10.6959 13.7193 11C13.9064 11.3041 14 11.6374 14 12C14 12.3509 13.9064 12.6842 13.7193 13C13.5439 13.3041 13.3041 13.5497 13 13.7368C12.6959 13.9123 12.3626 14 12 14C11.6491 14 11.3158 13.9123 11 13.7368C10.6959 13.5497 10.4503 13.3041 10.2632 13C10.0877 12.6842 10 12.3509 10 12C10 11.6374 10.0877 11.3041 10.2632 11C10.4503 10.6959 10.6959 10.4561 11 10.2807C11.3158 10.0936 11.6491 10 12 10ZM12 17C12.3626 17 12.6959 17.0936 13 17.2807C13.3041 17.4561 13.5439 17.6959 13.7193 18C13.9064 18.3041 14 18.6374 14 19C14 19.3509 13.9064 19.6842 13.7193 20C13.5439 20.3041 13.3041 20.5497 13 20.7368C12.6959 20.9123 12.3626 21 12 21C11.6491 21 11.3158 20.9123 11 20.7368C10.6959 20.5497 10.4503 20.3041 10.2632 20C10.0877 19.6842 10 19.3509 10 19C10 18.6374 10.0877 18.3041 10.2632 18C10.4503 17.6959 10.6959 17.4561 11 17.2807C11.3158 17.0936 11.6491 17 12 17Z" fill="black"/>
</svg>
