<svg width="current" height="24" viewBox="0 0 24 24" fill="none" xmlns="http://www.w3.org/2000/svg">
<path d="M4.8 10.2C4.8 9.54737 4.96316 8.94737 5.28948 8.4C5.61579 7.84211 6.05263 7.40526 6.6 7.08947C7.1579 6.76316 7.7579 6.6 8.4 6.6H15.6C16.2526 6.6 16.8526 6.76316 17.4 7.08947C17.9579 7.40526 18.3947 7.84211 18.7105 8.4C19.0368 8.94737 19.2 9.54737 19.2 10.2V17.4C19.2 18.0421 19.0368 18.6421 18.7105 19.2C18.3947 19.7474 17.9579 20.1842 17.4 20.5105C16.8526 20.8368 16.2526 21 15.6 21H8.4C7.7579 21 7.1579 20.8368 6.6 20.5105C6.05263 20.1842 5.61579 19.7474 5.28948 19.2C4.96316 18.6421 4.8 18.0421 4.8 17.4V10.2ZM6.6 17.4C6.6 17.7579 6.67369 18.0737 6.82106 18.3474C6.96842 18.6211 7.17895 18.8316 7.45263 18.9789C7.72632 19.1263 8.04211 19.2 8.4 19.2H15.6C15.9684 19.2 16.2895 19.1263 16.5632 18.9789C16.8368 18.8316 17.0421 18.6211 17.179 18.3474C17.3263 18.0737 17.4 17.7579 17.4 17.4V10.2C17.4 9.83158 17.3263 9.51053 17.179 9.23684C17.0421 8.96316 16.8368 8.7579 16.5632 8.62105C16.2895 8.47368 15.9684 8.4 15.6 8.4H8.4C8.04211 8.4 7.72632 8.47368 7.45263 8.62105C7.17895 8.7579 6.96842 8.96316 6.82106 9.23684C6.67369 9.51053 6.6 9.83158 6.6 10.2V17.4ZM10.2 9.3C10.2 9.54211 10.1105 9.75263 9.93158 9.93158C9.76316 10.1105 9.55263 10.2 9.3 10.2C9.0579 10.2 8.84737 10.1105 8.66842 9.93158C8.48948 9.75263 8.4 9.54211 8.4 9.3V6.6C8.4 5.94737 8.56316 5.34737 8.88948 4.8C9.21579 4.24211 9.65263 3.80526 10.2 3.48947C10.7579 3.16316 11.3579 3 12 3C12.6526 3 13.2526 3.16316 13.8 3.48947C14.3579 3.80526 14.7947 4.24211 15.1105 4.8C15.4368 5.34737 15.6 5.94737 15.6 6.6V9.3C15.6 9.54211 15.5105 9.75263 15.3316 9.93158C15.1632 10.1105 14.9526 10.2 14.7 10.2C14.4579 10.2 14.2474 10.1105 14.0684 9.93158C13.8895 9.75263 13.8 9.54211 13.8 9.3V6.6C13.8 6.23158 13.7263 5.91053 13.579 5.63684C13.4421 5.36316 13.2368 5.1579 12.9632 5.02105C12.6895 4.87368 12.3684 4.8 12 4.8C11.6421 4.8 11.3263 4.87368 11.0526 5.02105C10.779 5.1579 10.5684 5.36316 10.4211 5.63684C10.2737 5.91053 10.2 6.23158 10.2 6.6V9.3Z" fill="currentColor"/>
</svg>
