<svg width="current" height="24" viewBox="0 0 24 24" fill="none" xmlns="http://www.w3.org/2000/svg">
<path d="M12 5.59301C10.9566 5.59301 10.0064 5.83523 9.14934 6.31965C8.3016 6.80408 7.63551 7.47016 7.15109 8.3179C6.66666 9.16565 6.42445 10.1159 6.42445 11.1686C6.42445 11.9511 6.56419 12.6731 6.84366 13.3345C7.12314 13.9866 7.52838 14.5782 8.05938 15.1092L10.8402 17.89C11.2221 18.2626 11.6087 18.4489 12 18.4489C12.4006 18.4489 12.7918 18.2626 13.1738 17.89L15.9406 15.1231C16.4716 14.5828 16.8769 13.9866 17.1563 13.3345C17.4358 12.6731 17.5755 11.9511 17.5755 11.1686C17.5755 10.1159 17.3333 9.16565 16.8489 8.3179C16.3645 7.47016 15.6984 6.80408 14.8507 6.31965C14.0029 5.83523 13.0527 5.59301 12 5.59301ZM12 4C13.3042 4 14.506 4.3214 15.6052 4.96419C16.7045 5.59767 17.5709 6.46405 18.2044 7.56332C18.8472 8.66259 19.1686 9.86434 19.1686 11.1686C19.1686 12.1374 18.9822 13.0597 18.6096 13.9354C18.237 14.8111 17.7199 15.5796 17.0585 16.241L14.2917 19.0079C13.8725 19.4457 13.3834 19.7392 12.8244 19.8882C12.2748 20.0373 11.7252 20.0373 11.1755 19.8882C10.6352 19.7392 10.1508 19.4457 9.72227 19.0079L6.94148 16.2271C6.28005 15.575 5.76302 14.8157 5.39039 13.9493C5.01775 13.0737 4.83144 12.1467 4.83144 11.1686C4.83144 9.86434 5.15283 8.66259 5.79563 7.56332C6.43842 6.46405 7.3048 5.59767 8.39475 4.96419C9.49403 4.3214 10.6958 4 12 4ZM14.3895 10.3721C14.6131 10.3721 14.7994 10.4512 14.9485 10.6096C15.1068 10.7587 15.186 10.945 15.186 11.1686C15.186 11.3828 15.1068 11.5691 14.9485 11.7275C14.7994 11.8859 14.6131 11.9651 14.3895 11.9651H11.2035V8.77904C11.2035 8.55546 11.2827 8.36914 11.441 8.22009C11.5994 8.06172 11.7857 7.98253 12 7.98253C12.2236 7.98253 12.4099 8.06172 12.5589 8.22009C12.7173 8.36914 12.7965 8.55546 12.7965 8.77904V10.3721H14.3895ZM9.61048 11.9651C9.39621 11.9651 9.20989 11.8859 9.05152 11.7275C8.89315 11.5691 8.81397 11.3828 8.81397 11.1686C8.81397 10.945 8.89315 10.7587 9.05152 10.6096C9.20989 10.4512 9.39621 10.3721 9.61048 10.3721H12.7965V13.5581C12.7965 13.7723 12.7173 13.9587 12.5589 14.117C12.4099 14.2754 12.2236 14.3546 12 14.3546C11.7857 14.3546 11.5994 14.2754 11.441 14.117C11.2827 13.9587 11.2035 13.7723 11.2035 13.5581V11.9651H9.61048Z" fill="black"/>
</svg>
