<svg width="current" height="24" viewBox="0 0 24 24" fill="none" xmlns="http://www.w3.org/2000/svg">
<path d="M6 7.5C6 7.22386 6.22386 7 6.5 7H17.5C17.7761 7 18 7.22386 18 7.5C18 7.77614 17.7761 8 17.5 8H6.5C6.22386 8 6 7.77614 6 7.5Z" fill="currentColor"/>
<path d="M6 12C6 11.7239 6.22386 11.5 6.5 11.5H17.5C17.7761 11.5 18 11.7239 18 12C18 12.2761 17.7761 12.5 17.5 12.5H6.5C6.22386 12.5 6 12.2761 6 12Z" fill="currentColor"/>
<path d="M6 16.5C6 16.2239 6.22386 16 6.5 16H17.5C17.7761 16 18 16.2239 18 16.5C18 16.7761 17.7761 17 17.5 17H6.5C6.22386 17 6 16.7761 6 16.5Z" fill="currentColor"/>
<path d="M11.75 16.5C11.75 17.3284 11.0784 18 10.25 18C9.42157 18 8.75 17.3284 8.75 16.5C8.75 15.6716 9.42157 15 10.25 15C11.0784 15 11.75 15.6716 11.75 16.5Z" fill="currentColor"/>
<path d="M11 7.5C11 8.32843 10.3284 9 9.5 9C8.67157 9 8 8.32843 8 7.5C8 6.67157 8.67157 6 9.5 6C10.3284 6 11 6.67157 11 7.5Z" fill="currentColor"/>
<path d="M15.5 12C15.5 12.8284 14.8284 13.5 14 13.5C13.1716 13.5 12.5 12.8284 12.5 12C12.5 11.1716 13.1716 10.5 14 10.5C14.8284 10.5 15.5 11.1716 15.5 12Z" fill="currentColor"/>
</svg>
