<svg width="current" height="24" viewBox="0 0 24 24" fill="none" xmlns="http://www.w3.org/2000/svg">
<path d="M19.1111 11.1111C19.3606 11.1111 19.5686 11.1995 19.7349 11.3762C19.9116 11.5426 20 11.7505 20 12C20 12.2391 19.9116 12.447 19.7349 12.6238C19.5686 12.8005 19.3606 12.8889 19.1111 12.8889H4.88889C4.64977 12.8889 4.44185 12.8005 4.26511 12.6238C4.08837 12.447 4 12.2391 4 12C4 11.7505 4.08837 11.5426 4.26511 11.3762C4.44185 11.1995 4.64977 11.1111 4.88889 11.1111H19.1111ZM19.1111 5.77778C19.3606 5.77778 19.5686 5.86615 19.7349 6.04289C19.9116 6.20923 20 6.41716 20 6.66667C20 6.90578 19.9116 7.11371 19.7349 7.29045C19.5686 7.46719 19.3606 7.55556 19.1111 7.55556H4.88889C4.64977 7.55556 4.44185 7.46719 4.26511 7.29045C4.08837 7.11371 4 6.90578 4 6.66667C4 6.41716 4.08837 6.20923 4.26511 6.04289C4.44185 5.86615 4.64977 5.77778 4.88889 5.77778H19.1111ZM19.1111 16.4444C19.3606 16.4444 19.5686 16.5328 19.7349 16.7096C19.9116 16.8759 20 17.0838 20 17.3333C20 17.5725 19.9116 17.7804 19.7349 17.9571C19.5686 18.1339 19.3606 18.2222 19.1111 18.2222H4.88889C4.64977 18.2222 4.44185 18.1339 4.26511 17.9571C4.08837 17.7804 4 17.5725 4 17.3333C4 17.0838 4.08837 16.8759 4.26511 16.7096C4.44185 16.5328 4.64977 16.4444 4.88889 16.4444H19.1111Z" fill="currentColor"/>
</svg>
