<svg width="current" height="24" viewBox="0 0 24 24" fill="none" xmlns="http://www.w3.org/2000/svg">
<path d="M12 5.59301C10.9566 5.59301 10.0064 5.83523 9.14934 6.31965C8.3016 6.80408 7.63551 7.47016 7.15109 8.3179C6.66666 9.16565 6.42445 10.1159 6.42445 11.1686C6.42445 11.9511 6.56419 12.6731 6.84366 13.3345C7.12314 13.9866 7.52838 14.5782 8.05938 15.1092L10.8402 17.89C11.2221 18.2626 11.6087 18.4489 12 18.4489C12.4006 18.4489 12.7918 18.2626 13.1738 17.89L15.9406 15.1231C16.4716 14.5828 16.8769 13.9866 17.1563 13.3345C17.4358 12.6731 17.5755 11.9511 17.5755 11.1686C17.5755 10.1159 17.3333 9.16565 16.8489 8.3179C16.3645 7.47016 15.6984 6.80408 14.8507 6.31965C14.0029 5.83523 13.0527 5.59301 12 5.59301ZM12 4C13.3042 4 14.506 4.3214 15.6052 4.96419C16.7045 5.59767 17.5709 6.46405 18.2044 7.56332C18.8472 8.66259 19.1686 9.86434 19.1686 11.1686C19.1686 12.1374 18.9822 13.0597 18.6096 13.9354C18.237 14.8111 17.7199 15.5796 17.0585 16.241L14.2917 19.0079C13.8725 19.4457 13.3834 19.7392 12.8244 19.8882C12.2748 20.0373 11.7252 20.0373 11.1755 19.8882C10.6352 19.7392 10.1508 19.4457 9.72227 19.0079L6.94148 16.2271C6.28005 15.575 5.76302 14.8157 5.39039 13.9493C5.01775 13.0737 4.83144 12.1467 4.83144 11.1686C4.83144 9.86434 5.15283 8.66259 5.79563 7.56332C6.43842 6.46405 7.3048 5.59767 8.39475 4.96419C9.49403 4.3214 10.6958 4 12 4ZM10.407 11.1686C10.407 10.8798 10.4769 10.6143 10.6166 10.3721C10.7656 10.1298 10.9613 9.93887 11.2035 9.79913C11.455 9.65007 11.7205 9.57555 12 9.57555C12.2888 9.57555 12.5543 9.65007 12.7965 9.79913C13.0387 9.93887 13.2297 10.1298 13.3694 10.3721C13.5185 10.6143 13.593 10.8798 13.593 11.1686C13.593 11.448 13.5185 11.7135 13.3694 11.9651C13.2297 12.2073 13.0387 12.4029 12.7965 12.552C12.5543 12.6917 12.2888 12.7616 12 12.7616C11.7205 12.7616 11.455 12.6917 11.2035 12.552C10.9613 12.4029 10.7656 12.2073 10.6166 11.9651C10.4769 11.7135 10.407 11.448 10.407 11.1686Z" fill="black"/>
</svg>
