<svg width="current" height="24" viewBox="0 0 24 24" fill="none" xmlns="http://www.w3.org/2000/svg">
<path d="M15.1111 6.55556C14.9019 6.55556 14.7199 6.47823 14.5653 6.32359C14.4107 6.16894 14.3333 5.987 14.3333 5.77778C14.3333 5.55945 14.4107 5.37752 14.5653 5.23197C14.7199 5.07732 14.9019 5 15.1111 5H15.8889C16.4529 5 16.9714 5.141 17.4444 5.423C17.9266 5.69591 18.3041 6.07342 18.577 6.55556C18.859 7.02859 19 7.54711 19 8.11111V15.8889C19 16.4438 18.859 16.9623 18.577 17.4444C18.3041 17.9175 17.9266 18.295 17.4444 18.577C16.9714 18.859 16.4529 19 15.8889 19H15.1111C14.9019 19 14.7199 18.9227 14.5653 18.768C14.4107 18.6134 14.3333 18.4314 14.3333 18.2222C14.3333 18.0039 14.4107 17.822 14.5653 17.6764C14.7199 17.5218 14.9019 17.4444 15.1111 17.4444H15.8889C16.2073 17.4444 16.4847 17.3808 16.7212 17.2534C16.9578 17.1261 17.1352 16.9441 17.2534 16.7076C17.3808 16.4711 17.4444 16.1982 17.4444 15.8889V8.11111C17.4444 7.79272 17.3808 7.51527 17.2534 7.27875C17.1352 7.04223 16.9578 6.86485 16.7212 6.74659C16.4847 6.61923 16.2073 6.55556 15.8889 6.55556H15.1111ZM12.5458 15.6569C12.4094 15.8116 12.2274 15.8889 12 15.8889C11.7908 15.8889 11.6088 15.8116 11.4542 15.6569C11.2995 15.5023 11.2222 15.3203 11.2222 15.1111C11.2222 14.8837 11.2995 14.7018 11.4542 14.5653L14.4834 11.5361C14.5289 11.4906 14.5608 11.5588 14.5789 11.7407C14.5971 11.9136 14.5971 12.091 14.5789 12.2729C14.5608 12.4457 14.5289 12.5094 14.4834 12.4639L11.4542 9.4347C11.2995 9.28915 11.2222 9.10721 11.2222 8.88889C11.2222 8.67057 11.2995 8.48863 11.4542 8.34308C11.6088 8.18843 11.7908 8.11111 12 8.11111C12.2274 8.11111 12.4094 8.18843 12.5458 8.34308L15.575 11.3723C15.7479 11.5361 15.8343 11.7453 15.8343 12C15.8343 12.2456 15.7479 12.4548 15.575 12.6277L12.5458 15.6569ZM15.1111 11.2222C15.3294 11.2222 15.5114 11.2995 15.6569 11.4542C15.8116 11.5997 15.8889 11.7817 15.8889 12C15.8889 12.2092 15.8116 12.3912 15.6569 12.5458C15.5114 12.7005 15.3294 12.7778 15.1111 12.7778H5.77778C5.56855 12.7778 5.38661 12.7005 5.23197 12.5458C5.07732 12.3912 5 12.2092 5 12C5 11.7817 5.07732 11.5997 5.23197 11.4542C5.38661 11.2995 5.56855 11.2222 5.77778 11.2222H15.1111Z" fill="black"/>
</svg>
