<svg width="current" height="24" viewBox="0 0 24 24" fill="none" xmlns="http://www.w3.org/2000/svg">
<path d="M15.75 11.25H15C14.8011 11.25 14.6103 11.329 14.4697 11.4697C14.329 11.6103 14.25 11.8011 14.25 12C14.25 12.1989 14.329 12.3897 14.4697 12.5303C14.6103 12.671 14.8011 12.75 15 12.75H15.75C15.9489 12.75 16.1397 12.671 16.2803 12.5303C16.421 12.3897 16.5 12.1989 16.5 12C16.5 11.8011 16.421 11.6103 16.2803 11.4697C16.1397 11.329 15.9489 11.25 15.75 11.25ZM15.75 14.25H15C14.8011 14.25 14.6103 14.329 14.4697 14.4697C14.329 14.6103 14.25 14.8011 14.25 15C14.25 15.1989 14.329 15.3897 14.4697 15.5303C14.6103 15.671 14.8011 15.75 15 15.75H15.75C15.9489 15.75 16.1397 15.671 16.2803 15.5303C16.421 15.3897 16.5 15.1989 16.5 15C16.5 14.8011 16.421 14.6103 16.2803 14.4697C16.1397 14.329 15.9489 14.25 15.75 14.25ZM11.25 9.75H15.75C15.9489 9.75 16.1397 9.67098 16.2803 9.53033C16.421 9.38968 16.5 9.19891 16.5 9C16.5 8.80109 16.421 8.61032 16.2803 8.46967C16.1397 8.32902 15.9489 8.25 15.75 8.25H11.25C11.0511 8.25 10.8603 8.32902 10.7197 8.46967C10.579 8.61032 10.5 8.80109 10.5 9C10.5 9.19891 10.579 9.38968 10.7197 9.53033C10.8603 9.67098 11.0511 9.75 11.25 9.75V9.75ZM18.75 5.25H8.25C8.05109 5.25 7.86032 5.32902 7.71967 5.46967C7.57902 5.61032 7.5 5.80109 7.5 6V8.25H5.25C5.05109 8.25 4.86032 8.32902 4.71967 8.46967C4.57902 8.61032 4.5 8.80109 4.5 9V16.5C4.5 17.0967 4.73705 17.669 5.15901 18.091C5.58097 18.5129 6.15326 18.75 6.75 18.75H16.5C17.2956 18.75 18.0587 18.4339 18.6213 17.8713C19.1839 17.3087 19.5 16.5456 19.5 15.75V6C19.5 5.80109 19.421 5.61032 19.2803 5.46967C19.1397 5.32902 18.9489 5.25 18.75 5.25V5.25ZM7.5 16.5C7.5 16.6989 7.42098 16.8897 7.28033 17.0303C7.13968 17.171 6.94891 17.25 6.75 17.25C6.55109 17.25 6.36032 17.171 6.21967 17.0303C6.07902 16.8897 6 16.6989 6 16.5V9.75H7.5V16.5ZM18 15.75C18 16.1478 17.842 16.5294 17.5607 16.8107C17.2794 17.092 16.8978 17.25 16.5 17.25H8.865C8.95232 17.0095 8.99797 16.7559 9 16.5V6.75H18V15.75ZM11.25 12.75H12C12.1989 12.75 12.3897 12.671 12.5303 12.5303C12.671 12.3897 12.75 12.1989 12.75 12C12.75 11.8011 12.671 11.6103 12.5303 11.4697C12.3897 11.329 12.1989 11.25 12 11.25H11.25C11.0511 11.25 10.8603 11.329 10.7197 11.4697C10.579 11.6103 10.5 11.8011 10.5 12C10.5 12.1989 10.579 12.3897 10.7197 12.5303C10.8603 12.671 11.0511 12.75 11.25 12.75V12.75ZM11.25 15.75H12C12.1989 15.75 12.3897 15.671 12.5303 15.5303C12.671 15.3897 12.75 15.1989 12.75 15C12.75 14.8011 12.671 14.6103 12.5303 14.4697C12.3897 14.329 12.1989 14.25 12 14.25H11.25C11.0511 14.25 10.8603 14.329 10.7197 14.4697C10.579 14.6103 10.5 14.8011 10.5 15C10.5 15.1989 10.579 15.3897 10.7197 15.5303C10.8603 15.671 11.0511 15.75 11.25 15.75V15.75Z" fill="currentColor"/>
</svg>
