<svg width="current" height="24" viewBox="0 0 24 24" fill="none" xmlns="http://www.w3.org/2000/svg">
<path d="M18.2961 12.002C18.1105 12.002 17.9326 12.0758 17.8013 12.207C17.6701 12.3382 17.5963 12.5162 17.5963 12.7018V16.9006C17.5963 17.0862 17.5226 17.2642 17.3914 17.3954C17.2601 17.5267 17.0821 17.6004 16.8966 17.6004H7.09939C6.91379 17.6004 6.7358 17.5267 6.60456 17.3954C6.47332 17.2642 6.39959 17.0862 6.39959 16.9006V7.10345C6.39959 6.91785 6.47332 6.73986 6.60456 6.60862C6.7358 6.47738 6.91379 6.40365 7.09939 6.40365H11.2982C11.4838 6.40365 11.6618 6.32992 11.793 6.19869C11.9242 6.06745 11.998 5.88945 11.998 5.70385C11.998 5.51826 11.9242 5.34026 11.793 5.20902C11.6618 5.07779 11.4838 5.00406 11.2982 5.00406H7.09939C6.5426 5.00406 6.00861 5.22524 5.6149 5.61896C5.22119 6.01267 5 6.54666 5 7.10345V16.9006C5 17.4574 5.22119 17.9914 5.6149 18.3851C6.00861 18.7788 6.5426 19 7.09939 19H16.8966C17.4533 19 17.9873 18.7788 18.381 18.3851C18.7748 17.9914 18.9959 17.4574 18.9959 16.9006V12.7018C18.9959 12.5162 18.9222 12.3382 18.791 12.207C18.6597 12.0758 18.4817 12.002 18.2961 12.002ZM7.79919 12.5339V15.501C7.79919 15.6866 7.87292 15.8646 8.00415 15.9958C8.13539 16.1271 8.31339 16.2008 8.49899 16.2008H11.4661C11.5582 16.2013 11.6495 16.1837 11.7348 16.1489C11.82 16.114 11.8976 16.0627 11.963 15.9979L16.8056 11.1483L18.793 9.20284C18.8586 9.13778 18.9107 9.06039 18.9462 8.97511C18.9817 8.88983 19 8.79837 19 8.70598C19 8.6136 18.9817 8.52214 18.9462 8.43686C18.9107 8.35158 18.8586 8.27418 18.793 8.20913L15.8259 5.207C15.7608 5.14141 15.6834 5.08935 15.5981 5.05382C15.5129 5.01829 15.4214 5 15.329 5C15.2366 5 15.1452 5.01829 15.0599 5.05382C14.9746 5.08935 14.8972 5.14141 14.8321 5.207L12.8587 7.18742L8.00213 12.037C7.93727 12.1024 7.88596 12.18 7.85113 12.2652C7.81631 12.3505 7.79866 12.4418 7.79919 12.5339V12.5339ZM15.329 6.69057L17.3094 8.67099L16.3157 9.66471L14.3353 7.68428L15.329 6.69057ZM9.19878 12.8208L13.3486 8.67099L15.329 10.6514L11.1792 14.8012H9.19878V12.8208Z" fill="currentColor"/>
</svg>
