<svg width="current" height="24" viewBox="0 0 24 24" fill="none" xmlns="http://www.w3.org/2000/svg">
<path d="M17.3333 11.3333C17.5205 11.3333 17.6764 11.3996 17.8012 11.5322C17.9337 11.6569 18 11.8129 18 12C18 12.1793 17.9337 12.3353 17.8012 12.4678C17.6764 12.6004 17.5205 12.6667 17.3333 12.6667H11.3333V6.66667C11.3333 6.47953 11.3996 6.32359 11.5322 6.19883C11.6647 6.06628 11.8207 6 12 6C12.1871 6 12.3431 6.06628 12.4678 6.19883C12.6004 6.32359 12.6667 6.47953 12.6667 6.66667V11.3333H17.3333ZM6.66667 12.6667C6.48733 12.6667 6.33138 12.6004 6.19883 12.4678C6.06628 12.3353 6 12.1793 6 12C6 11.8129 6.06628 11.6569 6.19883 11.5322C6.33138 11.3996 6.48733 11.3333 6.66667 11.3333H12.6667V17.3333C12.6667 17.5127 12.6004 17.6686 12.4678 17.8012C12.3431 17.9337 12.1871 18 12 18C11.8207 18 11.6647 17.9337 11.5322 17.8012C11.3996 17.6686 11.3333 17.5127 11.3333 17.3333V12.6667H6.66667Z" fill="black"/>
</svg>
