<svg width="current" height="24" viewBox="0 0 24 24" fill="none" xmlns="http://www.w3.org/2000/svg">
<path d="M14.6667 11.619C14.6667 11.824 14.5909 12.0022 14.4394 12.1537C14.2969 12.3052 14.1186 12.381 13.9048 12.381C13.6998 12.381 13.5216 12.3052 13.3701 12.1537C13.2186 12.0022 13.1429 11.824 13.1429 11.619V10.8571C13.1429 10.6433 13.2186 10.4651 13.3701 10.3225C13.5216 10.171 13.6998 10.0952 13.9048 10.0952C14.1186 10.0952 14.2969 10.171 14.4394 10.3225C14.5909 10.4651 14.6667 10.6433 14.6667 10.8571V11.619ZM10.0952 11.619C10.0952 11.824 10.0195 12.0022 9.868 12.1537C9.72542 12.3052 9.5472 12.381 9.33333 12.381C9.12838 12.381 8.95015 12.3052 8.79866 12.1537C8.64717 12.0022 8.57143 11.824 8.57143 11.619V10.8571C8.57143 10.6433 8.64717 10.4651 8.79866 10.3225C8.95015 10.171 9.12838 10.0952 9.33333 10.0952C9.5472 10.0952 9.72542 10.171 9.868 10.3225C10.0195 10.4651 10.0952 10.6433 10.0952 10.8571V11.619ZM8.93233 15.0677C8.78084 14.934 8.7051 14.7558 8.7051 14.533C8.7051 14.3191 8.78084 14.1409 8.93233 13.9983C9.08382 13.8468 9.26204 13.7711 9.467 13.7711C9.68978 13.7711 9.868 13.8468 10.0017 13.9983C10.2423 14.23 10.4873 14.3993 10.7368 14.5063C10.9953 14.6132 11.2893 14.6667 11.619 14.6667C11.9488 14.6667 12.2428 14.6132 12.5013 14.5063C12.7597 14.3993 13.0047 14.23 13.2364 13.9983C13.3701 13.8468 13.5483 13.7711 13.7711 13.7711C13.985 13.7711 14.1632 13.8468 14.3058 13.9983C14.4573 14.1409 14.533 14.3191 14.533 14.533C14.533 14.7469 14.4573 14.9251 14.3058 15.0677C13.9493 15.4241 13.5349 15.7004 13.0627 15.8964C12.5993 16.0925 12.1181 16.1905 11.619 16.1905C11.12 16.1905 10.6344 16.0925 10.1621 15.8964C9.69869 15.7004 9.28878 15.4241 8.93233 15.0677ZM17.7143 12.381C17.7143 12.1671 17.79 11.9889 17.9415 11.8463C18.093 11.6948 18.2712 11.619 18.4762 11.619C18.6901 11.619 18.8683 11.6948 19.0109 11.8463C19.1624 11.9889 19.2381 12.1671 19.2381 12.381C19.2381 13.7533 18.895 15.0276 18.2089 16.2038C17.5316 17.3712 16.6048 18.298 15.4286 18.9841C14.2612 19.6614 12.9914 20 11.619 20C10.2467 20 8.97243 19.6614 7.79616 18.9841C6.62879 18.298 5.70203 17.3712 5.01587 16.2038C4.33862 15.0276 4 13.7533 4 12.381C4 10.9997 4.33862 9.72542 5.01587 8.55806C5.70203 7.3907 6.62879 6.46839 7.79616 5.79114C8.97243 5.10498 10.2467 4.7619 11.619 4.7619C11.8329 4.7619 12.0111 4.83765 12.1537 4.98914C12.3052 5.13172 12.381 5.30994 12.381 5.52381C12.381 5.72877 12.3052 5.90699 12.1537 6.05848C12.0111 6.20997 11.8329 6.28571 11.619 6.28571C10.4873 6.28571 9.45363 6.55305 8.51796 7.08772C7.5912 7.61348 6.86048 8.34419 6.32581 9.27987C5.79114 10.2066 5.52381 11.2403 5.52381 12.381C5.52381 13.5127 5.79114 14.5464 6.32581 15.482C6.86048 16.4088 7.5912 17.1395 8.51796 17.6742C9.45363 18.2089 10.4873 18.4762 11.619 18.4762C12.7597 18.4762 13.7934 18.2089 14.7201 17.6742C15.6558 17.1395 16.3865 16.4088 16.9123 15.482C17.447 14.5464 17.7143 13.5127 17.7143 12.381ZM19.2381 6.28571C19.452 6.28571 19.6302 6.36146 19.7728 6.51295C19.9243 6.65553 20 6.83375 20 7.04762C20 7.25258 19.9243 7.4308 19.7728 7.58229C19.6302 7.73378 19.452 7.80952 19.2381 7.80952H16.1905V4.7619C16.1905 4.54804 16.2662 4.36981 16.4177 4.22723C16.5692 4.07574 16.7474 4 16.9524 4C17.1662 4 17.3445 4.07574 17.4871 4.22723C17.6385 4.36981 17.7143 4.54804 17.7143 4.7619V6.28571H19.2381ZM14.6667 7.80952C14.4617 7.80952 14.2835 7.73378 14.132 7.58229C13.9805 7.4308 13.9048 7.25258 13.9048 7.04762C13.9048 6.83375 13.9805 6.65553 14.132 6.51295C14.2835 6.36146 14.4617 6.28571 14.6667 6.28571H17.7143V9.33333C17.7143 9.53829 17.6385 9.71651 17.4871 9.868C17.3445 10.0195 17.1662 10.0952 16.9524 10.0952C16.7474 10.0952 16.5692 10.0195 16.4177 9.868C16.2662 9.71651 16.1905 9.53829 16.1905 9.33333V7.80952H14.6667Z" fill="black"/>
</svg>
