<svg width="current" height="24" viewBox="0 0 24 24" fill="none" xmlns="http://www.w3.org/2000/svg">
<path d="M7.47308 18.8921C7.36565 18.964 7.24129 19 7.1 19C6.9117 19 6.74795 18.9304 6.60877 18.7912C6.46959 18.652 6.4 18.4883 6.4 18.3V7.8C6.4 7.28421 6.52281 6.81345 6.76842 6.38772C7.02222 5.9538 7.36199 5.61404 7.78772 5.36842C8.22164 5.12281 8.6924 5 9.2 5H14.8C15.3158 5 15.7866 5.12281 16.2123 5.36842C16.6462 5.61404 16.986 5.9538 17.2316 6.38772C17.4772 6.81345 17.6 7.28421 17.6 7.8V18.3C17.6 18.4883 17.5304 18.652 17.3912 18.7912C17.2602 18.9304 17.0965 19 16.9 19C16.7507 19 16.6169 18.9563 16.4985 18.8688L12 16.2982L7.47308 18.8921Z" fill="currentColor"/>
</svg>
