<svg width="current" height="24" viewBox="0 0 24 24" fill="none" xmlns="http://www.w3.org/2000/svg">
<path d="M12.9088 5.97018C12.5594 6.14973 12.2445 6.36667 11.9641 6.62101C11.6857 6.37228 11.3582 6.10739 11.0912 5.97018C10.5018 5.66725 9.87134 5.51579 9.2 5.51579C8.44678 5.51579 7.74678 5.70409 7.1 6.0807C6.45322 6.45731 5.94152 6.96901 5.56491 7.61579C5.1883 8.25439 5 8.95439 5 9.71579C5 11.5906 5.53216 13.2117 6.59649 14.5789C7.66901 15.9462 8.87661 17.0596 10.2193 17.9193C10.8088 18.2959 11.4023 18.4842 12 18.4842C12.5977 18.4842 13.1912 18.2959 13.7807 17.9193C15.1234 17.0596 16.3269 15.9462 17.3912 14.5789C18.4637 13.2117 19 11.5906 19 9.71579C19 8.95439 18.8117 8.25439 18.4351 7.61579C18.0585 6.96901 17.5468 6.45731 16.9 6.0807C16.2614 5.70409 15.5614 5.51579 14.8 5.51579C14.1287 5.51579 13.4982 5.66725 12.9088 5.97018Z" fill="black"/>
</svg>
