<svg width="current" height="24" viewBox="0 0 24 24" fill="none" xmlns="http://www.w3.org/2000/svg">
<path d="M10.7684 5.5273C10.9326 5.20798 11.1789 4.98902 11.5073 4.87041C11.8358 4.75181 12.1642 4.75181 12.4927 4.87041C12.8211 4.98902 13.0674 5.20798 13.2317 5.5273L14.7507 8.57908C14.7781 8.64294 14.81 8.68856 14.8465 8.71593C14.883 8.7433 14.9377 8.75698 15.0107 8.75698L18.3362 9.23596C18.692 9.2907 18.9749 9.45492 19.1847 9.72863C19.4037 10.0023 19.5086 10.3171 19.4995 10.6729C19.4995 11.0196 19.3672 11.3252 19.1026 11.5898L16.6666 13.9573C16.6119 14.0121 16.58 14.0577 16.5708 14.0942C16.5617 14.1307 16.5663 14.1945 16.5845 14.2858L17.1593 17.5976C17.214 17.9625 17.1411 18.2909 16.9403 18.5829C16.7396 18.8748 16.4705 19.071 16.1329 19.1714C15.8045 19.2626 15.476 19.2215 15.1476 19.0482L12.1642 17.4881C12.1004 17.4425 12.0456 17.4197 12 17.4197C11.9635 17.4197 11.9088 17.4425 11.8358 17.4881L8.85244 19.0482C8.53312 19.2215 8.20467 19.2626 7.86711 19.1714C7.52954 19.071 7.2604 18.8748 7.05969 18.5829C6.85897 18.2909 6.79055 17.9625 6.85441 17.5976L7.42918 14.2858C7.43831 14.2037 7.43375 14.1444 7.4155 14.1079C7.40638 14.0622 7.37444 14.0121 7.3197 13.9573L4.89744 11.5898C4.64198 11.3252 4.50969 11.0196 4.50057 10.6729C4.49145 10.3171 4.5918 10.0023 4.80164 9.72863C5.0206 9.45492 5.30799 9.2907 5.6638 9.23596L8.98929 8.75698C9.06227 8.75698 9.11701 8.7433 9.15351 8.71593C9.19913 8.68856 9.23562 8.64294 9.26299 8.57908L10.7684 5.5273Z" fill="black"/>
</svg>
