<svg width="current" height="24" viewBox="0 0 24 24" fill="none" xmlns="http://www.w3.org/2000/svg">
<path d="M5.6 15.2C5.6 15.7053 5.74035 16.0982 6.02105 16.3789C6.30175 16.6596 6.69474 16.8 7.2 16.8H13.6C14.1053 16.8 14.4982 16.6596 14.7789 16.3789C15.0596 16.0982 15.2 15.7053 15.2 15.2V8.8C15.2 8.29474 15.0596 7.90175 14.7789 7.62105C14.4982 7.34035 14.1053 7.2 13.6 7.2H7.2C6.69474 7.2 6.30175 7.34035 6.02105 7.62105C5.74035 7.90175 5.6 8.29474 5.6 8.8V15.2ZM4 8.8C4 8.21053 4.14035 7.67251 4.42105 7.18596C4.71111 6.69006 5.09942 6.30175 5.58596 6.02105C6.08187 5.74035 6.61988 5.6 7.2 5.6H13.6C14.1895 5.6 14.7275 5.74035 15.214 6.02105C15.7099 6.30175 16.0982 6.69006 16.3789 7.18596C16.6596 7.67251 16.8 8.21053 16.8 8.8V15.2C16.8 15.7801 16.6596 16.3181 16.3789 16.814C16.0982 17.3006 15.7099 17.6889 15.214 17.9789C14.7275 18.2596 14.1895 18.4 13.6 18.4H7.2C6.61988 18.4 6.08187 18.2596 5.58596 17.9789C5.09942 17.6889 4.71111 17.3006 4.42105 16.814C4.14035 16.3181 4 15.7801 4 15.2V8.8ZM16.8 11.607V12.393L19.0456 14.0772C18.8211 14.2363 18.6573 14.3673 18.5544 14.4702C18.4515 14.5637 18.4 14.6292 18.4 14.6667V9.33333C18.4 9.27719 18.4842 9.28187 18.6526 9.34737C18.8211 9.40351 18.9754 9.47836 19.1158 9.57193C19.2655 9.65614 19.317 9.71696 19.2702 9.75439L16.8 11.607ZM18.2877 8.49123C18.5123 8.31345 18.7556 8.2386 19.0175 8.26667C19.2889 8.29474 19.5181 8.40702 19.7053 8.60351C19.9018 8.8 20 9.04328 20 9.33333V14.6667C20 14.9567 19.9018 15.2 19.7053 15.3965C19.5181 15.593 19.2889 15.7053 19.0175 15.7333C18.7556 15.7614 18.5123 15.6865 18.2877 15.5088L15.2 13.207V10.793L18.2877 8.49123Z" fill="currentColor"/>
</svg>
