<svg width="32" height="32" viewBox="0 0 32 32" fill="none" xmlns="http://www.w3.org/2000/svg">
<rect width="32" height="32" rx="16" fill="#1877F2"/>
<path d="M25.25 14C25.25 8.47715 20.7729 4 15.25 4C9.72715 4 5.25 8.47715 5.25 14C5.25 18.9912 8.90684 23.1283 13.6875 23.8785V16.8906H11.1484V14H13.6875V11.7969C13.6875 9.29063 15.1805 7.90625 17.4646 7.90625C18.5584 7.90625 19.7031 8.10156 19.7031 8.10156V10.5625H18.4422C17.2 10.5625 16.8125 11.3334 16.8125 12.125V14H19.5859L19.1426 16.8906H16.8125V23.8785C21.5932 23.1283 25.25 18.9912 25.25 14Z" fill="#1877F2"/>
<path d="M19.1426 16.8906L19.5859 14H16.8125V12.125C16.8125 11.3342 17.2 10.5625 18.4422 10.5625H19.7031V8.10156C19.7031 8.10156 18.5588 7.90625 17.4646 7.90625C15.1805 7.90625 13.6875 9.29063 13.6875 11.7969V14H11.1484V16.8906H13.6875V23.8785C14.7229 24.0405 15.7771 24.0405 16.8125 23.8785V16.8906H19.1426Z" fill="white"/>
</svg>
