<svg width="32" height="32" viewBox="0 0 32 32" fill="none" xmlns="http://www.w3.org/2000/svg">
<rect width="32" height="32" rx="16" fill="#979FA9"/>
<path d="M16.0053 8.62102C18.4114 8.62102 18.6963 8.63157 19.6426 8.67376C20.522 8.71244 20.9969 8.86013 21.3135 8.9832C21.7321 9.14495 22.0346 9.34186 22.3477 9.65482C22.6643 9.97128 22.8577 10.2702 23.0195 10.6886C23.1427 11.0051 23.2904 11.4833 23.3291 12.3589C23.3713 13.3083 23.3819 13.5931 23.3819 15.9947C23.3819 18.3999 23.3713 18.6847 23.3291 19.6306C23.2904 20.5097 23.1427 20.9844 23.0195 21.3008C22.8577 21.7193 22.6607 22.0217 22.3477 22.3346C22.0311 22.6511 21.7321 22.8445 21.3135 23.0063C20.9969 23.1293 20.5185 23.277 19.6426 23.3157C18.6928 23.3579 18.4079 23.3684 16.0053 23.3684C13.5992 23.3684 13.3142 23.3579 12.368 23.3157C11.4886 23.277 11.0137 23.1293 10.6971 23.0063C10.2785 22.8445 9.97596 22.6476 9.66289 22.3346C9.3463 22.0182 9.15282 21.7193 8.99101 21.3008C8.86789 20.9844 8.72015 20.5062 8.68145 19.6306C8.63924 18.6812 8.62869 18.3964 8.62869 15.9947C8.62869 13.5896 8.63924 13.3047 8.68145 12.3589C8.72015 11.4798 8.86789 11.0051 8.99101 10.6886C9.15282 10.2702 9.34981 9.96777 9.66289 9.65482C9.97948 9.33835 10.2785 9.14495 10.6971 8.9832C11.0137 8.86013 11.4921 8.71244 12.368 8.67376C13.3142 8.63157 13.5992 8.62102 16.0053 8.62102ZM16.0053 7C13.5605 7 13.2544 7.01055 12.2941 7.05274C11.3373 7.09494 10.6795 7.24966 10.1096 7.47119C9.51515 7.70326 9.01212 8.00918 8.51261 8.51201C8.00958 9.01133 7.70354 9.51416 7.47137 10.1049C7.24976 10.6781 7.09498 11.3321 7.05277 12.2885C7.01055 13.252 7 13.5579 7 16.0018C7 18.4456 7.01055 18.7515 7.05277 19.7115C7.09498 20.6679 7.24976 21.3255 7.47137 21.8951C7.70354 22.4894 8.00958 22.9922 8.51261 23.4915C9.01212 23.9908 9.51515 24.3003 10.1061 24.5288C10.6795 24.7503 11.3338 24.9051 12.2906 24.9473C13.2509 24.9895 13.557 25 16.0018 25C18.4466 25 18.7526 24.9895 19.7129 24.9473C20.6697 24.9051 21.3275 24.7503 21.8974 24.5288C22.4884 24.3003 22.9914 23.9908 23.4909 23.4915C23.9904 22.9922 24.3 22.4894 24.5286 21.8986C24.7502 21.3255 24.905 20.6714 24.9472 19.715C24.9894 18.755 25 18.4491 25 16.0053C25 13.5614 24.9894 13.2555 24.9472 12.2956C24.905 11.3391 24.7502 10.6816 24.5286 10.1119C24.307 9.51416 24.001 9.01133 23.4979 8.51201C22.9984 8.0127 22.4954 7.70326 21.9044 7.4747C21.3311 7.25317 20.6768 7.09846 19.72 7.05626C18.7561 7.01055 18.4501 7 16.0053 7Z" fill="white"/>
<path d="M16.0058 11.3779C13.452 11.3779 11.3801 13.449 11.3801 16.0018C11.3801 18.5547 13.452 20.6258 16.0058 20.6258C18.5597 20.6258 20.6316 18.5547 20.6316 16.0018C20.6316 13.449 18.5597 11.3779 16.0058 11.3779ZM16.0058 19.0012C14.349 19.0012 13.0052 17.658 13.0052 16.0018C13.0052 14.3456 14.349 13.0024 16.0058 13.0024C17.6627 13.0024 19.0064 14.3456 19.0064 16.0018C19.0064 17.658 17.6627 19.0012 16.0058 19.0012Z" fill="white"/>
<path d="M21.8939 11.195C21.8939 11.7927 21.4085 12.2745 20.814 12.2745C20.216 12.2745 19.7341 11.7892 19.7341 11.195C19.7341 10.5972 20.2195 10.1155 20.814 10.1155C21.4085 10.1155 21.8939 10.6007 21.8939 11.195Z" fill="white"/>
</svg>
