<svg width="32" height="32" viewBox="0 0 32 32" fill="none" xmlns="http://www.w3.org/2000/svg">
<rect width="32" height="32" rx="16" fill="#FD3A69"/>
<path d="M10.2667 19.6C10.2667 20.1053 10.407 20.4982 10.6877 20.7789C10.9684 21.0596 11.3614 21.2 11.8667 21.2H18.2667C18.7719 21.2 19.1649 21.0596 19.4456 20.7789C19.7263 20.4982 19.8667 20.1053 19.8667 19.6V13.2C19.8667 12.6947 19.7263 12.3018 19.4456 12.0211C19.1649 11.7404 18.7719 11.6 18.2667 11.6H11.8667C11.3614 11.6 10.9684 11.7404 10.6877 12.0211C10.407 12.3018 10.2667 12.6947 10.2667 13.2V19.6ZM8.66666 13.2C8.66666 12.6105 8.80701 12.0725 9.08772 11.586C9.37778 11.0901 9.76608 10.7018 10.2526 10.4211C10.7485 10.1404 11.2865 10 11.8667 10H18.2667C18.8561 10 19.3941 10.1404 19.8807 10.4211C20.3766 10.7018 20.7649 11.0901 21.0456 11.586C21.3263 12.0725 21.4667 12.6105 21.4667 13.2V19.6C21.4667 20.1801 21.3263 20.7181 21.0456 21.214C20.7649 21.7006 20.3766 22.0889 19.8807 22.3789C19.3941 22.6596 18.8561 22.8 18.2667 22.8H11.8667C11.2865 22.8 10.7485 22.6596 10.2526 22.3789C9.76608 22.0889 9.37778 21.7006 9.08772 21.214C8.80701 20.7181 8.66666 20.1801 8.66666 19.6V13.2ZM21.4667 16.007V16.793L23.7123 18.4772C23.4877 18.6363 23.324 18.7673 23.221 18.8702C23.1181 18.9637 23.0667 19.0292 23.0667 19.0667V13.7333C23.0667 13.6772 23.1509 13.6819 23.3193 13.7474C23.4877 13.8035 23.6421 13.8784 23.7825 13.9719C23.9322 14.0561 23.9836 14.117 23.9368 14.1544L21.4667 16.007ZM22.9544 12.8912C23.1789 12.7134 23.4222 12.6386 23.6842 12.6667C23.9556 12.6947 24.1848 12.807 24.3719 13.0035C24.5684 13.2 24.6667 13.4433 24.6667 13.7333V19.0667C24.6667 19.3567 24.5684 19.6 24.3719 19.7965C24.1848 19.993 23.9556 20.1053 23.6842 20.1333C23.4222 20.1614 23.1789 20.0865 22.9544 19.9088L19.8667 17.607V15.193L22.9544 12.8912Z" fill="white"/>
</svg>
