<svg width="32" height="32" viewBox="0 0 32 32" fill="none" xmlns="http://www.w3.org/2000/svg">
<rect width="32" height="32" rx="16" fill="#979FA9"/>
<path d="M24.8207 12.6972C24.8207 12.6972 24.6449 11.4718 24.1035 10.9338C23.418 10.2256 22.6516 10.2222 22.3 10.1805C19.7828 10 16.0035 10 16.0035 10H15.9965C15.9965 10 12.2172 10 9.7 10.1805C9.34844 10.2222 8.58203 10.2256 7.89648 10.9338C7.35508 11.4718 7.18281 12.6972 7.18281 12.6972C7.18281 12.6972 7 14.1377 7 15.5748V16.9217C7 18.3588 7.1793 19.7994 7.1793 19.7994C7.1793 19.7994 7.35508 21.0247 7.89297 21.5628C8.57852 22.2709 9.47852 22.2466 9.8793 22.323C11.3207 22.4583 16 22.5 16 22.5C16 22.5 19.7828 22.4931 22.3 22.316C22.6516 22.2744 23.418 22.2709 24.1035 21.5628C24.6449 21.0247 24.8207 19.7994 24.8207 19.7994C24.8207 19.7994 25 18.3623 25 16.9217V15.5748C25 14.1377 24.8207 12.6972 24.8207 12.6972ZM14.1402 18.5567V13.5615L19.0023 16.0678L14.1402 18.5567Z" fill="white"/>
</svg>
