<svg width="32" height="32" viewBox="0 0 32 32" fill="none" xmlns="http://www.w3.org/2000/svg">
<rect width="32" height="32" rx="16" fill="#FF0302"/>
<path d="M24.8207 12.4018C24.8207 12.4018 24.6449 11.1607 24.1035 10.6158C23.418 9.89864 22.6516 9.89512 22.3 9.85293C19.7828 9.67012 16.0035 9.67012 16.0035 9.67012H15.9965C15.9965 9.67012 12.2172 9.67012 9.7 9.85293C9.34844 9.89512 8.58203 9.89864 7.89648 10.6158C7.35508 11.1607 7.18281 12.4018 7.18281 12.4018C7.18281 12.4018 7 13.8607 7 15.3162V16.6803C7 18.1357 7.1793 19.5947 7.1793 19.5947C7.1793 19.5947 7.35508 20.8357 7.89297 21.3807C8.57852 22.0979 9.47852 22.0732 9.8793 22.1506C11.3207 22.2877 16 22.3299 16 22.3299C16 22.3299 19.7828 22.3229 22.3 22.1436C22.6516 22.1014 23.418 22.0979 24.1035 21.3807C24.6449 20.8357 24.8207 19.5947 24.8207 19.5947C24.8207 19.5947 25 18.1393 25 16.6803V15.3162C25 13.8607 24.8207 12.4018 24.8207 12.4018ZM14.1402 18.3361V13.2772L19.0023 15.8154L14.1402 18.3361Z" fill="white"/>
</svg>
